<svg width="21" height="41" viewBox="0 0 21 41" fill="none" xmlns="http://www.w3.org/2000/svg">
<path d="M14.2675 0.260878C14.4142 2.83075 15.1414 5.42963 14.5685 7.96419C14.6962 12.2818 17.49 15.1114 18.8837 18.9486C20.6999 23.9484 21.0123 29.0767 19.7147 34.243C18.9786 37.1735 18.1312 39.0284 15.192 40.1481C14.5419 40.3953 12.3388 40.848 11.6748 40.8555C8.99861 40.8858 4.05098 37.2933 2.67369 35.132C-1.45186 28.6619 -0.330047 21.9484 2.84063 15.4304C3.84356 13.3675 5.25753 12.3827 6.1947 10.5215C6.95733 9.00576 7.27604 7.30975 7.90335 5.73983C8.89111 3.27209 10.9842 -1.11359 14.2662 0.260878H14.2675Z" fill="black"/>
</svg>
