<svg width="187" height="49" viewBox="0 0 187 49" fill="none" xmlns="http://www.w3.org/2000/svg">
<path d="M168.11 30.03C167.783 27.8833 167.503 26.81 167.27 26.81C165.87 27.09 163.957 28.0233 161.53 29.61C159.15 31.15 157.47 32.55 156.49 33.81C155.697 34.8833 155.3 35.8866 155.3 36.82C155.3 37.7533 155.743 38.4066 156.63 38.78C157.33 39.0133 157.983 39.13 158.59 39.13C161.623 39.13 164.493 37.73 167.2 34.93L168.74 33.32L168.11 30.03ZM175.32 15.68C175.46 15.12 175.39 14.84 175.11 14.84C174.783 14.84 174.62 15.0733 174.62 15.54C174.62 15.9133 174.48 16.4266 174.2 17.08C174.06 17.36 173.733 18.2233 173.22 19.67C172.987 20.37 172.87 20.8366 172.87 21.07C172.87 21.3033 173.01 21.5366 173.29 21.77C173.57 21.91 173.78 21.98 173.92 21.98C174.247 21.98 174.503 21.0233 174.69 19.11C174.97 17.1033 175.18 15.96 175.32 15.68ZM174.83 2.72996C175.343 2.21663 175.857 1.95996 176.37 1.95996C177.21 1.95996 177.957 2.63663 178.61 3.98996C178.983 4.87663 179.17 7.69996 179.17 12.46C179.17 16.7066 179.007 19.4133 178.68 20.58C178.54 21 178.353 21.6766 178.12 22.61C177.933 23.5433 177.723 24.3833 177.49 25.13C177.303 25.8766 177.093 26.46 176.86 26.88C176.58 27.5333 176.44 27.9533 176.44 28.14C176.44 28.2333 176.183 28.91 175.67 30.17C175.157 31.43 174.9 32.2466 174.9 32.62C174.9 32.76 174.923 32.8533 174.97 32.9C175.203 33.1333 176.16 33.3433 177.84 33.53C178.213 33.5766 178.657 33.6 179.17 33.6C180.057 33.6 181.037 33.18 182.11 32.34C183.277 31.4066 184 30.94 184.28 30.94C184.84 30.94 185.283 31.1266 185.61 31.5C185.937 31.8733 186.1 32.34 186.1 32.9C186.1 33.9266 185.657 34.8133 184.77 35.56C184.023 36.26 183.253 36.7966 182.46 37.17C181.807 37.5433 180.477 37.73 178.47 37.73C176.883 37.73 175.973 37.59 175.74 37.31C175.6 37.03 175.203 36.89 174.55 36.89C173.897 36.89 173.313 36.7033 172.8 36.33C172.613 36.2366 172.45 36.19 172.31 36.19C171.797 36.19 170.49 37.0766 168.39 38.85C166.01 40.9033 164.54 41.93 163.98 41.93C163.373 41.93 163 42.07 162.86 42.35C162.627 42.6766 161.273 42.84 158.8 42.84C156.887 42.84 155.673 42.77 155.16 42.63C154.693 42.49 154.063 42.0233 153.27 41.23C152.57 40.4833 152.127 39.9 151.94 39.48C151.753 39.0133 151.66 38.2433 151.66 37.17C151.66 34.2766 153.107 31.4533 156 28.7C157.167 27.58 158.963 26.2966 161.39 24.85C163.863 23.4033 165.473 22.68 166.22 22.68C167.48 22.5866 168.413 21.5133 169.02 19.46C170.747 13.2066 172.077 9.14663 173.01 7.27996C173.383 6.43996 173.663 5.57663 173.85 4.68996C174.177 3.6633 174.503 3.00996 174.83 2.72996Z" fill="currentColor"/>
<path d="M143.983 16.7302C144.216 16.5902 144.543 16.3336 144.963 15.9602C145.43 15.5869 145.78 15.3302 146.013 15.1902C146.246 15.0036 146.596 14.8402 147.063 14.7002C147.53 14.5602 148.043 14.4902 148.603 14.4902C149.396 14.4902 149.98 14.6069 150.353 14.8402C150.773 15.0269 151.123 15.6336 151.403 16.6602C151.73 17.6869 151.94 18.9702 152.033 20.5102C152.126 22.0502 152.22 24.4536 152.313 27.7202C152.406 31.5469 152.453 33.8102 152.453 34.5102C152.453 37.1236 152.313 38.7802 152.033 39.4802C151.8 40.1802 151.31 40.5302 150.563 40.5302C149.35 40.5302 148.626 40.0402 148.393 39.0602C148.16 38.0336 148.043 35.0236 148.043 30.0302C148.043 23.8702 147.81 20.7902 147.343 20.7902C146.97 20.7902 146.036 21.5836 144.543 23.1702C143.096 24.7102 142.07 25.9936 141.463 27.0202C140.996 28.0002 140.6 28.4902 140.273 28.4902C139.993 28.4902 139.853 28.6536 139.853 28.9802C139.853 29.3069 139.06 30.4269 137.473 32.3402C135.886 34.2536 134.673 36.0969 133.833 37.8702C133.273 38.9902 132.83 39.7136 132.503 40.0402C132.176 40.3669 131.756 40.5302 131.243 40.5302C129.61 40.5302 128.793 39.7602 128.793 38.2202C128.793 37.3336 129.12 36.1902 129.773 34.7902C130.426 33.4836 130.753 31.4302 130.753 28.6302C130.753 25.7369 130.426 23.4502 129.773 21.7702C129.4 20.7902 129.213 19.9036 129.213 19.1102C129.213 17.9436 129.773 17.3602 130.893 17.3602C131.78 17.3602 132.666 18.2236 133.553 19.9502C134.486 21.6769 134.976 23.4269 135.023 25.2002C135.023 26.0869 135.163 26.5302 135.443 26.5302C135.863 26.5302 137.053 25.2936 139.013 22.8202C141.02 20.3002 142.14 18.9936 142.373 18.9002C142.606 18.8069 142.723 18.5736 142.723 18.2002C142.723 17.8269 143.143 17.3369 143.983 16.7302Z" fill="currentColor"/>
<path d="M115.063 0.910001C115.39 0.303334 115.81 0 116.323 0C116.883 0 117.396 0.280001 117.863 0.840002C118.33 1.4 118.563 2.07667 118.563 2.87C118.563 3.47667 118.47 3.89667 118.283 4.13C118.143 4.36333 117.84 4.52667 117.373 4.62C116.58 4.80667 115.973 4.78333 115.553 4.55C114.993 4.27 114.713 3.57 114.713 2.45C114.713 1.89 114.83 1.37667 115.063 0.910001ZM118.423 17.78C118.936 17.22 119.496 16.94 120.103 16.94C120.756 16.94 121.316 17.1967 121.783 17.71C122.25 18.1767 122.483 18.76 122.483 19.46C122.483 19.8333 122.366 20.3 122.133 20.86C121.06 23.0067 120.22 24.57 119.613 25.55C118.913 26.53 118.563 27.1367 118.563 27.37C118.563 27.7433 118.446 27.93 118.213 27.93C118.073 27.93 117.676 28.5367 117.023 29.75C116.37 30.9167 115.833 32.0367 115.413 33.11C115.32 33.2967 115.18 33.6233 114.993 34.09C114.853 34.51 114.736 34.79 114.643 34.93C114.363 35.4433 114.223 35.91 114.223 36.33C114.223 36.75 114.433 37.1467 114.853 37.52C115.086 37.7067 115.46 37.8 115.973 37.8C117.56 37.8 119.613 37.1 122.133 35.7C124.7 34.3 125.983 33.11 125.983 32.13C125.983 31.5233 126.123 31.0333 126.403 30.66C126.73 30.2867 127.103 30.1 127.523 30.1C128.13 30.1 128.596 30.45 128.923 31.15C129.296 32.0367 129.483 32.7833 129.483 33.39C129.483 34.5567 128.876 35.7233 127.663 36.89C126.31 38.0567 125.236 38.8267 124.443 39.2C123.883 39.48 123.253 39.83 122.553 40.25C121.153 41.3233 118.936 41.86 115.903 41.86C114.41 41.86 113.29 41.6733 112.543 41.3C111.843 40.88 111.166 40.11 110.513 38.99C110.233 38.57 110.046 38.36 109.953 38.36C109.766 38.36 109.37 38.57 108.763 38.99C107.876 39.55 106.383 40.9033 104.283 43.05C102.09 45.15 100.783 46.2 100.363 46.2C99.1496 46.2 98.543 45.4533 98.543 43.96C98.543 42.84 101.903 39.34 108.623 33.46C110.536 31.78 112.076 29.82 113.243 27.58C115.763 22.7267 117.14 20.2533 117.373 20.16C117.606 20.0667 117.723 19.7633 117.723 19.25C117.723 18.7367 117.956 18.2467 118.423 17.78Z" fill="currentColor"/>
<path d="M78.2849 16.1005C78.6116 15.5405 78.9149 15.1905 79.1949 15.0505C79.5216 14.8638 80.0116 14.7705 80.6649 14.7705C81.6916 14.7705 82.4149 14.9338 82.8349 15.2605C84.2349 16.7538 85.5416 20.7438 86.7549 27.2305C87.3149 30.2172 87.7349 32.2472 88.0149 33.3205C88.3416 34.3938 88.6683 34.9305 88.9949 34.9305C89.2749 34.9305 89.7649 34.3938 90.4649 33.3205C91.1649 32.2472 91.6083 31.7105 91.7949 31.7105C91.9816 31.7105 92.3316 31.2905 92.8449 30.4505C93.4049 29.4705 94.0583 28.5838 94.8049 27.7905C95.6916 26.8105 96.8816 25.2005 98.3749 22.9605C99.9149 20.7672 100.802 19.5538 101.035 19.3205C101.362 18.9938 101.875 18.3405 102.575 17.3605C103.415 16.2405 104.232 15.6805 105.025 15.6805C105.725 15.6805 106.308 16.0538 106.775 16.8005C107.055 17.3138 107.195 17.6638 107.195 17.8505C107.195 18.1772 106.798 19.0405 106.005 20.4405C105.118 21.9805 102.622 25.2705 98.5149 30.3105C96.1816 33.8572 94.1516 36.4238 92.4249 38.0105C90.8383 39.5972 89.4616 40.3905 88.2949 40.3905C86.9883 40.3905 85.9849 39.8305 85.2849 38.7105C84.6316 37.5905 84.0483 35.6305 83.5349 32.8305C82.6949 27.7905 82.1116 24.7805 81.7849 23.8005C81.4583 22.8205 80.8983 22.2838 80.1049 22.1905C79.4983 22.1438 79.0783 21.9805 78.8449 21.7005C78.6116 21.4205 78.3783 20.7672 78.1449 19.7405C77.9116 18.7138 77.7949 18.0605 77.7949 17.7805C77.7949 17.4072 77.9583 16.8472 78.2849 16.1005Z" fill="currentColor"/>
<path d="M53.245 15.4702C53.245 14.9568 53.0817 14.7002 52.755 14.7002C52.335 14.7002 51.285 15.3302 49.605 16.5902C46.385 18.9702 44.775 20.7202 44.775 21.8402C44.775 22.3068 44.915 22.7502 45.195 23.1702C45.7083 23.9168 46.525 24.2902 47.645 24.2902C48.485 24.2435 49.0683 24.0568 49.395 23.7302C49.7217 23.3568 50.375 22.2135 51.355 20.3002C52.615 17.6868 53.245 16.0768 53.245 15.4702ZM50.655 10.7102C51.915 10.0102 53.105 9.66016 54.225 9.66016C55.4383 9.66016 56.395 10.0568 57.095 10.8502C57.8417 11.6435 58.215 12.7168 58.215 14.0702C58.215 14.6768 58.0983 15.4468 57.865 16.3802C57.3517 18.3868 56.4883 20.4168 55.275 22.4702C54.855 23.2635 54.645 23.9402 54.645 24.5002C54.645 24.9668 54.785 25.2002 55.065 25.2002C55.2983 25.2002 56.1383 25.0368 57.585 24.7102C59.0783 24.3835 60.0117 24.1502 60.385 24.0102C60.5717 23.9635 61.3183 23.5202 62.625 22.6802C65.0517 21.1402 66.755 20.3702 67.735 20.3702C68.015 20.3702 68.3417 20.4635 68.715 20.6502C69.415 20.9768 69.765 21.6068 69.765 22.5402C69.765 23.5202 69.2983 24.7568 68.365 26.2502C67.4783 27.7435 67.035 28.6302 67.035 28.9102C67.035 29.1902 66.825 29.4468 66.405 29.6802C65.9383 30.0068 65.2383 31.1502 64.305 33.1102C63.4183 35.0235 62.975 36.3302 62.975 37.0302C62.975 37.5435 63.0917 37.8935 63.325 38.0802C63.605 38.2202 64.165 38.3368 65.005 38.4302H65.565C66.5917 38.4302 68.5517 37.4502 71.445 35.4902C74.3383 33.5302 75.925 32.3635 76.205 31.9902C76.485 31.7102 76.9517 31.6168 77.605 31.7102C78.025 31.8035 78.305 31.9202 78.445 32.0602C78.585 32.1535 78.655 32.3868 78.655 32.7602C78.655 32.8068 78.6317 32.9235 78.585 33.1102C78.585 33.2502 78.585 33.3668 78.585 33.4602C78.445 35.1868 76.8817 37.0768 73.895 39.1302C72.4017 40.1568 71.6317 40.6935 71.585 40.7402C71.1183 41.3002 69.695 41.9302 67.315 42.6302C66.755 42.8168 66.1017 42.9102 65.355 42.9102C63.9083 42.9102 62.555 42.5602 61.295 41.8602C60.0817 41.1135 59.2183 40.1335 58.705 38.9202C58.5183 38.3602 58.425 37.8935 58.425 37.5202C58.425 36.1668 59.1717 34.0202 60.665 31.0802C61.4117 29.4002 61.785 28.4202 61.785 28.1402C61.6917 28.0002 61.4817 27.9535 61.155 28.0002C60.8283 28.0468 60.4317 28.1635 59.965 28.3502C59.0783 28.7235 57.5617 28.9102 55.415 28.9102H52.405L50.025 32.4102C49.0917 33.9035 47.2017 36.1902 44.355 39.2702C41.555 42.3035 39.7583 44.3802 38.965 45.5002C37.7983 47.2735 36.9817 48.1602 36.515 48.1602C36.095 48.1602 35.6283 47.7168 35.115 46.8302C34.7883 46.1768 34.625 45.7102 34.625 45.4302C34.625 45.1968 34.7883 44.6835 35.115 43.8902C35.9083 42.1635 38.2183 39.2002 42.045 35.0002C44.985 31.8735 46.455 29.8435 46.455 28.9102C46.455 28.7235 46.4083 28.5835 46.315 28.4902C45.9883 28.1635 45.5217 28.0002 44.915 28.0002C44.3083 28.0002 43.4917 27.6502 42.465 26.9502C41.4383 26.2035 40.7617 25.5035 40.435 24.8502C40.1083 24.0568 39.945 23.2635 39.945 22.4702C39.945 21.5835 40.1317 20.7202 40.505 19.8802C41.0183 18.8068 42.3717 17.2668 44.565 15.2602C46.805 13.2068 48.835 11.6902 50.655 10.7102Z" fill="currentColor"/>
<path d="M19.32 8.4705C19.32 8.89051 19.18 9.28717 18.9 9.66051C18.62 10.0338 18.48 10.4538 18.48 10.9205C18.48 11.6672 18.3167 12.1105 17.99 12.2505C17.71 12.4372 17.57 12.7872 17.57 13.3005C17.57 13.8138 16.8467 15.9372 15.4 19.6705C15.2133 20.3238 14.7467 21.5605 14 23.3805C13.2533 25.1538 12.74 26.2505 12.46 26.6705C12.0867 27.3238 11.9 27.8838 11.9 28.3505C11.9 28.6305 12.0167 28.8172 12.25 28.9105C12.53 29.0038 13.2067 29.0505 14.28 29.0505C15.8667 29.0505 17.3133 29.0272 18.62 28.9805C22.1667 28.8872 24.3833 28.7705 25.27 28.6305C26.2033 28.4438 26.67 28.0705 26.67 27.5105C26.67 27.2305 26.6467 27.0205 26.6 26.8805C26.5533 26.6005 26.46 26.1105 26.32 25.4105C26.18 24.6638 26.11 24.2438 26.11 24.1505C25.6433 21.5838 24.78 18.7838 23.52 15.7505C23.0067 14.6772 22.47 13.3005 21.91 11.6205C21.1167 9.47384 20.6733 8.33051 20.58 8.19051C20.3933 7.95717 20.1833 7.79384 19.95 7.70051C19.7633 7.60717 19.6 7.63051 19.46 7.77051C19.3667 7.91051 19.32 8.14384 19.32 8.4705ZM15.82 7.70051C15.82 7.28051 15.96 6.90717 16.24 6.58051C16.5667 6.20717 16.73 5.85717 16.73 5.53051C16.73 5.15717 16.94 4.45718 17.36 3.43051C17.8267 2.40384 18.2467 1.65717 18.62 1.19051C18.8533 0.910508 19.25 0.770508 19.81 0.770508C20.65 0.770508 21.2567 1.02717 21.63 1.54051C22.5167 3.64051 23.1933 5.08717 23.66 5.8805C24.5 7.42051 25.5733 10.2672 26.88 14.4205C28.2333 18.5272 29.2367 22.2138 29.89 25.4805L30.45 28.2105H32.76C33.7867 28.2105 34.44 28.2805 34.72 28.4205C35 28.5138 35.21 28.8172 35.35 29.3305C35.3967 29.5172 35.42 29.7505 35.42 30.0305C35.42 31.0572 34.5333 31.6405 32.76 31.7805L30.94 31.9205L31.08 36.5405C31.1733 38.7805 31.2667 40.1805 31.36 40.7405C31.5 41.2538 31.8733 41.8138 32.48 42.4205C33.32 43.3072 33.74 44.2872 33.74 45.3605C33.74 46.7138 33.1333 47.3905 31.92 47.3905H31.57C29.33 47.1105 28.07 43.7505 27.79 37.3105C27.65 34.5572 27.4167 33.0172 27.09 32.6905C26.9967 32.5972 25.97 32.5505 24.01 32.5505C15.7033 32.5505 10.8967 32.7838 9.59 33.2505C9.07667 33.4372 8.00333 35.2105 6.37 38.5705C4.97 41.4172 3.87333 43.4472 3.08 44.6605C2.56667 45.3605 1.96 45.7105 1.26 45.7105C0.793333 45.7105 0.466667 45.5472 0.28 45.2205C0.0933333 44.9872 0 44.4505 0 43.6105C0 42.0705 0.28 40.6938 0.84 39.4805C3.31333 34.3472 5.06333 31.0572 6.09 29.6105C6.74333 28.5838 7.86333 26.3905 9.45 23.0305C11.0833 19.6705 11.9 17.8038 11.9 17.4305C11.9 17.2438 12.0867 16.9172 12.46 16.4505C12.9267 15.7038 13.3 14.8172 13.58 13.7905C13.8133 12.9038 14.28 11.6905 14.98 10.1505C15.54 8.84384 15.82 8.02717 15.82 7.70051Z" fill="currentColor"/>
</svg>
