<svg width="1009" height="539" viewBox="0 0 1009 539" fill="none" xmlns="http://www.w3.org/2000/svg">
<path d="M609.985 6.36364H597.258V0H616.349V12.7273H609.985V6.36364ZM603.621 12.7273H609.985V19.0909H603.621V12.7273ZM603.621 25.4545H609.985V31.8182H603.621V25.4545Z" fill="white"/>
<path d="M559.043 0H565.407V25.4545H559.043V0ZM571.77 0H578.134V25.4545H571.77V0ZM584.498 0H590.861V25.4545H584.498V0ZM565.407 25.4545H571.77V31.8182H565.407V25.4545ZM578.134 25.4545H584.498V31.8182H578.134V25.4545Z" fill="white"/>
<path d="M546.341 6.36364H539.977V25.4545H546.341V6.36364ZM533.613 0H552.704V31.8182H533.613V0Z" fill="white"/>
<path d="M520.911 6.36364H514.547V31.8182H508.184V0H520.911V6.36364ZM520.911 6.36364H527.275V31.8182H520.911V6.36364Z" fill="white"/>
<path d="M470.047 19.0909H463.684V0H470.047V19.0909ZM476.411 0H482.775V19.0909H476.411V0ZM470.047 19.0909H476.411V31.8182H470.047V19.0909Z" fill="white"/>
<path d="M450.981 19.0909H444.618V31.8182H438.254V0H444.618V12.7273H450.981V0H457.345V31.8182H450.981V19.0909Z" fill="white"/>
<path d="M400.039 0H406.403V25.4545H400.039V0ZM412.766 0H419.13V25.4545H412.766V0ZM425.494 0H431.857V25.4545H425.494V0ZM406.403 25.4545H412.766V31.8182H406.403V25.4545ZM419.13 25.4545H425.494V31.8182H419.13V25.4545Z" fill="white"/>
<path d="M892.383 525.182H906.019V538.818H892.383V525.182Z" fill="white"/>
<path d="M865.148 525.182H878.784V538.819H851.512V470.637H865.148V484.273H878.784V497.909H865.148V525.182Z" fill="white"/>
<path d="M810.656 525.183H797.02V484.273H810.656V525.183ZM810.656 525.183H824.292V484.273H837.929V538.819H810.656V525.183Z" fill="white"/>
<path d="M756.164 484.273H769.8V497.91H756.164V484.273ZM742.527 497.91H756.164V525.183H742.527V497.91ZM769.8 497.91H783.436V525.183H769.8V497.91ZM756.164 525.183H769.8V538.819H756.164V525.183Z" fill="white"/>
<path d="M647.168 484.273H688.077V497.91H660.804V511.546H647.168V484.273ZM647.168 525.183H674.441V511.546H688.077V538.819H647.168V525.183Z" fill="white"/>
<path d="M619.948 497.91H606.312V538.819H592.676V484.273H619.948V497.91ZM619.948 497.91H633.585V538.819H619.948V497.91Z" fill="white"/>
<path d="M551.82 525.183H538.184V484.273H551.82V525.183ZM551.82 525.183H565.456V484.273H579.093V538.819H551.82V525.183Z" fill="white"/>
<path d="M497.312 484.273H524.585V497.91H510.949V538.819H497.312V484.273Z" fill="white"/>
<path d="M429.211 525.182H442.847V538.819H415.574V470.637H429.211V484.273H442.847V497.909H429.211V525.182Z" fill="white"/>
<path d="M374.718 484.273H401.991V538.819H374.718V525.183H388.355V497.91H374.718V484.273ZM361.082 497.91H374.718V525.183H361.082V497.91Z" fill="white"/>
<path d="M333.863 497.909H320.226V538.819H306.59V470.637H320.226V484.273H333.863V497.909ZM333.863 497.909H347.499V538.819H333.863V497.909Z" fill="white"/>
<path d="M224.707 484.273H238.343V525.183H224.707V484.273ZM251.98 484.273H265.616V525.183H251.98V484.273ZM279.253 484.273H292.889V525.183H279.253V484.273ZM238.343 525.183H251.98V538.819H238.343V525.183ZM265.616 525.183H279.253V538.819H265.616V525.183Z" fill="white"/>
<path d="M129.344 484.273H170.253V497.91H142.98V511.546H129.344V484.273ZM129.344 525.183H156.616V511.546H170.253V538.819H129.344V525.183Z" fill="white"/>
<path d="M102.098 470.637H115.734V484.273H102.098V470.637ZM102.098 497.909H115.734V538.819H102.098V497.909Z" fill="white"/>
<path d="M695.891 364.273H706.8V375.183H695.891V364.273ZM663.164 364.273H684.982V375.183H674.073V418.819H663.164V364.273ZM695.891 418.819H684.982V375.183H695.891V418.819ZM706.8 375.183H717.71V418.819H706.8V375.183Z" fill="white"/>
<path d="M652.178 356.418C652.738 353.458 652.579 351.098 651.699 349.338C650.899 347.498 649.779 346.098 648.339 345.138C646.899 344.098 645.298 343.418 643.538 343.098C641.858 342.778 640.419 342.618 639.219 342.618C638.019 342.618 636.499 342.818 634.659 343.218C632.899 343.538 631.099 344.218 629.259 345.258C627.499 346.218 625.859 347.618 624.339 349.458C622.899 351.218 621.939 353.578 621.459 356.538L614.139 397.818C613.659 400.858 613.818 403.258 614.618 405.018C615.498 406.698 616.659 408.018 618.099 408.978C619.539 409.858 621.099 410.418 622.779 410.658C624.539 410.898 626.019 411.018 627.219 411.018C628.419 411.018 629.899 410.898 631.659 410.658C633.499 410.338 635.298 409.738 637.059 408.858C638.899 407.898 640.538 406.578 641.978 404.898C643.418 403.138 644.378 400.778 644.858 397.818L652.178 356.418ZM652.899 397.818C652.579 399.578 651.858 401.738 650.738 404.298C649.618 406.778 647.979 409.178 645.819 411.498C643.659 413.818 640.899 415.818 637.539 417.498C634.179 419.098 630.179 419.898 625.539 419.898C620.979 419.898 617.338 419.098 614.618 417.498C611.978 415.818 609.939 413.818 608.499 411.498C607.139 409.178 606.298 406.778 605.978 404.298C605.738 401.738 605.779 399.578 606.099 397.818L613.418 356.538C613.738 354.778 614.459 352.618 615.579 350.058C616.779 347.418 618.458 344.898 620.618 342.498C622.858 340.098 625.619 338.058 628.899 336.378C632.259 334.618 636.259 333.738 640.899 333.738C645.459 333.738 649.059 334.578 651.699 336.258C654.419 337.938 656.459 339.978 657.819 342.378C659.179 344.778 659.979 347.298 660.219 349.938C660.539 352.498 660.539 354.658 660.219 356.418L652.899 397.818Z" fill="white"/>
<path d="M532.747 418.819C530.507 418.819 527.747 418.859 524.467 418.939C521.267 419.099 518.547 419.259 516.307 419.419C516.067 417.899 516.147 416.499 516.547 415.219C518.227 414.979 519.867 414.659 521.467 414.259C523.067 413.859 524.627 413.379 526.147 412.819V340.819L516.907 338.419C516.667 336.899 516.867 335.499 517.507 334.219C519.667 334.299 522.067 334.419 524.707 334.579C527.427 334.739 529.907 334.819 532.147 334.819L547.747 334.339C559.107 334.339 568.267 336.139 575.227 339.739C582.187 343.259 587.227 348.139 590.347 354.379C593.547 360.619 595.147 367.699 595.147 375.619C595.147 383.859 593.827 390.819 591.187 396.499C588.547 402.099 584.987 406.619 580.507 410.059C576.027 413.419 570.947 415.859 565.267 417.379C559.667 418.899 553.827 419.659 547.747 419.659L532.747 418.819ZM538.747 413.419C541.547 413.659 544.187 413.779 546.667 413.779C555.307 413.779 562.187 412.419 567.307 409.699C572.507 406.899 576.227 402.699 578.467 397.099C580.707 391.419 581.827 384.259 581.827 375.619C581.827 367.939 580.627 361.459 578.227 356.179C575.907 350.819 572.027 346.779 566.587 344.059C561.227 341.339 553.987 339.979 544.867 339.979C543.907 339.979 542.907 340.019 541.867 340.099C540.907 340.099 539.867 340.139 538.747 340.219V413.419Z" fill="white"/>
<path d="M422.938 362.539C422.938 354.259 427.138 347.419 435.658 341.899C444.178 336.379 454.618 333.619 466.978 333.619C480.298 333.619 491.098 336.859 499.258 343.459C507.418 350.059 511.497 358.699 511.497 369.619H511.018C511.018 363.259 507.058 360.499 495.898 360.499H439.378C432.298 360.499 428.458 363.379 428.458 368.299C428.458 373.699 432.298 376.579 439.618 376.579H495.057C505.977 376.579 511.738 381.499 511.738 390.619C511.738 399.259 507.657 406.339 499.497 411.859C491.457 417.259 481.018 420.019 468.178 420.019C454.858 420.019 443.938 416.779 435.538 410.179C427.138 403.579 422.938 394.819 422.938 384.019H423.418C423.418 390.379 427.378 393.139 438.538 393.139H495.297C502.377 393.139 506.218 390.259 506.218 385.339C506.218 379.939 502.377 377.059 495.057 377.059H439.618C428.938 377.059 422.938 371.659 422.938 362.539Z" fill="white"/>
<path d="M385.773 334.457C385.933 334.457 386.133 334.417 386.373 334.337C386.693 334.257 386.893 334.137 386.973 333.977C387.133 333.177 387.533 332.777 388.173 332.777C388.813 332.777 389.293 333.217 389.613 334.097C389.773 334.177 389.973 334.257 390.213 334.337C390.453 334.417 390.653 334.457 390.813 334.457C390.973 334.457 391.173 334.417 391.413 334.337C391.653 334.257 391.853 334.177 392.013 334.097C392.173 333.457 392.493 333.017 392.973 332.777H393.333H393.813C394.213 332.937 394.453 333.137 394.533 333.377L394.653 333.857C394.973 334.177 395.413 334.337 395.973 334.337C396.213 334.337 396.573 334.257 397.053 334.097C397.293 333.457 397.653 333.057 398.133 332.897H398.253C398.653 332.897 398.973 333.017 399.213 333.257L399.693 334.097C399.933 334.257 400.333 334.337 400.893 334.337C401.053 334.337 401.253 334.337 401.493 334.337C401.733 334.257 401.933 334.137 402.093 333.977C402.173 333.737 402.293 333.497 402.453 333.257C402.613 333.017 402.813 332.857 403.053 332.777H403.413H403.773C403.933 332.857 404.133 333.017 404.373 333.257C404.453 333.417 404.493 333.617 404.493 333.857C404.573 334.097 404.693 334.257 404.853 334.337C405.013 334.497 405.293 334.577 405.693 334.577C406.093 334.577 406.413 334.577 406.653 334.577L407.133 334.817C407.213 335.137 407.293 335.497 407.373 335.897C407.453 336.217 407.693 336.457 408.093 336.617H408.573H409.053C409.213 336.537 409.413 336.377 409.653 336.137L409.773 335.297C409.853 335.217 410.093 335.057 410.493 334.817H410.973H411.333C411.493 334.897 411.613 335.017 411.693 335.177C411.853 335.257 412.013 335.377 412.173 335.537L412.293 336.497C412.373 336.657 412.533 336.777 412.773 336.857C413.093 336.937 413.333 336.977 413.493 336.977C413.893 336.977 414.293 336.857 414.693 336.617L414.813 335.657L415.053 335.297C415.213 335.137 415.453 335.057 415.773 335.057C416.173 335.217 416.413 335.417 416.493 335.657V335.897V336.257C416.413 336.417 416.253 336.617 416.013 336.857L415.173 337.097C415.013 337.337 414.933 337.737 414.933 338.297C414.933 338.617 414.973 338.857 415.053 339.017L415.533 339.497L416.133 339.617C416.453 339.937 416.653 340.217 416.733 340.457V340.817V341.177C416.653 341.417 416.453 341.697 416.133 342.017L415.533 342.137C415.373 342.297 415.253 342.457 415.173 342.617C415.173 342.697 415.133 342.817 415.053 342.977V343.217C415.053 343.537 415.213 343.937 415.533 344.417C415.853 344.577 416.093 344.657 416.253 344.657C416.573 344.897 416.733 345.297 416.733 345.857C416.733 346.257 416.573 346.577 416.253 346.817C415.933 347.057 415.573 347.177 415.173 347.177L414.813 347.537C414.653 347.937 414.533 348.217 414.453 348.377C414.453 348.537 414.293 348.697 413.973 348.857H413.613H413.133C412.813 348.777 412.573 348.577 412.413 348.257C412.253 347.857 412.013 347.577 411.693 347.417H411.093C410.453 347.417 410.013 347.537 409.773 347.777C409.533 348.417 409.133 348.737 408.573 348.737C408.173 348.737 407.733 348.497 407.253 348.017L407.133 347.657L406.653 347.417H406.053H405.453C405.293 347.497 405.053 347.697 404.733 348.017L404.613 348.617C404.053 349.257 403.653 349.577 403.413 349.577C403.173 349.577 402.893 349.657 402.573 349.817C402.333 350.217 402.213 350.657 402.213 351.137C402.213 351.537 402.013 351.857 401.613 352.097C400.733 352.097 400.173 352.457 399.933 353.177V353.417V353.657C400.253 354.377 400.653 354.697 401.133 354.617C401.693 354.537 402.013 354.657 402.093 354.977L402.213 356.537C402.373 356.937 402.493 357.137 402.573 357.137L403.533 357.497C403.773 357.737 403.933 357.937 404.013 358.097V358.577V358.937C403.853 359.257 403.613 359.497 403.293 359.657L402.693 359.777L402.333 360.497V360.857C402.333 361.257 402.453 361.697 402.693 362.177L403.533 362.417C403.773 362.737 403.973 363.057 404.133 363.377C404.053 363.857 403.853 364.177 403.533 364.337C403.293 364.497 402.973 364.657 402.573 364.817C402.333 365.297 402.213 365.737 402.213 366.137C402.213 366.537 402.253 366.857 402.333 367.097L402.573 367.337C402.813 367.417 403.053 367.497 403.293 367.577C403.613 367.657 403.813 367.857 403.893 368.177V368.537V368.897C403.733 369.057 403.533 369.257 403.293 369.497C403.133 369.657 402.933 369.697 402.693 369.617L402.333 369.977C402.253 370.217 402.213 370.617 402.213 371.177C402.213 371.657 402.253 372.017 402.333 372.257C402.413 372.417 402.733 372.537 403.293 372.617C403.533 372.777 403.733 372.977 403.893 373.217V373.577V373.937L403.653 374.297C403.413 374.457 403.093 374.537 402.693 374.537C402.373 374.537 402.213 374.697 402.213 375.017L402.093 377.297L401.853 377.537L400.893 377.657C400.653 377.817 400.453 378.017 400.293 378.257V378.617V378.977C400.453 379.137 400.653 379.337 400.893 379.577C401.133 379.737 401.413 379.777 401.733 379.697L401.973 379.937C402.133 380.097 402.173 380.297 402.093 380.537C402.093 380.697 402.093 380.857 402.093 381.017C402.093 381.657 402.013 382.057 401.853 382.217C401.773 382.377 401.653 382.497 401.493 382.577C401.333 382.577 401.133 382.617 400.893 382.697C400.653 382.697 400.413 382.857 400.173 383.177C400.093 383.257 400.053 383.417 400.053 383.657C400.053 383.977 400.093 384.177 400.173 384.257C400.413 384.577 400.653 384.777 400.893 384.857C401.133 384.857 401.413 384.897 401.733 384.977C401.973 385.377 402.093 385.777 402.093 386.177C402.093 386.337 402.053 386.577 401.973 386.897C401.893 387.137 401.773 387.297 401.613 387.377C401.133 387.377 400.733 387.497 400.413 387.737L400.053 388.217L399.933 388.697C400.093 389.177 400.293 389.497 400.533 389.657C400.853 389.737 401.213 389.857 401.613 390.017C401.693 390.017 401.813 390.217 401.973 390.617V391.217V391.817L401.733 392.417C400.853 392.577 400.333 392.937 400.173 393.497V393.617C400.173 394.017 400.333 394.337 400.653 394.577C400.973 394.737 401.333 394.897 401.733 395.057C401.813 395.217 401.893 395.417 401.973 395.657C402.053 395.817 402.093 395.977 402.093 396.137C402.093 396.297 402.053 396.537 401.973 396.857C401.893 397.097 401.773 397.297 401.613 397.457L401.013 397.697L400.413 398.297V398.657V399.017C400.493 399.177 400.653 399.377 400.893 399.617L401.853 399.857C402.173 400.097 402.333 400.417 402.333 400.817C402.333 401.137 402.453 401.497 402.693 401.897C403.013 402.137 403.293 402.297 403.533 402.377C403.853 402.377 404.213 402.417 404.613 402.497L404.853 402.737C404.853 402.817 404.853 402.897 404.853 402.977C404.933 403.057 404.973 403.137 404.973 403.217L405.213 403.817L405.573 404.177C405.733 404.257 405.933 404.297 406.173 404.297C406.413 404.297 406.613 404.257 406.773 404.177L407.133 403.817L407.253 403.337C407.573 403.097 407.973 402.977 408.453 402.977C409.013 402.977 409.413 403.137 409.653 403.457L409.773 404.057C410.093 404.377 410.373 404.577 410.613 404.657H411.093H411.453C411.613 404.577 411.693 404.537 411.693 404.537C411.773 404.457 411.893 404.377 412.053 404.297C412.213 404.137 412.293 403.977 412.293 403.817C412.293 403.657 412.293 403.497 412.293 403.337L412.653 402.977L413.493 402.737C414.133 402.737 414.533 403.017 414.693 403.577L414.813 404.657L415.173 405.017C416.373 405.017 417.013 405.537 417.093 406.577L416.973 407.057L416.613 407.537L415.653 407.657C415.493 407.817 415.333 407.977 415.173 408.137C415.093 408.297 415.013 408.457 414.933 408.617V408.977V409.337C415.013 409.497 415.093 409.617 415.173 409.697C415.253 409.777 415.333 409.897 415.413 410.057H416.493C416.653 410.297 416.773 410.537 416.853 410.777C417.013 411.017 417.093 411.257 417.093 411.497C417.093 411.897 416.933 412.257 416.613 412.577L415.653 412.697L415.293 412.937C415.053 413.177 414.933 413.497 414.933 413.897C414.933 414.457 415.093 414.857 415.413 415.097C415.573 415.097 415.733 415.097 415.893 415.097C416.133 415.097 416.333 415.177 416.493 415.337C416.653 415.657 416.733 415.897 416.733 416.057C416.733 416.217 416.693 416.377 416.613 416.537C416.613 416.697 416.533 416.817 416.373 416.897C416.213 416.977 415.973 417.017 415.653 417.017H415.293C414.893 416.697 414.693 416.257 414.693 415.697C414.693 415.617 414.493 415.497 414.093 415.337H413.613H413.013C412.613 415.497 412.373 415.697 412.293 415.937L412.173 416.777C411.853 417.097 411.573 417.297 411.333 417.377H410.973C410.493 417.377 410.093 417.217 409.773 416.897L409.653 416.057C409.573 415.817 409.333 415.617 408.933 415.457H408.573H408.333C407.693 415.617 407.293 416.217 407.133 417.257C406.733 417.497 406.333 417.617 405.933 417.617C405.693 417.617 405.333 417.537 404.853 417.377L404.733 417.257C404.573 416.857 404.453 416.537 404.373 416.297C404.293 416.057 404.093 415.857 403.773 415.697H403.413H403.053C402.733 415.777 402.533 415.937 402.453 416.177C402.373 416.337 402.293 416.537 402.213 416.777C402.133 417.017 402.013 417.217 401.853 417.377C401.693 417.537 401.373 417.617 400.893 417.617C400.653 417.617 400.293 417.537 399.813 417.377L399.693 417.257C399.613 416.857 399.493 416.497 399.333 416.177C399.173 415.777 398.893 415.577 398.493 415.577C398.013 415.577 397.613 415.817 397.293 416.297C397.133 416.777 397.053 417.097 397.053 417.257C396.653 417.497 396.253 417.617 395.853 417.617L394.773 417.377C394.613 417.297 394.493 417.137 394.413 416.897C394.333 416.577 394.173 416.337 393.933 416.177C393.773 416.097 393.573 416.057 393.333 416.057C392.773 416.057 392.413 416.457 392.253 417.257C391.853 417.497 391.413 417.617 390.933 417.617C390.533 417.617 390.093 417.537 389.613 417.377C389.533 417.217 389.453 417.097 389.373 417.017C389.373 416.857 389.333 416.697 389.253 416.537L388.773 416.057C388.613 415.977 388.373 415.937 388.053 415.937C387.493 415.937 387.133 416.297 386.973 417.017C386.813 417.257 386.453 417.377 385.893 417.377H385.533C385.133 417.297 384.813 417.097 384.573 416.777L384.453 416.057C384.373 415.817 384.133 415.617 383.733 415.457H383.253H382.653C382.493 415.537 382.373 415.617 382.293 415.697C382.293 415.697 382.213 415.737 382.053 415.817L381.933 416.537L381.693 416.897C381.533 416.977 381.373 417.057 381.213 417.137C381.053 417.217 380.893 417.257 380.733 417.257C380.333 417.257 380.013 417.137 379.773 416.897L379.533 416.537L379.413 415.937C379.173 415.537 378.813 415.337 378.333 415.337C377.853 415.337 377.413 415.537 377.013 415.937L376.893 416.537C376.813 416.777 376.573 416.977 376.173 417.137H375.693H375.213C374.893 417.057 374.653 416.897 374.493 416.657C374.413 416.337 374.373 416.057 374.373 415.817C374.133 415.497 373.693 415.337 373.053 415.337H372.813C372.573 415.417 372.293 415.617 371.973 415.937L371.853 416.657C371.693 416.897 371.413 417.137 371.013 417.377H370.413H369.933L369.453 417.137C369.293 416.497 368.973 416.097 368.493 415.937C368.013 415.697 367.453 415.537 366.813 415.457C366.813 415.057 366.813 414.537 366.813 413.897C366.813 413.177 366.733 412.617 366.573 412.217H366.453C366.053 412.057 365.813 411.857 365.733 411.617C365.733 411.537 365.813 411.337 365.973 411.017C366.053 411.017 366.133 411.017 366.213 411.017C366.293 410.937 366.413 410.897 366.573 410.897L366.933 411.137V411.977L367.773 412.097L368.493 411.857C368.653 411.777 368.813 411.577 368.973 411.257L368.853 410.657L368.613 410.417C368.453 410.337 368.253 410.297 368.013 410.297C367.773 410.217 367.573 410.137 367.413 410.057C367.253 409.897 367.133 409.697 367.053 409.457C367.053 409.217 367.053 409.017 367.053 408.857C367.053 408.297 367.093 407.897 367.173 407.657L367.413 407.417C367.733 407.417 368.013 407.377 368.253 407.297C368.573 407.137 368.733 406.857 368.733 406.457C368.733 406.217 368.693 406.017 368.613 405.857L368.253 405.497C368.093 405.417 367.733 405.377 367.173 405.377C367.173 405.217 367.133 405.057 367.053 404.897C367.053 404.657 367.053 404.457 367.053 404.297C367.053 404.137 367.053 404.057 367.053 404.057C367.133 403.977 367.173 403.857 367.173 403.697C367.573 403.297 367.893 403.057 368.133 402.977C368.293 402.977 368.453 403.017 368.613 403.097C368.853 403.177 369.053 403.257 369.213 403.337C369.373 403.657 369.453 403.937 369.453 404.177C369.613 404.337 369.773 404.497 369.933 404.657C370.093 404.737 370.253 404.817 370.413 404.897H370.893C371.293 404.897 371.573 404.857 371.733 404.777L371.853 404.657L372.093 403.817C372.173 403.577 372.413 403.377 372.813 403.217H373.173H373.533C373.773 403.297 373.973 403.497 374.133 403.817C374.293 404.057 374.413 404.297 374.493 404.537C374.573 404.697 374.773 404.817 375.093 404.897C375.413 404.977 375.653 405.017 375.813 405.017C375.973 405.017 376.173 404.977 376.413 404.897C376.653 404.817 376.813 404.697 376.893 404.537C377.053 403.737 377.413 403.257 377.973 403.097H378.453H378.933L379.413 403.337L379.533 404.057C379.613 404.137 379.853 404.297 380.253 404.537H380.493H380.733C381.133 404.377 381.333 404.257 381.333 404.177C381.413 404.017 381.453 403.777 381.453 403.457V403.097C381.373 403.017 381.293 402.937 381.213 402.857C381.213 402.777 381.173 402.697 381.093 402.617L380.373 402.497C380.293 402.417 380.213 402.337 380.133 402.257C380.133 402.177 380.093 402.097 380.013 402.017V401.537V400.937C380.093 400.617 380.293 400.417 380.613 400.337C380.933 400.177 381.213 400.057 381.453 399.977C381.693 399.737 381.813 399.337 381.813 398.777V398.297C381.573 397.897 381.413 397.657 381.333 397.577C380.773 397.417 380.413 397.217 380.253 396.977C380.173 396.817 380.133 396.577 380.133 396.257V396.017L380.373 395.537C380.773 395.217 381.093 395.057 381.333 395.057C381.573 395.057 381.773 394.817 381.933 394.337C381.933 394.177 381.933 393.897 381.933 393.497C381.933 393.097 382.013 392.817 382.173 392.657L382.413 392.417C382.973 392.417 383.453 392.257 383.853 391.937L384.093 391.577V391.217V390.737C384.013 390.577 383.853 390.377 383.613 390.137C383.133 389.977 382.773 389.897 382.533 389.897L382.293 389.657L382.053 389.057V388.697C382.053 388.217 382.093 387.857 382.173 387.617L382.293 387.497C382.453 387.417 382.773 387.377 383.253 387.377C383.733 387.217 384.053 386.937 384.213 386.537V386.057V385.697C384.053 385.377 383.813 385.137 383.493 384.977L382.293 384.857L382.173 384.737C382.093 384.497 382.053 384.177 382.053 383.777V383.297C382.133 383.137 382.173 382.977 382.173 382.817C382.253 382.657 382.373 382.537 382.533 382.457L383.733 382.337L384.093 382.097C384.333 381.857 384.453 381.537 384.453 381.137C384.453 380.657 384.173 380.257 383.613 379.937L382.533 379.817C382.373 379.737 382.253 379.537 382.173 379.217C382.093 378.897 382.053 378.657 382.053 378.497C382.053 378.177 382.173 377.817 382.413 377.417L383.493 377.297C383.973 377.137 384.253 376.897 384.333 376.577V376.097V375.617C384.173 375.297 383.933 375.057 383.613 374.897L382.533 374.777L382.293 374.537C382.133 374.217 382.053 373.897 382.053 373.577C382.053 373.177 382.173 372.777 382.413 372.377C382.813 372.377 383.173 372.297 383.493 372.137C383.893 371.977 384.093 371.697 384.093 371.297C384.093 370.897 384.013 370.617 383.853 370.457C383.773 370.297 383.613 370.137 383.373 369.977C383.213 369.977 383.013 369.977 382.773 369.977C382.613 369.977 382.453 369.897 382.293 369.737L382.053 369.257V367.337L381.693 366.977C381.133 367.137 380.693 366.977 380.373 366.497C380.293 366.337 380.253 366.137 380.253 365.897C380.253 365.737 380.333 365.537 380.493 365.297C380.733 364.977 380.933 364.857 381.093 364.937L381.693 364.697C381.853 364.457 381.933 364.057 381.933 363.497C381.933 363.337 381.893 363.137 381.813 362.897C381.813 362.657 381.813 362.497 381.813 362.417L381.573 362.177C381.253 362.177 380.853 362.017 380.373 361.697C380.213 361.377 380.133 361.137 380.133 360.977L380.253 360.497C380.333 360.337 380.533 360.177 380.853 360.017L381.813 359.897L381.933 359.657V357.377C381.933 357.297 381.853 357.177 381.693 357.017C381.453 357.097 381.173 357.097 380.853 357.017C380.533 356.857 380.333 356.617 380.253 356.297V355.937V355.577C380.333 355.417 380.493 355.217 380.733 354.977C380.893 354.897 381.173 354.857 381.573 354.857L381.813 354.617C381.973 354.297 382.013 353.897 381.933 353.417C381.933 352.937 382.013 352.537 382.173 352.217C382.333 352.057 382.453 351.977 382.533 351.977H383.253C383.653 351.817 383.933 351.537 384.093 351.137V350.897V350.657C383.933 350.257 383.813 350.057 383.733 350.057C383.573 349.977 383.293 349.937 382.893 349.937H382.533L382.053 350.177V351.617L381.213 351.857L380.733 351.737C380.493 351.497 380.333 351.297 380.253 351.137V350.657V350.297L380.373 350.057C380.613 349.817 380.853 349.737 381.093 349.817C381.333 349.817 381.533 349.737 381.693 349.577C381.773 349.337 381.813 349.017 381.813 348.617V348.137C381.493 347.337 380.773 347.017 379.653 347.177L379.413 347.057L379.293 345.617C379.133 345.217 378.933 344.977 378.693 344.897C378.613 344.817 378.453 344.777 378.213 344.777C377.733 344.777 377.373 344.897 377.133 345.137C376.973 345.297 376.893 345.497 376.893 345.737C376.893 345.897 376.893 346.057 376.893 346.217L376.653 346.577L376.173 346.817H375.813H375.333C374.933 346.657 374.653 346.377 374.493 345.977L374.373 344.777L374.253 344.537H372.693C372.293 344.297 372.053 344.017 371.973 343.697L371.853 342.377L371.493 342.137H369.453L369.333 342.377C369.333 342.537 369.333 342.777 369.333 343.097C369.413 343.417 369.373 343.657 369.213 343.817C369.133 343.977 368.933 344.137 368.613 344.297H368.253H367.893C367.493 344.137 367.213 343.817 367.053 343.337V343.217C367.053 342.897 367.213 342.497 367.533 342.017H369.333V339.497H367.653C367.333 339.177 367.173 338.817 367.173 338.417C367.173 338.177 367.253 337.937 367.413 337.697C367.653 337.377 367.933 337.217 368.253 337.217C368.813 337.217 369.173 337.457 369.333 337.937V339.497H371.253C371.493 339.337 371.693 339.137 371.853 338.897L371.973 337.577C372.053 337.417 372.093 337.337 372.093 337.337C372.173 337.257 372.253 337.137 372.333 336.977H373.773L374.373 336.377L374.493 335.297C374.573 335.057 374.813 334.857 375.213 334.697H375.813H376.293C376.453 334.777 376.533 334.857 376.533 334.937C376.613 334.937 376.733 334.977 376.893 335.057L377.013 336.137C377.173 336.457 377.333 336.657 377.493 336.737C377.653 336.817 377.933 336.857 378.333 336.857H378.693C379.093 336.697 379.333 336.497 379.413 336.257L379.533 335.177C379.613 335.097 379.853 334.937 380.253 334.697H380.733C380.893 334.697 381.093 334.737 381.333 334.817C381.573 334.817 381.773 334.897 381.933 335.057C381.933 335.377 381.973 335.697 382.053 336.017C382.133 336.337 382.373 336.577 382.773 336.737H383.133H383.493C383.813 336.577 384.053 336.337 384.213 336.017V335.537C384.213 335.057 384.173 334.697 384.093 334.457H382.893L382.653 334.097V333.737V333.497L383.013 333.137L383.373 333.017L383.853 333.137C384.173 333.377 384.333 333.737 384.333 334.217C384.493 334.377 384.733 334.457 385.053 334.457C385.373 334.457 385.613 334.457 385.773 334.457ZM377.613 333.857V333.617L377.853 333.257L378.093 333.137L378.453 333.257L378.813 333.617C378.813 333.777 378.773 333.897 378.693 333.977C378.693 333.977 378.693 334.017 378.693 334.097L378.453 334.337H378.333C377.933 334.337 377.693 334.217 377.613 333.977V333.857ZM367.893 333.497L368.013 333.377L368.373 333.257C368.533 333.417 368.613 333.537 368.613 333.617V333.737L368.373 333.977C368.133 333.897 367.973 333.737 367.893 333.497ZM407.853 333.737V333.497L408.093 333.257H408.333H408.693C408.933 333.257 409.053 333.377 409.053 333.617L408.933 334.097C408.773 334.257 408.613 334.337 408.453 334.337C408.053 334.337 407.853 334.137 407.853 333.737ZM372.933 333.737V333.497L373.413 333.377L373.533 333.497V333.617C373.533 333.857 373.413 334.017 373.173 334.097L372.933 333.977V333.737ZM413.493 333.857C413.413 333.777 413.373 333.657 413.373 333.497H413.733V333.617L413.493 333.857ZM397.773 335.417C397.773 335.497 397.893 335.657 398.133 335.897H398.253H398.493L398.853 335.657C398.933 335.577 398.973 335.457 398.973 335.297C398.973 335.057 398.933 334.897 398.853 334.817C398.773 334.737 398.613 334.697 398.373 334.697C398.133 334.697 397.973 334.737 397.893 334.817C397.893 334.897 397.853 334.977 397.773 335.057C397.773 335.137 397.773 335.257 397.773 335.417ZM402.933 335.537C402.933 335.857 403.173 336.057 403.653 336.137C403.733 336.057 403.813 336.017 403.893 336.017C403.973 335.937 404.053 335.857 404.133 335.777V335.417V335.177L403.893 334.817C403.813 334.817 403.733 334.817 403.653 334.817C403.653 334.737 403.573 334.697 403.413 334.697C403.253 334.697 403.093 334.857 402.933 335.177V335.537ZM369.573 335.897V335.537C369.733 335.217 369.973 334.977 370.293 334.817H370.653H371.013C371.413 334.977 371.693 335.257 371.853 335.657V335.897V336.257C371.773 336.417 371.613 336.617 371.373 336.857C371.213 336.937 371.013 336.977 370.773 336.977C370.453 336.977 370.213 336.937 370.053 336.857C369.813 336.617 369.653 336.417 369.573 336.257V335.897ZM387.693 335.537C387.693 336.017 387.893 336.257 388.293 336.257C388.453 336.257 388.613 336.217 388.773 336.137C388.933 335.977 389.013 335.817 389.013 335.657C389.013 335.497 388.973 335.417 388.893 335.417C388.893 335.337 388.893 335.257 388.893 335.177L388.533 334.817H388.413C387.933 334.817 387.693 335.057 387.693 335.537ZM392.613 335.537C392.613 335.857 392.653 336.057 392.733 336.137C392.813 336.297 393.013 336.377 393.333 336.377H393.573C393.813 336.137 393.933 335.897 393.933 335.657C393.933 335.417 393.893 335.257 393.813 335.177L393.453 334.937H393.213C393.053 334.937 392.853 335.097 392.613 335.417V335.537ZM410.253 338.057V338.297C410.573 338.777 410.933 339.017 411.333 339.017L411.813 338.777L411.933 338.537V338.057V337.697C411.933 337.617 411.813 337.457 411.573 337.217L411.213 337.097C411.053 337.097 410.813 337.177 410.493 337.337L410.253 337.817V338.057ZM374.613 338.177L374.733 338.537L375.213 339.017H375.573H376.053L376.413 338.777L376.653 338.297L376.533 337.697C376.293 337.457 376.093 337.297 375.933 337.217H375.693H375.333C375.173 337.297 374.973 337.457 374.733 337.697L374.613 338.177ZM379.773 338.057V338.297L380.013 338.777L380.373 339.017H380.613H380.973L381.453 338.777L381.693 338.297V338.057V337.817C381.613 337.737 381.533 337.657 381.453 337.577C381.453 337.497 381.413 337.417 381.333 337.337C381.173 337.257 380.933 337.217 380.613 337.217C380.293 337.217 380.013 337.417 379.773 337.817V338.057ZM385.173 338.297C385.253 338.537 385.453 338.657 385.773 338.657H385.893C386.133 338.417 386.253 338.217 386.253 338.057C386.093 337.817 385.893 337.697 385.653 337.697C385.493 337.697 385.373 337.737 385.293 337.817L385.173 338.297ZM390.453 338.057C390.453 338.297 390.493 338.457 390.573 338.537H390.933H391.173L391.413 338.297V338.177V338.057L391.053 337.697H390.933C390.613 337.697 390.453 337.817 390.453 338.057ZM371.973 340.937V341.177C372.133 341.577 372.373 341.817 372.693 341.897H373.053H373.293C373.613 341.737 373.853 341.497 374.013 341.177V340.817V340.577C373.773 340.177 373.613 339.937 373.533 339.857C373.453 339.777 373.293 339.737 373.053 339.737C372.573 339.737 372.213 340.017 371.973 340.577V340.937ZM365.133 340.937V340.577C365.293 340.177 365.533 339.977 365.853 339.977C366.173 339.977 366.373 340.017 366.453 340.097C366.693 340.337 366.813 340.497 366.813 340.577V340.937V341.297C366.573 341.537 366.373 341.697 366.213 341.777H365.853H365.613L365.133 341.297V340.937ZM412.773 340.697V341.057C412.773 341.137 412.893 341.297 413.133 341.537H413.493H413.853L414.333 341.297C414.413 341.217 414.453 341.017 414.453 340.697C414.453 340.217 414.173 339.977 413.613 339.977H413.373L412.893 340.217L412.773 340.457V340.697ZM377.733 340.817L378.093 341.177H378.213L378.573 340.817C378.573 340.497 378.493 340.337 378.333 340.337C378.253 340.337 378.173 340.377 378.093 340.457C378.093 340.457 378.053 340.457 377.973 340.457L377.733 340.817ZM374.613 343.457C374.613 343.857 374.653 344.137 374.733 344.297C374.893 344.457 375.013 344.537 375.093 344.537H375.453C375.853 344.537 376.133 344.497 376.293 344.417C376.373 344.337 376.413 344.257 376.413 344.177C376.493 344.097 376.573 344.017 376.653 343.937V343.577V343.217C376.493 342.897 376.253 342.657 375.933 342.497H375.693H375.333C375.173 342.577 375.053 342.657 374.973 342.737C374.973 342.737 374.893 342.777 374.733 342.857L374.613 343.097V343.457ZM380.253 343.337C380.333 343.577 380.493 343.737 380.733 343.817L380.973 343.457V343.337L380.733 343.097H380.613L380.253 343.337ZM411.213 343.217V343.337V343.217ZM369.813 345.737C369.813 345.497 369.973 345.217 370.293 344.897C370.373 344.817 370.533 344.777 370.773 344.777H370.893C371.293 344.937 371.533 345.137 371.613 345.377V345.617V345.977C371.453 346.217 371.253 346.417 371.013 346.577H370.773H370.413C370.013 346.417 369.813 346.137 369.813 345.737ZM382.773 345.857L382.893 346.337H383.133H383.373L383.613 346.097C383.613 345.777 383.453 345.617 383.133 345.617H383.013L382.773 345.857ZM413.133 346.097V346.217L413.493 346.577H413.613H413.853L414.093 346.337V346.097V345.857L413.853 345.617H413.613H413.373L413.133 345.857V346.097ZM377.733 348.017V347.657L378.093 347.297C378.173 347.217 378.333 347.177 378.573 347.177H378.693L379.053 347.417L379.293 347.897C379.293 348.057 379.253 348.177 379.173 348.257C379.173 348.257 379.173 348.297 379.173 348.377C378.933 348.617 378.693 348.737 378.453 348.737H378.213L377.733 348.257V348.017ZM373.173 348.137L373.053 347.897H373.173H373.293L373.413 348.017L373.293 348.137H373.173ZM372.933 348.137C372.853 348.057 372.813 348.017 372.813 348.017C372.813 347.937 372.853 347.897 372.933 347.897C373.013 347.977 373.053 348.017 373.053 348.017C373.053 348.097 373.013 348.137 372.933 348.137ZM385.173 348.377C385.173 348.457 385.293 348.617 385.533 348.857H385.653C385.973 348.857 386.133 348.697 386.133 348.377C386.133 348.137 386.093 348.017 386.013 348.017H385.653H385.413L385.173 348.377ZM402.333 353.417V353.177L402.693 352.817H402.933C403.253 352.817 403.453 352.897 403.533 353.057C403.533 353.137 403.533 353.217 403.533 353.297C403.613 353.297 403.653 353.337 403.653 353.417C403.653 353.577 403.613 353.697 403.533 353.777C403.533 353.777 403.533 353.817 403.533 353.897C403.453 354.057 403.253 354.137 402.933 354.137C402.533 354.137 402.333 354.017 402.333 353.777V353.417ZM385.293 353.417V353.777C385.373 353.857 385.493 353.897 385.653 353.897C385.973 353.897 386.133 353.737 386.133 353.417V353.297L385.893 353.057H385.653C385.413 353.057 385.293 353.097 385.293 353.177V353.417ZM383.133 357.017C383.693 356.857 384.013 356.617 384.093 356.297V355.937V355.697C383.933 355.217 383.613 354.977 383.133 354.977C382.813 354.977 382.573 355.017 382.413 355.097L382.053 355.457V356.537L382.533 356.897L383.133 357.017ZM397.533 355.937C397.613 356.097 397.773 356.297 398.013 356.537L398.373 356.657C398.773 356.497 398.973 356.377 398.973 356.297C399.053 356.217 399.093 356.057 399.093 355.817C399.093 355.577 398.893 355.337 398.493 355.097L398.013 355.217L397.653 355.577L397.533 355.937ZM384.813 358.457C384.973 358.937 385.293 359.217 385.773 359.297C385.933 359.217 386.133 359.057 386.373 358.817V358.457V358.097C386.293 358.017 386.173 357.937 386.013 357.857C385.933 357.697 385.813 357.617 385.653 357.617C385.253 357.777 384.973 358.057 384.813 358.457ZM400.533 358.217C400.533 358.617 400.653 358.857 400.893 358.937C400.973 358.937 401.013 358.977 401.013 359.057C401.093 359.057 401.213 359.057 401.373 359.057L401.853 358.817C401.933 358.737 401.973 358.577 401.973 358.337C401.973 358.177 401.893 358.017 401.733 357.857C401.653 357.857 401.573 357.857 401.493 357.857C401.413 357.777 401.293 357.737 401.133 357.737C400.733 357.977 400.533 358.137 400.533 358.217ZM396.093 358.457V358.337H395.853L396.093 358.457ZM382.053 360.017V361.577C382.293 361.817 382.573 361.937 382.893 361.937C383.293 361.937 383.613 361.817 383.853 361.577L384.093 361.097V360.977C384.093 360.657 384.053 360.457 383.973 360.377C383.733 360.137 383.533 359.977 383.373 359.897H383.013C382.853 359.897 382.693 359.937 382.533 360.017C382.373 360.017 382.213 360.017 382.053 360.017ZM400.653 363.497V363.737L400.893 364.097H401.133H401.493C401.573 364.097 401.693 364.017 401.853 363.857V363.497V363.257L401.493 363.017H401.253H401.013L400.653 363.257V363.497ZM382.893 366.857H383.253C383.573 366.537 383.733 366.257 383.733 366.017V365.777L383.493 365.417C383.333 365.257 383.133 365.177 382.893 365.177C382.733 365.177 382.613 365.217 382.533 365.297C382.533 365.297 382.493 365.297 382.413 365.297L382.053 365.657V366.737C382.213 366.817 382.493 366.857 382.893 366.857ZM397.893 366.017L398.013 366.377C398.093 366.457 398.213 366.497 398.373 366.497H398.493C398.733 366.257 398.853 366.097 398.853 366.017C398.853 365.777 398.693 365.657 398.373 365.657C398.133 365.657 397.973 365.777 397.893 366.017ZM400.293 368.657V368.897C400.373 369.057 400.573 369.217 400.893 369.377H401.253H401.613C401.693 369.377 401.853 369.257 402.093 369.017V368.057L401.853 367.817C401.693 367.737 401.453 367.697 401.133 367.697C400.973 367.697 400.853 367.737 400.773 367.817C400.693 367.897 400.573 367.977 400.413 368.057C400.333 368.217 400.293 368.417 400.293 368.657ZM380.493 371.057C380.493 370.737 380.653 370.497 380.973 370.337H381.213C381.453 370.337 381.693 370.457 381.933 370.697V371.057V371.417C381.853 371.497 381.773 371.577 381.693 371.657C381.613 371.657 381.533 371.697 381.453 371.777H381.213C380.973 371.777 380.813 371.737 380.733 371.657L380.493 371.177V371.057ZM397.773 371.057C397.773 371.457 397.973 371.657 398.373 371.657C398.773 371.657 398.973 371.457 398.973 371.057V370.817L398.613 370.457H398.493C398.173 370.457 397.973 370.497 397.893 370.577C397.813 370.657 397.773 370.817 397.773 371.057ZM400.173 373.697V373.937C400.493 374.257 400.733 374.457 400.893 374.537H401.133C401.293 374.537 401.613 374.457 402.093 374.297V372.977C401.933 372.897 401.813 372.817 401.733 372.737C401.653 372.657 401.533 372.617 401.373 372.617C401.213 372.617 401.053 372.657 400.893 372.737C400.733 372.817 400.573 372.897 400.413 372.977L400.173 373.337V373.697ZM384.813 373.817V373.937L385.053 374.297C385.133 374.377 385.333 374.417 385.653 374.417C386.053 374.417 386.253 374.177 386.253 373.697C386.253 373.217 386.013 372.977 385.533 372.977C385.293 372.977 385.133 373.017 385.053 373.097L384.813 373.577V373.817ZM395.973 373.697V373.817L396.093 373.937L396.333 373.697V373.457H396.093L395.973 373.577V373.697ZM380.373 375.977V375.857C380.453 375.617 380.693 375.417 381.093 375.257C381.653 375.417 381.933 375.697 381.933 376.097C381.933 376.497 381.773 376.737 381.453 376.817H381.093H380.853C380.773 376.737 380.613 376.497 380.373 376.097V375.977ZM397.533 376.217C397.533 376.457 397.693 376.657 398.013 376.817H398.373H398.613C398.853 376.737 399.013 376.577 399.093 376.337V375.977V375.737C398.933 375.417 398.693 375.257 398.373 375.257C398.133 375.257 397.973 375.297 397.893 375.377L397.653 375.617C397.573 375.697 397.533 375.897 397.533 376.217ZM384.813 378.137V378.497V378.977L385.053 379.337C385.373 379.497 385.573 379.577 385.653 379.577L386.013 379.457L386.493 378.977V378.617V378.257C386.253 377.857 386.013 377.657 385.773 377.657C385.453 377.657 385.133 377.817 384.813 378.137ZM402.213 377.897C402.373 377.897 402.453 377.897 402.453 377.897C402.533 377.817 402.653 377.777 402.813 377.777C403.373 377.777 403.653 378.017 403.653 378.497C403.653 378.737 403.493 379.017 403.173 379.337H402.813H402.453L402.213 379.217V377.897ZM395.373 378.497V378.857C395.373 379.097 395.573 379.217 395.973 379.217H396.093L396.573 378.977C396.573 378.897 396.573 378.857 396.573 378.857C396.653 378.777 396.693 378.657 396.693 378.497C396.693 378.097 396.413 377.897 395.853 377.897H395.733L395.373 378.257V378.497ZM380.493 381.137V380.777C380.573 380.537 380.813 380.417 381.213 380.417C381.453 380.417 381.653 380.537 381.813 380.777V381.017V381.377C381.813 381.457 381.693 381.617 381.453 381.857H381.093H380.733L380.493 381.497V381.137ZM397.533 381.137C397.533 381.297 397.533 381.417 397.533 381.497C397.613 381.497 397.653 381.537 397.653 381.617L397.893 381.857C397.973 381.857 398.013 381.897 398.013 381.977C398.093 381.977 398.213 381.977 398.373 381.977C398.453 381.977 398.493 381.977 398.493 381.977C398.573 381.897 398.653 381.857 398.733 381.857L398.973 381.617L399.093 381.137L398.973 380.777L398.733 380.537C398.653 380.457 398.493 380.417 398.253 380.417C397.933 380.417 397.733 380.537 397.653 380.777C397.653 380.857 397.613 380.937 397.533 381.017C397.533 381.017 397.533 381.057 397.533 381.137ZM384.693 383.537V383.897C384.853 384.297 385.133 384.497 385.533 384.497C385.773 384.497 385.973 384.457 386.133 384.377C386.213 384.217 386.293 384.097 386.373 384.017C386.453 383.857 386.493 383.697 386.493 383.537V383.417C386.333 383.017 386.133 382.777 385.893 382.697H385.533H385.173C384.933 382.937 384.773 383.137 384.693 383.297V383.537ZM395.493 383.777C395.493 383.937 395.613 384.137 395.853 384.377H395.973C396.293 384.377 396.493 384.337 396.573 384.257C396.653 384.177 396.693 384.017 396.693 383.777C396.693 383.297 396.453 383.057 395.973 383.057H395.853L395.613 383.297C395.613 383.377 395.573 383.457 395.493 383.537C395.493 383.537 395.493 383.617 395.493 383.777ZM402.213 383.537C402.293 383.217 402.533 383.057 402.933 383.057H403.053L403.293 383.297V383.657V384.017C403.213 384.097 403.053 384.137 402.813 384.137H402.573L402.333 383.897L402.213 383.537ZM380.253 386.177V385.697C380.493 385.457 380.693 385.297 380.853 385.217H381.213H381.453C381.533 385.297 381.613 385.377 381.693 385.457C381.773 385.457 381.853 385.497 381.933 385.577V386.777C381.773 386.937 381.653 387.017 381.573 387.017H381.093H380.733L380.253 386.537V386.177ZM397.293 386.177C397.293 386.337 397.293 386.457 397.293 386.537C397.373 386.537 397.413 386.577 397.413 386.657C397.733 386.977 398.013 387.137 398.253 387.137C398.493 387.137 398.693 387.097 398.853 387.017L399.213 386.657L399.333 386.177C399.173 385.857 399.013 385.577 398.853 385.337C398.693 385.257 398.453 385.217 398.133 385.217H397.893C397.733 385.377 397.573 385.537 397.413 385.697C397.333 385.857 397.293 386.017 397.293 386.177ZM395.133 388.577C395.133 388.817 395.173 388.977 395.253 389.057C395.333 389.217 395.533 389.377 395.853 389.537H395.973C396.213 389.537 396.373 389.497 396.453 389.417L396.813 389.057V388.577V388.217C396.573 387.977 396.413 387.857 396.333 387.857H396.093H395.733C395.493 388.017 395.293 388.217 395.133 388.457V388.577ZM384.933 388.697C384.933 389.017 385.053 389.217 385.293 389.297H385.653H385.893C386.133 389.057 386.253 388.817 386.253 388.577V388.337L386.013 388.097C385.933 388.017 385.773 387.977 385.533 387.977H385.413C385.093 388.137 384.933 388.377 384.933 388.697ZM402.453 388.697C402.453 388.617 402.533 388.497 402.693 388.337H403.413L403.173 388.937L402.693 389.057L402.453 388.697ZM397.533 391.217C397.533 391.697 397.813 391.937 398.373 391.937H398.613L399.093 391.457V391.217V390.857C398.773 390.537 398.493 390.377 398.253 390.377H398.013L397.653 390.617C397.653 390.777 397.613 390.897 397.533 390.977C397.533 390.977 397.533 391.057 397.533 391.217ZM380.853 391.217V390.857L381.093 390.617H381.213C381.453 390.617 381.653 390.737 381.813 390.977V391.337V391.697C381.733 391.777 381.533 391.817 381.213 391.817H381.093L380.853 391.577V391.217ZM402.453 393.737L402.693 393.377H402.813C403.053 393.377 403.173 393.497 403.173 393.737L402.813 394.097H402.693L402.453 393.737ZM395.853 393.857H396.093L396.213 393.737V393.617H395.973L395.853 393.737V393.857ZM382.293 396.257C382.293 396.337 382.413 396.497 382.653 396.737H382.893H383.133C383.373 396.497 383.493 396.337 383.493 396.257L383.373 395.897L383.253 395.777C383.173 395.777 383.093 395.777 383.013 395.777C382.933 395.697 382.813 395.657 382.653 395.657L382.413 395.897L382.293 396.257ZM402.693 399.257C402.613 399.177 402.573 399.137 402.573 399.137C402.573 399.057 402.613 399.017 402.693 399.017C402.773 399.097 402.813 399.137 402.813 399.137C402.813 399.217 402.773 399.257 402.693 399.257ZM382.413 401.297C382.413 401.457 382.533 401.577 382.773 401.657L383.133 401.537C383.213 401.537 383.253 401.417 383.253 401.177C383.253 400.937 383.213 400.817 383.133 400.817L382.773 400.697C382.533 400.697 382.413 400.897 382.413 401.297ZM371.973 406.457C371.973 406.697 372.053 406.977 372.213 407.297C372.373 407.457 372.493 407.537 372.573 407.537H373.053H373.533C374.013 407.217 374.253 406.777 374.253 406.217V406.097L373.893 405.377L373.413 405.137H373.173H372.813C372.573 405.217 372.373 405.417 372.213 405.737C372.053 405.977 371.973 406.217 371.973 406.457ZM412.893 406.337L413.013 406.697C413.093 406.937 413.333 407.057 413.733 407.057C413.973 407.057 414.253 406.817 414.573 406.337V406.217V406.097C414.413 405.617 414.133 405.377 413.733 405.377C413.493 405.377 413.253 405.497 413.013 405.737L412.893 406.337ZM377.493 406.217V406.577L377.853 406.937H377.973C378.213 406.937 378.373 406.897 378.453 406.817L378.813 406.337V406.217V405.977C378.733 405.897 378.653 405.817 378.573 405.737C378.573 405.657 378.533 405.577 378.453 405.497H378.093H377.733C377.573 405.657 377.493 405.777 377.493 405.857V406.217ZM365.733 406.337V406.097L365.973 405.737C366.053 405.657 366.213 405.617 366.453 405.617C366.613 405.617 366.733 405.657 366.813 405.737V406.817L366.693 406.937H366.333H366.093L365.733 406.577V406.337ZM369.573 408.977V409.337C369.733 409.657 369.973 409.897 370.293 410.057L371.493 410.177L371.853 410.417C371.853 410.657 371.853 410.937 371.853 411.257C371.853 411.497 371.933 411.697 372.093 411.857C372.413 412.177 372.733 412.337 373.053 412.337C373.293 412.337 373.493 412.297 373.653 412.217C373.893 412.137 374.093 411.897 374.253 411.497V411.137V410.777C374.093 410.377 373.973 410.177 373.893 410.177L372.573 410.057C372.333 409.977 372.133 409.737 371.973 409.337L371.853 407.777C371.693 407.697 371.453 407.657 371.133 407.657C370.653 407.657 370.253 407.777 369.933 408.017C369.853 408.177 369.773 408.297 369.693 408.377C369.693 408.377 369.653 408.457 369.573 408.617V408.977ZM374.493 408.977V409.457C374.733 409.697 374.933 409.857 375.093 409.937H375.573H375.933C376.093 409.857 376.293 409.697 376.533 409.457C376.613 409.297 376.653 409.097 376.653 408.857V408.617L376.413 408.137C376.173 407.897 375.893 407.777 375.573 407.777C375.013 407.777 374.653 408.017 374.493 408.497V408.977ZM417.693 408.857C417.693 408.537 417.813 408.377 418.053 408.377H418.173L418.413 408.617V408.737C418.413 409.057 418.333 409.217 418.173 409.217C417.853 409.217 417.693 409.097 417.693 408.857ZM410.853 408.977V409.097L410.973 409.337L411.333 409.217L411.453 408.977V408.737H410.973C410.893 408.737 410.853 408.817 410.853 408.977ZM412.533 411.377C412.533 411.617 412.573 411.777 412.653 411.857C412.893 412.177 413.173 412.337 413.493 412.337C413.813 412.337 414.053 412.297 414.213 412.217L414.573 411.857C414.653 411.777 414.693 411.617 414.693 411.377C414.693 411.217 414.613 410.977 414.453 410.657L413.973 410.417H413.613H413.253C412.933 410.497 412.693 410.777 412.533 411.257V411.377ZM377.493 411.377L377.853 411.737H378.093C378.413 411.737 378.573 411.617 378.573 411.377V411.137L378.213 410.777H378.093H377.853L377.613 411.017L377.493 411.377ZM410.133 414.017C410.133 414.257 410.173 414.417 410.253 414.497C410.573 414.817 410.853 414.977 411.093 414.977C411.653 414.977 411.933 414.657 411.933 414.017V413.777C411.773 413.297 411.493 413.057 411.093 413.057H410.853L410.373 413.297C410.213 413.617 410.133 413.857 410.133 414.017ZM374.973 414.137V414.257L375.213 414.617L375.453 414.737H375.813H376.053L376.293 414.377V414.137V413.777C376.133 413.457 375.933 413.297 375.693 413.297C375.453 413.297 375.293 413.337 375.213 413.417L374.973 413.897V414.137ZM417.573 413.777V413.657L417.813 413.417H417.933C418.253 413.417 418.413 413.537 418.413 413.777L418.293 414.137C418.213 414.217 418.093 414.257 417.933 414.257H417.813L417.573 414.017V413.777ZM370.653 414.017L370.893 414.257H371.013H371.133L371.253 414.017V413.777C371.253 413.617 371.133 413.537 370.893 413.537H370.773L370.653 414.017ZM380.253 414.137C380.253 414.537 380.413 414.737 380.733 414.737C381.053 414.737 381.213 414.577 381.213 414.257C381.213 413.857 381.093 413.657 380.853 413.657C380.453 413.657 380.253 413.817 380.253 414.137ZM366.093 416.177V416.057L366.213 415.817C366.373 415.817 366.453 415.857 366.453 415.937C366.533 415.937 366.613 415.937 366.693 415.937L366.453 416.417L366.093 416.297V416.177ZM402.933 418.337C402.933 418.097 403.053 417.897 403.293 417.737H403.413L403.893 417.977V418.097C403.893 418.497 403.733 418.697 403.413 418.697H403.173L402.933 418.457V418.337ZM392.973 418.457V417.977C392.973 417.897 393.093 417.857 393.333 417.857C393.573 417.857 393.693 417.977 393.693 418.217C393.693 418.457 393.653 418.577 393.573 418.577C393.413 418.577 393.293 418.577 393.213 418.577C393.133 418.497 393.053 418.457 392.973 418.457ZM398.613 417.977C398.533 417.897 398.493 417.857 398.493 417.857C398.493 417.777 398.533 417.737 398.613 417.737C398.693 417.817 398.733 417.857 398.733 417.857C398.733 417.937 398.693 417.977 398.613 417.977ZM398.133 418.337C398.133 418.097 398.253 417.977 398.493 417.977L398.733 418.217V418.457H398.253L398.133 418.337ZM388.293 418.337V418.097L388.533 418.217V418.337H388.293Z" fill="white"/>
<path d="M281.586 412.698C279.106 408.698 276.866 404.578 274.866 400.338C272.866 396.018 270.826 391.778 268.746 387.618C266.506 383.058 264.266 378.538 262.026 374.058C259.786 369.498 257.586 364.898 255.426 360.258C255.026 359.378 254.826 358.418 254.826 357.378C254.826 356.338 254.746 355.298 254.586 354.258C255.706 354.338 256.866 354.338 258.066 354.258C259.266 354.178 260.146 354.458 260.706 355.098C262.146 356.618 263.466 358.298 264.666 360.138C265.866 361.898 266.906 363.698 267.786 365.538C270.506 371.218 273.146 376.978 275.706 382.818C278.266 388.578 280.826 394.338 283.386 400.098C283.786 400.978 284.226 401.818 284.706 402.618C285.266 403.418 285.826 404.258 286.386 405.138H288.306L298.266 374.658C298.826 372.898 299.306 371.138 299.706 369.378C300.186 367.538 300.826 365.818 301.626 364.218C302.026 363.418 302.546 362.538 303.186 361.578C303.906 360.618 304.586 359.818 305.226 359.178C305.946 358.458 306.506 358.178 306.906 358.338C308.506 358.658 310.146 359.338 311.826 360.378C313.506 361.338 314.786 362.498 315.666 363.858C317.986 367.298 320.066 370.938 321.906 374.778C323.746 378.538 325.786 382.178 328.026 385.698C329.946 388.658 332.026 391.538 334.266 394.338C336.506 397.058 338.706 399.818 340.866 402.618C341.266 402.538 341.626 402.458 341.946 402.378C342.346 402.298 342.706 402.218 343.026 402.138C343.506 398.378 343.986 394.618 344.466 390.858C345.026 387.018 345.506 383.218 345.906 379.458C346.546 374.178 347.146 368.898 347.706 363.618C348.266 358.258 348.906 352.978 349.626 347.778C349.786 346.658 350.306 345.658 351.186 344.778C352.066 343.818 352.826 342.858 353.466 341.898C353.946 342.938 354.506 344.018 355.146 345.138C355.866 346.258 356.226 347.378 356.226 348.498C355.826 356.258 355.346 364.018 354.786 371.778C354.306 379.458 353.746 387.178 353.106 394.938C352.866 399.018 352.066 403.018 350.706 406.938C349.426 410.698 347.546 412.898 345.066 413.538C342.666 414.178 340.146 413.018 337.506 410.058C334.066 405.978 330.626 401.778 327.186 397.458C323.826 393.138 320.866 388.618 318.306 383.898C317.586 382.458 316.986 381.458 316.506 380.898C316.106 380.258 315.706 379.658 315.306 379.098C314.906 378.538 314.386 377.698 313.746 376.578C313.426 375.938 312.666 375.018 311.466 373.818C310.346 372.618 309.346 371.738 308.466 371.178C306.946 376.458 305.466 381.498 304.026 386.298C302.666 391.018 301.226 395.778 299.706 400.578C299.066 402.498 298.306 404.378 297.426 406.218C296.546 408.058 295.586 409.898 294.546 411.738C292.626 415.178 290.506 417.018 288.186 417.258C285.866 417.498 283.666 415.978 281.586 412.698Z" fill="white"/>
<path d="M994.48 255.182H1008.12V282.454H994.48V255.182Z" fill="white"/>
<path d="M967.25 255.182H980.886V268.819H953.613V200.637H967.25V214.273H980.886V227.909H967.25V255.182Z" fill="white"/>
<path d="M926.394 227.91H912.757V268.819H899.121V214.273H926.394V227.91ZM926.394 227.91H940.03V268.819H926.394V227.91Z" fill="white"/>
<path d="M858.265 214.273H885.538V268.819H858.265V255.183H871.902V227.91H858.265V214.273ZM844.629 227.91H858.265V255.183H844.629V227.91Z" fill="white"/>
<path d="M803.773 255.182H817.409V227.909H803.773V214.273H817.409V200.637H831.046V268.819H803.773V255.182ZM803.773 255.182H790.137V227.909H803.773V255.182Z" fill="white"/>
<path d="M762.917 227.91H749.281V268.819H735.645V214.273H762.917V227.91ZM762.917 227.91H776.554V268.819H762.917V227.91Z" fill="white"/>
<path d="M694.789 255.183H681.152V214.273H694.789V255.183ZM694.789 255.183H708.425V214.273H722.061V268.819H694.789V255.183Z" fill="white"/>
<path d="M640.297 255.182H653.933V268.819H626.66V200.637H640.297V214.273H653.933V227.909H640.297V255.182ZM653.933 227.909H667.569V255.182H653.933V227.909Z" fill="white"/>
<path d="M585.804 214.273H613.077V268.819H585.804V255.183H599.441V227.91H585.804V214.273ZM572.168 227.91H585.804V255.183H572.168V227.91Z" fill="white"/>
<path d="M490.441 214.273H504.077V227.91H490.441V214.273ZM476.805 227.91H490.441V241.546H504.077V227.91H517.714V255.183H490.441V268.819H476.805V227.91ZM490.441 268.819H504.077V282.455H490.441V268.819Z" fill="white"/>
<path d="M435.949 214.273H463.222V227.91H435.949V214.273ZM435.949 255.183H422.312V227.91H435.949V255.183ZM435.949 255.183H463.222V268.819H435.949V255.183Z" fill="white"/>
<path d="M395.093 227.91H381.457V268.819H367.82V214.273H395.093V227.91ZM395.093 227.91H408.729V268.819H395.093V227.91Z" fill="white"/>
<path d="M326.964 214.273H340.601V227.91H326.964V214.273ZM313.328 227.91H326.964V241.546H340.601V227.91H354.237V255.183H326.964V268.819H313.328V227.91ZM326.964 268.819H340.601V282.455H326.964V268.819Z" fill="white"/>
<path d="M258.836 268.819H286.109V227.91H272.472V214.273H299.745V282.455H258.836V268.819ZM258.836 227.91H272.472V255.183H258.836V227.91Z" fill="white"/>
<path d="M231.59 200.637H245.226V214.273H231.59V200.637ZM231.59 227.909H245.226V268.819H231.59V227.909Z" fill="white"/>
<path d="M204.344 200.637H217.98V268.819H204.344V200.637Z" fill="white"/>
<path d="M177.098 200.637H190.734V268.819H177.098V200.637Z" fill="white"/>
<path d="M136.242 214.273H149.878V227.91H136.242V214.273ZM122.605 227.91H136.242V241.546H149.878V227.91H163.515V255.183H136.242V268.819H122.605V227.91ZM136.242 268.819H149.878V282.455H136.242V268.819Z" fill="white"/>
<path d="M95.3746 255.182H109.011V268.819H81.7383V200.637H95.3746V214.273H109.011V227.909H95.3746V255.182Z" fill="white"/>
<path d="M54.5188 227.91H40.8825V268.819H27.2461V214.273H54.5188V227.91ZM54.5188 227.91H68.1552V268.819H54.5188V227.91Z" fill="white"/>
<path d="M0 200.637H13.6364V214.273H0V200.637ZM0 227.909H13.6364V268.819H0V227.909Z" fill="white"/>
<path d="M756.238 114.273H769.874V127.91H756.238V114.273ZM742.602 127.91H756.238V141.546H769.874V127.91H783.511V155.183H756.238V168.819H742.602V127.91ZM756.238 168.819H769.874V182.455H756.238V168.819Z" fill="white"/>
<path d="M715.382 141.546H701.746V168.819H688.109V100.637H701.746V127.909H715.382V141.546ZM715.382 114.273H729.018V127.909H715.382V114.273ZM715.382 141.546H729.018V168.819H715.382V141.546Z" fill="white"/>
<path d="M647.254 114.273H674.526V168.819H647.254V155.183H660.89V127.91H647.254V114.273ZM633.617 127.91H647.254V155.183H633.617V127.91Z" fill="white"/>
<path d="M579.007 127.91H565.371V168.819H551.734V114.273H579.007V127.91ZM592.643 114.273H606.28V127.91H592.643V114.273ZM579.007 127.91H592.643V168.819H579.007V127.91ZM606.28 127.91H619.916V168.819H606.28V127.91Z" fill="white"/>
<path d="M483.617 100.637H497.254V168.819H483.617V100.637Z" fill="white"/>
<path d="M456.371 100.637H470.007V168.819H456.371V100.637Z" fill="white"/>
<path d="M429.125 100.637H442.761V114.273H429.125V100.637ZM429.125 127.909H442.761V168.819H429.125V127.909Z" fill="white"/>
<path d="M347.242 114.273H360.879V155.183H347.242V114.273ZM374.515 114.273H388.151V155.183H374.515V114.273ZM401.788 114.273H415.424V155.183H401.788V114.273ZM360.879 155.183H374.515V168.819H360.879V155.183ZM388.151 155.183H401.788V168.819H388.151V155.183Z" fill="white"/>
<path d="M279.125 100.637H292.761V168.819H279.125V100.637Z" fill="white"/>
<path d="M238.269 100.637H251.906V114.273H238.269V100.637ZM238.269 127.909H251.906V114.273H265.542V168.819H251.906V141.546H238.269V168.819H224.633V114.273H238.269V127.909Z" fill="white"/>
</svg>
