<svg width="200" height="200" viewBox="0 0 200 200" fill="none" xmlns="http://www.w3.org/2000/svg">
<path d="M54.7191 6.70436C59.2979 6.4289 59.8703 6.65539 61.5204 10.5608C65.6669 20.3854 69.5028 32.3097 73.4119 42.5873C76.2736 50.1165 78.5935 57.8232 81.4735 65.3401C82.9531 65.8115 82.947 64.1342 83.1114 63.0446C84.4388 54.2484 87.3371 43.8055 88.0738 35.6458C88.4331 31.6425 87.8363 27.4433 88.1225 23.4828C88.2991 21.0404 92.6161 0.950353 93.5781 0.246405C94.5402 -0.457542 97.2801 0.5035 98.0595 1.17072C100.038 2.84795 99.941 22.6258 100.306 26.5496C101.159 35.5846 103.43 44.5706 103.339 53.7342C104.392 54.0096 104.55 53.2934 105.165 52.8221C114.439 45.6724 118.603 33.4727 125.514 25.0192C129.216 20.4895 134.124 16.2352 137.807 11.6748L139.805 11.8768C141.68 13.4623 141.966 15.3966 141.339 17.7104C139.835 23.2624 134.099 32.0526 131.603 37.8617C128.918 44.1176 126.89 50.8266 124.108 57.1988C122.177 61.6184 118.676 66.0196 118.536 70.8309C119.291 71.6206 132.589 62.7814 134.727 61.7592C145.565 56.5928 152.049 53.9484 162.699 47.7292C166.462 45.5317 179.358 40.0715 183.395 39.19C184.131 39.0309 184.85 38.9329 185.599 39.1349C187.036 39.6185 186.81 42.9974 186.47 44.136C185.897 46.0458 170.304 56.8744 167.472 59.2433C164.093 62.0714 160.933 65.7625 157.438 68.7007C151.465 73.7263 145.029 78.1458 139.208 83.3489C139.184 84.8119 145.479 84.1325 146.782 84.2732C150.539 84.6895 154.534 85.8709 158.315 86.1219C166.23 86.6483 174.316 84.9099 182.031 85.4975C187.474 85.9076 192.93 87.8175 198.44 87.9277L199.701 88.5031C200.784 91.6249 198.793 93.7551 195.865 94.5019C189.965 96.0077 182.719 96.0873 176.733 97.2626C169.488 98.6889 162.394 100.997 155.13 102.423C148.853 103.659 142.301 103.69 136.151 105.649C135.914 106.732 136.462 106.861 137.156 107.381C145.826 113.931 156.342 115.125 165.737 118.969C170.206 120.799 177.769 125.059 182.049 127.618C186.329 130.177 182.731 133.709 179.017 133.617C162.93 129.546 146.448 127.777 130.081 125.194C134.574 130.826 137.643 137.657 142.252 143.191C149.522 151.907 155.313 156.982 161.201 167.51C161.743 168.478 164.787 174.458 164.745 174.936C164.611 176.607 162.577 177.347 161.134 177.415C158.138 177.549 147.184 166.139 144.341 163.685L119.748 144.733C119.669 150.114 119.699 155.5 120.43 160.838C121.38 167.817 124.649 174.238 125.204 181.081C125.508 184.821 125.07 188.904 125.191 192.7C125.295 195.993 127.846 201.575 121.38 199.58C120.351 199.262 119.888 198.154 119.413 197.284C116.35 191.634 114.621 183.23 112.137 177.109C109.543 170.712 106.237 164.578 103.649 158.151C101.816 153.603 100.714 148.026 98.5832 143.699C96.2877 139.034 94.5097 140.497 89.7604 140.546C87.7937 141.22 84.4205 155.384 84.0552 158.029C83.7507 160.287 84.1587 162.509 83.8786 164.572C82.5938 173.938 79.3789 181.926 76.6207 190.882C68.6991 192.393 71.1225 176.717 71.0981 171.275C71.0738 165.111 70.7328 160.293 70.4892 154.221C70.2457 148.149 70.7145 142.578 70.5136 136.794C70.1361 136.347 65.5938 140.258 65.0397 140.754C57.1303 147.8 54.2564 154.68 48.0458 162.154C45.1109 165.686 38.7359 171.85 35.2044 174.905C32.6471 177.115 30.2298 177.225 29.4626 173.448C28.8842 170.626 38.0174 156.853 39.8441 153.297C42.4806 148.155 44.5995 142.738 46.8158 137.406C40.8548 138.545 36.1543 142.468 30.2663 144.28C26.2721 145.511 16.944 147.941 13.0288 148.363C7.90203 148.92 8.99193 143.858 12.2495 141.446C21.6202 134.504 34.425 129.791 43.9784 122.029C44.7761 121.38 45.8294 120.976 45.598 119.697C42.5171 119.44 38.5898 118.491 35.6002 118.448C31.6911 118.387 27.7943 119.44 23.9279 119.465C16.5604 119.513 9.18068 116.857 1.81927 116.367C-0.871995 115.571 -0.238756 112.719 1.5331 111.127C4.1513 108.783 19.5622 108.189 23.9705 107.412C34.6686 105.526 45.1901 102.086 56.1561 101.394C57.1486 100.825 56.7406 97.1402 55.1697 96.9504C48.7886 94.9916 43.0894 91.3189 36.8118 89.1397C29.5113 86.6055 22.7771 86.2443 15.4278 83.1469C10.8125 81.2065 5.60044 78.3173 1.3139 75.9116C1.21648 72.5816 2.58647 71.4002 5.81355 71.3818C12.5295 71.3451 20.853 73.8548 27.6969 74.4792C32.9637 74.9628 39.0221 74.5649 44.3985 75.0975C45.2084 74.3629 36.8423 61.6735 35.7828 60.2472C31.8373 54.9584 27.0149 51.3224 23.4834 45.7337C21.7176 42.9362 16.9988 35.2479 15.9028 32.5913C15.507 31.6425 14.9712 30.7855 15.2756 29.6837C19.2029 25.9925 20.5364 29.298 23.1789 30.7671C24.2567 31.367 25.5292 31.5629 26.5948 32.2179C29.4139 33.9441 58.275 55.8338 59.5841 54.3341C59.3101 51.0041 59.3649 46.9579 58.9083 43.7198C58.1593 38.4555 54.7252 30.5468 54.7252 25.9374V6.69824L54.7191 6.70436Z" fill="white"/>
</svg>
