<svg width="198" height="200" viewBox="0 0 198 200" fill="none" xmlns="http://www.w3.org/2000/svg">
<path d="M115.137 0.350478C142.485 -2.94695 167.403 17.5095 178.341 41.2401C189.278 64.9708 201.023 99.4741 197.295 126.827C192.952 158.673 153.868 188.103 122.224 176.242C115.99 173.909 110.425 168.905 104.292 166.658C95.3989 181.431 84.6689 198.057 65.8224 199.748C28.0293 203.138 3.21826 171.77 0.981579 136.209C-1.25511 100.663 -2.6463 51.2174 31.9493 30.8382C47.3063 21.7953 62.402 17.3782 80.3186 21.5328C82.8012 20.359 83.3085 17.4554 84.9918 15.5326C92.2168 7.28512 104.33 1.65555 115.145 0.358197L115.137 0.350478ZM115.468 150.279C127.535 158.009 136.935 162.419 150.87 155.708C159.709 151.453 173.644 137.908 176.719 128.495C181.323 114.401 174.536 101.891 171.669 88.7864C170.124 81.736 170.086 74.1372 168.664 67.1408C165.643 52.2367 146.043 17.9728 132.708 10.7756C122.493 5.26187 105.783 7.06117 98.5656 16.8299C97.3589 18.4593 94.123 24.4055 93.9616 26.089C93.7925 27.8651 97.5356 29.6489 98.8423 30.9308C115.475 47.3562 137.934 89.4042 135.26 113.034C134.652 118.386 128.619 127.83 125.606 132.618C123.223 136.402 117.066 143.128 115.737 146.588C115.329 147.646 114.876 149.229 115.475 150.264L115.468 150.279ZM73.8852 40.2131C58.997 38.8539 34.6702 48.4219 28.2215 62.546C22.795 74.4384 24.363 83.2032 23.2408 95.3118C22.4799 103.567 19.2517 112.046 18.6214 119.954C17.7836 130.464 19.8743 141.012 22.0879 151.206C26.9225 173.423 33.6633 195.995 61.7871 191.841C69.604 190.69 78.5738 179.408 82.9395 173.021C84.6074 170.573 92.1246 158.117 92.3013 156.14C92.5704 153.152 88.5505 151.793 86.921 150.04C76.0297 138.341 59.0047 120.849 60.0808 103.814C60.8494 91.5974 66.9522 76.4848 69.6808 64.1368C71.4102 56.3373 72.5862 48.113 73.8775 40.2131H73.8852ZM104.469 137.985L124.868 110.316C126.282 106.803 124.291 98.9876 122.816 95.4739C120.241 89.327 112.086 85.5044 108.066 79.4656C105.007 74.8631 103.9 69.3107 101.348 64.631C98.2505 58.9474 92.7702 53.8275 88.8426 48.6999C87.6281 48.6999 84.9072 66.16 84.2385 68.7161C80.8719 81.5043 73.424 95.9218 70.9798 108.602C70.2727 112.285 72.371 115.019 74.3387 117.977C80.5799 127.359 84.5536 125.884 93.0776 130.749C95.3989 132.07 102.97 138.866 104.476 137.978L104.469 137.985Z" fill="white"/>
</svg>
