<svg width="200" height="200" viewBox="0 0 200 200" fill="none" xmlns="http://www.w3.org/2000/svg">
<path d="M41.1281 118.747C38.7119 114.56 30.2159 112.049 26.1513 109.658C22.8764 107.732 15.0796 103.007 12.849 100.369C10.6584 97.7822 12.0643 94.7358 15.3742 94.2988C16.6387 94.1333 17.9215 94.4023 19.1312 94.7952C21.2711 95.4933 23.3599 96.3837 25.4604 97.1966C28.6044 98.4075 31.7213 99.7545 34.9594 100.695C35.4887 100.849 40.4873 102.038 40.4206 102.624C42.3806 85.7997 49.8643 70.451 63.9298 60.7623C75.1271 53.0514 85.267 51.268 98.6287 52.1306C104.199 52.4909 109.8 53.0204 115.211 54.4528C117.961 55.1832 120.653 56.1352 123.202 57.4073C127.94 59.7758 129.609 59.9997 133.642 56.3036C139.554 50.8819 143.825 45.8389 152.25 45.0773C160.433 44.3407 168.663 47.0635 174.289 53.1681C188.543 68.636 175.193 93.9168 163.183 106.851C160.276 109.982 151.231 116.263 149.839 118.553C148.201 121.247 147.814 126.027 146.705 129.197C138.691 152.126 114.959 164.351 91.7772 164.385C71.108 164.42 52.8538 151.77 45.2041 132.636C43.7297 128.945 42.56 121.222 41.1262 118.738L41.1281 118.747ZM150.405 93.2068C152.817 92.2228 155.02 84.9521 155.919 82.7916C156.704 80.9097 161.537 69.2348 155.84 70.9762C154.207 71.4735 152.674 72.3152 151.372 73.4285C147.559 76.6818 145.537 80.5717 146.894 85.3096C147.16 86.2353 148.845 93.8447 150.404 93.211L150.405 93.2068Z" fill="white"/>
</svg>
