<svg width="201" height="200" viewBox="0 0 201 200" fill="none" xmlns="http://www.w3.org/2000/svg">
<path d="M111.877 88.8526C113.166 89.1193 113.891 88.2201 114.837 87.6409C121.497 83.5411 124.236 77.8409 129.729 72.8875C137.115 66.2195 147.971 60.3059 158.301 63.377C162.093 64.5048 163.741 68.9705 164.13 69.1381C173.469 73.0399 190.009 66.852 197.86 70.9671C202.819 73.5657 201.201 81.2396 197.844 84.707C191.863 90.8873 177.756 97.662 170.035 102.516C166.083 105.001 162.459 108.933 158.027 111.029C153.136 113.338 141.379 114.016 135.795 113.955C131.827 113.909 126.609 112.72 122.52 112.416C124.29 117.308 128.417 117.468 131.827 119.998C132.575 120.554 133.002 122.162 133.575 122.292C134.406 122.475 135.352 120.912 136.542 120.829C142.066 120.425 148.147 127.26 151.008 131.437C159.339 143.584 154.128 158.535 155.227 172.047C155.73 178.25 161.391 193.247 157.523 197.919C153.655 202.59 149.123 198.124 144.904 196.814C133.353 188.324 122.588 181.816 113.41 170.523C101.302 155.624 104.507 146.906 100.272 129.707C99.6926 127.352 97.7166 125.104 98.1667 122.307L94.5962 129.745C91.5597 140.315 91.8573 151.334 86.8066 161.469C83.9151 167.276 72.555 176.253 65.8106 175.179C64.8341 175.026 64.2771 173.19 62.8199 173.182C62.3164 173.182 54.4505 176.39 53.5197 176.84C51.3682 177.876 49.8881 180.475 47.9198 181.877C45.6538 183.485 35.9417 190.58 34.3319 191.091C32.5161 191.662 28.2207 192.264 26.7559 191.037C23.2845 188.134 22.3309 181.953 23.2235 177.716C24.5968 171.216 28.9989 164.617 31.5548 158.695C34.9041 150.93 38.2991 140.688 42.1138 133.54C47.401 123.633 56.2129 120.676 64.506 114.168C65.124 113.681 65.9022 114.191 65.4673 112.431C57.6319 110.99 44.6697 108.979 38.1389 104.399C33.1646 100.916 30.7766 95.8178 27.1755 92.1828C20.2175 85.1566 6.56098 75.1051 1.86129 66.951C-0.862388 62.2339 -1.24386 52.9825 5.1877 51.8318C12.7789 50.4677 23.2235 56.3584 30.2883 57.5472C31.5243 57.753 40.1149 58.355 40.8092 58.2407C41.6789 58.0959 42.2359 55.9012 43.4489 55.101C47.9808 52.1137 55.8696 54.278 60.5845 56.1603C66.1921 58.3931 71.6547 63.9714 75.3473 68.7647C80.4056 75.3413 81.8933 83.3125 88.2867 88.8831C86.3107 80.1728 84.1821 71.4777 83.0606 62.5768C82.3511 56.8995 81.3364 48.4482 81.3974 42.8928C81.4813 35.1808 84.7162 27.5678 85.2273 20.1149C85.6775 13.5535 82.641 9.79657 84.678 2.84658C86.1734 -2.25922 92.2082 0.476578 94.2758 3.50195C95.0845 4.68315 95.176 6.50447 96.0229 7.83807C102.157 17.5467 109.519 27.3849 115.035 37.467C124.656 55.0477 120.521 71.8739 111.861 88.8755L111.877 88.8526Z" fill="white"/>
</svg>
