<svg width="388" height="388" viewBox="0 0 388 388" fill="none" xmlns="http://www.w3.org/2000/svg">
<path d="M301 374V388H87V374H301ZM374 301V87C374 46.6832 341.317 14 301 14H87C46.6832 14 14 46.6832 14 87V301C14 341.317 46.6832 374 87 374V388C38.9512 388 0 349.049 0 301V87C5.88167e-06 39.3265 38.3452 0.608651 85.876 0.00683594L87 0H301L302.124 0.00683594C349.655 0.608657 388 39.3265 388 87V301L387.993 302.124C387.391 349.655 348.674 388 301 388V374C341.317 374 374 341.317 374 301Z" fill="white"/>
<path d="M253.103 323.9C249.785 323.9 246.052 323.568 241.905 322.905C237.923 322.241 234.108 321.411 230.458 320.416C226.974 319.421 224.237 318.342 222.246 317.181C221.084 316.517 220.172 315.854 219.508 315.19C219.011 314.361 218.762 313.034 218.762 311.209L217.518 272.139C217.518 268.821 218.596 267.162 220.753 267.162C222.577 267.162 223.822 268.655 224.485 271.642L226.725 281.098C232.366 304.821 242.9 316.683 258.329 316.683C266.624 316.683 273.177 313.946 277.988 308.471C282.965 302.831 285.454 294.95 285.454 284.831C285.454 275.042 282.882 265.918 277.739 257.457C272.762 248.996 264.716 240.618 253.601 232.323C241.324 223.531 232.366 215.07 226.725 206.941C221.084 198.646 218.264 189.853 218.264 180.563C218.264 168.286 222.495 158.498 230.955 151.198C239.582 143.733 250.532 140 263.804 140C268.781 140 273.592 140.581 278.237 141.742C282.882 142.903 286.698 144.562 289.684 146.719C290.679 147.383 291.426 148.129 291.924 148.959C292.587 149.788 292.919 150.866 292.919 152.194L293.666 189.77C293.666 192.59 292.587 194 290.431 194C288.937 194 287.859 192.839 287.196 190.517L285.454 184.295C281.804 171.521 277.988 162.231 274.006 156.424C270.191 150.452 264.633 147.465 257.334 147.465C250.2 147.465 244.476 149.788 240.163 154.433C236.015 159.078 233.942 165.632 233.942 174.092C233.942 181.226 236.264 188.028 240.909 194.498C245.555 200.968 253.684 208.848 265.297 218.139C277.739 228.259 286.781 238.047 292.421 247.503C298.228 256.793 301.131 266.747 301.131 277.365C301.131 286.655 299.057 294.785 294.91 301.752C290.762 308.72 285.039 314.195 277.739 318.176C270.606 321.992 262.393 323.9 253.103 323.9Z" fill="white"/>
<path d="M132.235 323.9C124.272 323.9 116.807 321.577 109.839 316.932C102.871 312.121 96.7329 305.568 91.4241 297.273C86.2812 288.978 82.2166 279.273 79.2304 268.158C76.4101 256.876 75 244.766 75 231.826C75 218.885 76.4101 206.858 79.2304 195.742C82.2166 184.627 86.2812 174.922 91.4241 166.627C96.7329 158.166 102.871 151.613 109.839 146.968C116.807 142.323 124.272 140 132.235 140C140.199 140 147.581 142.323 154.383 146.968C161.351 151.613 167.489 158.166 172.798 166.627C178.107 174.922 182.171 184.627 184.992 195.742C187.978 206.858 189.471 218.885 189.471 231.826C189.471 244.766 187.978 256.876 184.992 268.158C182.171 279.273 178.107 288.978 172.798 297.273C167.489 305.568 161.351 312.121 154.383 316.932C147.581 321.577 140.199 323.9 132.235 323.9ZM132.235 317.181C144.014 317.181 153.222 310.13 159.858 296.029C166.494 281.927 169.812 260.526 169.812 231.826C169.812 203.125 166.494 181.807 159.858 167.871C153.222 153.77 144.014 146.719 132.235 146.719C120.622 146.719 111.415 153.77 104.613 167.871C97.9771 181.807 94.6591 203.125 94.6591 231.826C94.6591 260.526 97.9771 281.927 104.613 296.029C111.415 310.13 120.622 317.181 132.235 317.181Z" fill="white"/>
<path d="M147.466 76.5552V98.6244L140.975 95.3789C133.754 100.085 118.581 100.896 118.338 89.2936C118.5 81.9102 124.991 79.8818 131.158 78.5836C134.403 77.7723 138.866 76.6363 140.083 73.0663C140.083 72.9852 140.164 72.9852 140.164 72.9041C139.92 69.9831 139.109 66.8188 136.999 65.1149C135.701 64.1413 134.16 63.8168 132.537 63.8168C128.724 63.8168 125.803 66.159 124.667 69.729L121.259 70.0643C122.882 64.7093 128.805 61.5449 134.241 61.5449C144.302 61.5449 147.466 68.0359 147.466 76.5552ZM140.245 93.2693V76.8797C136.675 80.6932 130.184 79.395 127.182 83.2084C126.127 84.5877 125.559 86.3727 125.478 88.1577C125.397 97.813 134.241 97.6507 140.245 93.2693Z" fill="white"/>
<path d="M147.466 76.5552C147.466 68.169 144.4 61.7483 134.707 61.5497L134.241 61.5449C128.805 61.5449 122.882 64.7093 121.259 70.0643L124.667 69.729C125.803 66.159 128.724 63.8168 132.537 63.8168L132.84 63.8208C134.351 63.86 135.782 64.2021 136.999 65.1149C139.109 66.8188 139.92 69.9831 140.164 72.9041C140.164 72.9852 140.083 72.9852 140.083 73.0663C138.866 76.6363 134.403 77.7723 131.158 78.5836C124.991 79.8818 118.5 81.9102 118.338 89.2936C118.581 100.896 133.754 100.085 140.975 95.3789L147.466 98.6244V76.5552ZM140.245 93.2693C134.288 97.6165 125.535 97.8102 125.478 88.3823L125.478 88.1577C125.557 86.4285 126.092 84.6994 127.084 83.339L127.182 83.2084C130.184 79.395 136.675 80.6932 140.245 76.8797V93.2693ZM139.907 77.6717C138.102 79.2312 135.764 79.8109 133.585 80.3716C131.119 81.006 128.869 81.615 127.45 83.4139L127.357 83.5384C126.411 84.8354 125.893 86.4952 125.816 88.1667C125.797 90.5275 126.324 92.2499 127.182 93.4494C128.038 94.6459 129.245 95.3523 130.649 95.6465C133.432 96.23 136.979 95.1843 139.907 93.0951V77.6717ZM147.804 99.1715C147.804 99.1715 145.197 98.9331 143.867 98.2684C142.538 97.6036 140.996 95.767 140.996 95.767C137.316 98.0989 131.732 99.4478 126.993 98.7868C124.584 98.4508 122.366 97.591 120.73 96.047C119.088 94.496 118.063 92.2816 118 89.3008V89.2862C118.084 85.4723 119.814 83.0215 122.31 81.3746C124.782 79.744 128.002 78.9022 131.085 78.2531C132.711 77.8466 134.598 77.3679 136.23 76.5568C137.855 75.7496 139.18 74.6352 139.753 72.9823C139.763 72.9323 139.78 72.8859 139.805 72.8443C139.809 72.838 139.813 72.832 139.817 72.8262C139.565 69.9524 138.757 66.9715 136.79 65.3804C135.572 64.4696 134.113 64.1549 132.537 64.1549C128.939 64.1549 126.105 66.3237 124.989 69.8316L124.896 70.1238L120.829 70.3181L120.935 69.9665C122.614 64.426 128.706 61.207 134.241 61.207C139.35 61.207 142.768 62.8597 144.895 65.6505C147.009 68.4235 147.804 72.2637 147.804 76.5552V99.1715Z" fill="white"/>
<path fill-rule="evenodd" clip-rule="evenodd" d="M172.039 83.6133L172.043 84.2885C172.06 85.9121 172.155 87.8582 172.539 89.6903C172.966 91.7272 173.738 93.5644 175.099 94.6795L175.233 94.7851L175.236 94.7874L175.351 94.8752C177.794 96.6834 181.367 96.237 183.849 94.6088C186.009 93.191 187.251 90.8783 187.853 87.9788V94.7171C185.494 97.6565 181.551 99.0355 177.78 98.9618C172.091 99.001 168.565 96.9298 166.525 93.6395C164.505 90.3795 163.979 85.9778 164.142 81.4152L164.155 80.682C164.213 76.708 164.142 68.3167 164.142 65.1143V64.9043C164.142 64.9043 164.637 63.7056 167.291 62.4194C169.946 61.1332 172.039 61 172.039 61V83.6133ZM171.709 84.646C171.711 84.7279 171.713 84.8106 171.715 84.894C171.71 84.6886 171.707 84.4874 171.704 84.2911L171.709 84.646Z" fill="white"/>
<path d="M187.853 94.6997C187.853 94.6997 189.175 96.6997 191.214 97.6299C193.254 98.56 195.641 98.9618 195.641 98.9618V64.9043C195.641 64.9043 194.453 63.6638 192.189 62.4651C189.924 61.2664 187.853 61.0538 187.853 61.0538V94.6997Z" fill="white"/>
<path d="M219.286 98.957C215.803 98.8437 214.111 97.995 211.5 95.499V64.9053C211.507 64.8988 213.224 63.2932 214.915 62.4199C216.409 61.6485 218.752 61.1354 219.286 61.0244V98.957Z" fill="white"/>
<path d="M232.122 65.3245C232.122 67.6584 230.23 69.5504 227.896 69.5504C225.562 69.5504 223.67 67.6584 223.67 65.3245C223.67 62.9906 225.562 61.0986 227.896 61.0986C230.23 61.0986 232.122 62.9906 232.122 65.3245Z" fill="white"/>
<path d="M270.319 76.5552V98.6244L263.828 95.3789C256.607 100.085 241.434 100.896 241.191 89.2936C241.353 81.9102 247.844 79.8818 254.01 78.5836C257.256 77.7723 261.718 76.6363 262.935 73.0663C262.935 72.9852 263.016 72.9852 263.016 72.9041C262.773 69.9831 261.962 66.8188 259.852 65.1149C258.554 64.1413 257.012 63.8168 255.39 63.8168C251.576 63.8168 248.655 66.159 247.519 69.729L244.112 70.0643C245.734 64.7093 251.657 61.5449 257.093 61.5449C267.154 61.5449 270.319 68.0359 270.319 76.5552ZM263.097 93.2693V76.8797C259.527 80.6932 253.037 79.395 250.034 83.2084C248.98 84.5877 248.412 86.3727 248.331 88.1577C248.249 97.813 257.093 97.6507 263.097 93.2693Z" fill="white"/>
<path d="M270.319 76.5552C270.319 68.169 267.252 61.7483 257.56 61.5497L257.093 61.5449C251.657 61.5449 245.734 64.7093 244.112 70.0643L247.519 69.729C248.655 66.159 251.576 63.8168 255.39 63.8168L255.693 63.8208C257.204 63.86 258.635 64.2021 259.852 65.1149C261.962 66.8188 262.773 69.9831 263.016 72.9041C263.016 72.9852 262.935 72.9852 262.935 73.0663C261.718 76.6363 257.256 77.7723 254.01 78.5836C247.844 79.8818 241.353 81.9102 241.191 89.2936C241.434 100.896 256.607 100.085 263.828 95.3789L270.319 98.6244V76.5552ZM263.097 93.2693C257.14 97.6165 248.387 97.8102 248.33 88.3823L248.331 88.1577C248.409 86.4285 248.945 84.6994 249.937 83.339L250.034 83.2084C253.037 79.395 259.527 80.6932 263.097 76.8797V93.2693ZM262.759 77.6717C260.955 79.2312 258.617 79.8109 256.437 80.3716C253.971 81.006 251.722 81.615 250.303 83.4139L250.21 83.5384C249.264 84.8354 248.746 86.4952 248.668 88.1667C248.649 90.5275 249.176 92.2499 250.034 93.4494C250.89 94.6459 252.098 95.3523 253.501 95.6465C256.285 96.23 259.832 95.1843 262.759 93.0951V77.6717ZM270.657 99.1715C270.657 99.1715 268.049 98.9331 266.72 98.2684C265.39 97.6036 263.848 95.767 263.848 95.767C260.168 98.0989 254.584 99.4478 249.846 98.7868C247.436 98.4508 245.218 97.591 243.583 96.047C241.94 94.496 240.915 92.2816 240.853 89.3008V89.2862C240.936 85.4723 242.666 83.0215 245.163 81.3746C247.634 79.744 250.855 78.9022 253.938 78.2531C255.564 77.8466 257.451 77.3679 259.083 76.5568C260.707 75.7496 262.033 74.6352 262.606 72.9823C262.616 72.9323 262.633 72.8859 262.658 72.8443C262.662 72.838 262.666 72.832 262.67 72.8262C262.417 69.9524 261.61 66.9715 259.642 65.3804C258.424 64.4696 256.966 64.1549 255.39 64.1549C251.791 64.1549 248.958 66.3237 247.841 69.8316L247.748 70.1238L243.681 70.3181L243.788 69.9665C245.467 64.426 251.558 61.207 257.093 61.207C262.202 61.207 265.62 62.8597 267.748 65.6505C269.861 68.4235 270.657 72.2637 270.657 76.5552V99.1715Z" fill="white"/>
</svg>
