<svg width="208" height="62" viewBox="0 0 208 62" fill="none" xmlns="http://www.w3.org/2000/svg">
<path d="M25.2129 26.9492V45.8328L19.6589 43.0558C13.4801 47.0825 0.497547 47.7767 0.289272 37.8489C0.428122 31.5313 5.98214 29.7956 11.2584 28.6848C14.0355 27.9906 17.8538 27.0186 18.8952 23.9639C18.8952 23.8945 18.9646 23.8945 18.9646 23.8251C18.7564 21.3258 18.0621 18.6182 16.2571 17.1602C15.1463 16.3271 13.8272 16.0494 12.4387 16.0494C9.17569 16.0494 6.67639 18.0536 5.70444 21.1083L2.78858 21.3952C4.17708 16.8131 9.24512 14.1055 13.8966 14.1055C22.5053 14.1055 25.2129 19.6596 25.2129 26.9492ZM19.0341 41.2508V27.2269C15.9794 30.4899 10.4253 29.3791 7.85662 32.6421C6.95409 33.8223 6.46811 35.3496 6.39869 36.877C6.32926 45.1386 13.8966 44.9997 19.0341 41.2508Z" fill="white"/>
<path d="M25.2129 26.9492C25.2129 19.7735 22.5892 14.2796 14.2958 14.1096L13.8966 14.1055C9.24512 14.1055 4.17708 16.8131 2.78858 21.3952L5.70444 21.1083C6.67639 18.0536 9.17569 16.0494 12.4387 16.0494L12.698 16.0529C13.9911 16.0864 15.2157 16.3792 16.2571 17.1602C18.0621 18.6182 18.7564 21.3258 18.9646 23.8251C18.9646 23.8945 18.8952 23.8945 18.8952 23.9639C17.8538 27.0186 14.0355 27.9906 11.2584 28.6848C5.98214 29.7956 0.428122 31.5313 0.289272 37.8489C0.497547 47.7767 13.4801 47.0825 19.6589 43.0558L25.2129 45.8328V26.9492ZM19.0341 41.2508C13.9367 44.9704 6.44735 45.1362 6.39844 37.0691L6.39869 36.877C6.46594 35.3974 6.92398 33.9178 7.77304 32.7538L7.85662 32.6421C10.4253 29.3791 15.9794 30.4899 19.0341 27.2269V41.2508ZM18.7447 27.9046C17.2007 29.2389 15.2001 29.7349 13.335 30.2148C11.2251 30.7576 9.30015 31.2786 8.08633 32.8179L8.00666 32.9244C7.19725 34.0342 6.75369 35.4544 6.68771 36.8847C6.67153 38.9047 7.1221 40.3785 7.85638 41.4048C8.58889 42.4287 9.62206 43.033 10.8231 43.2848C13.2048 43.7841 16.2395 42.8893 18.7447 41.1017V27.9046ZM25.5022 46.301C25.5022 46.301 23.2711 46.0971 22.1336 45.5282C20.9961 44.9594 19.6767 43.3879 19.6767 43.3879C16.5275 45.3832 11.7496 46.5374 7.69508 45.9719C5.6335 45.6843 3.73545 44.9487 2.33621 43.6275C0.930811 42.3004 0.053509 40.4056 0 37.855V37.8426C0.0717324 34.5792 1.55178 32.4821 3.68793 31.073C5.80298 29.6778 8.55854 28.9574 11.1963 28.402C12.5876 28.0542 14.2024 27.6446 15.5989 26.9506C16.9888 26.2598 18.1231 25.3064 18.6134 23.892C18.6217 23.8492 18.6367 23.8096 18.658 23.774C18.6613 23.7685 18.6648 23.7634 18.6682 23.7584C18.4519 21.2995 17.7609 18.7488 16.0777 17.3874C15.0353 16.608 13.7876 16.3388 12.4387 16.3388C9.35998 16.3388 6.93511 18.1945 5.98007 21.1961L5.90041 21.4461L2.42039 21.6123L2.51163 21.3115C3.94821 16.5708 9.16064 13.8164 13.8966 13.8164C18.2682 13.8164 21.1926 15.2305 23.0129 17.6185C24.8216 19.9912 25.5022 23.2772 25.5022 26.9492V46.301Z" fill="white"/>
<path fill-rule="evenodd" clip-rule="evenodd" d="M46.2381 32.986L46.2409 33.5637C46.2561 34.953 46.3374 36.6182 46.6658 38.1858C47.031 39.9287 47.6917 41.5007 48.8565 42.4548L48.9707 42.5452L48.9732 42.5472L49.0721 42.6224C51.1624 44.1695 54.2199 43.7876 56.3429 42.3944C58.1914 41.1812 59.2543 39.2024 59.7695 36.7214V42.487C57.7511 45.0022 54.3768 46.1821 51.1507 46.119C46.2823 46.1526 43.2649 44.3803 41.5199 41.565C39.791 38.7755 39.3416 35.0091 39.4806 31.1052L39.4922 30.4777C39.5417 27.0774 39.4806 19.8973 39.4806 17.1571V16.9775C39.4806 16.9775 39.9045 15.9518 42.1756 14.8512C44.4466 13.7507 46.2381 13.6367 46.2381 13.6367V32.986ZM45.9559 33.8696C45.9572 33.9397 45.9588 34.0105 45.9604 34.0818C45.9564 33.9061 45.9535 33.7339 45.9517 33.5659L45.9559 33.8696Z" fill="white"/>
<path d="M59.7694 42.4721C59.7694 42.4721 60.9002 44.1835 62.6455 44.9794C64.3907 45.7752 66.4333 46.119 66.4333 46.119V16.9775C66.4333 16.9775 65.4164 15.916 63.479 14.8903C61.5416 13.8647 59.7694 13.6828 59.7694 13.6828V42.4721Z" fill="white"/>
<path d="M86.668 46.1133C83.6874 46.0163 82.2401 45.291 80.0059 43.1553V16.9775C80.0059 16.9775 81.4782 15.5993 82.9277 14.8506C84.2057 14.1906 86.211 13.7513 86.668 13.6562V46.1133Z" fill="white"/>
<circle cx="94.0339" cy="17.3346" r="3.61589" fill="white"/>
<path d="M130.332 26.9492V45.8328L124.778 43.0558C118.599 47.0825 105.617 47.7767 105.408 37.8489C105.547 31.5313 111.101 29.7956 116.378 28.6848C119.155 27.9906 122.973 27.0186 124.014 23.9639C124.014 23.8945 124.084 23.8945 124.084 23.8251C123.876 21.3258 123.181 18.6182 121.376 17.1602C120.265 16.3271 118.946 16.0494 117.558 16.0494C114.295 16.0494 111.796 18.0536 110.824 21.1083L107.908 21.3952C109.296 16.8131 114.364 14.1055 119.016 14.1055C127.624 14.1055 130.332 19.6596 130.332 26.9492ZM124.153 41.2508V27.2269C121.099 30.4899 115.544 29.3791 112.976 32.6421C112.073 33.8223 111.587 35.3496 111.518 36.877C111.448 45.1386 119.016 44.9997 124.153 41.2508Z" fill="white"/>
<path d="M130.332 26.9492C130.332 19.7735 127.708 14.2796 119.415 14.1096L119.016 14.1055C114.364 14.1055 109.296 16.8131 107.908 21.3952L110.824 21.1083C111.796 18.0536 114.295 16.0494 117.558 16.0494L117.817 16.0529C119.11 16.0864 120.335 16.3792 121.376 17.1602C123.181 18.6182 123.876 21.3258 124.084 23.8251C124.084 23.8945 124.014 23.8945 124.014 23.9639C122.973 27.0186 119.155 27.9906 116.378 28.6848C111.101 29.7956 105.547 31.5313 105.408 37.8489C105.617 47.7767 118.599 47.0825 124.778 43.0558L130.332 45.8328V26.9492ZM124.153 41.2508C119.056 44.9704 111.566 45.1362 111.518 37.0691L111.518 36.877C111.585 35.3974 112.043 33.9178 112.892 32.7538L112.976 32.6421C115.544 29.3791 121.099 30.4899 124.153 27.2269V41.2508ZM123.864 27.9046C122.32 29.2389 120.319 29.7349 118.454 30.2148C116.344 30.7576 114.419 31.2786 113.205 32.8179L113.126 32.9244C112.316 34.0342 111.873 35.4544 111.807 36.8847C111.791 38.9047 112.241 40.3785 112.976 41.4048C113.708 42.4287 114.741 43.033 115.942 43.2848C118.324 43.7841 121.359 42.8893 123.864 41.1017V27.9046ZM130.621 46.301C130.621 46.301 128.39 46.0971 127.253 45.5282C126.115 44.9594 124.796 43.3879 124.796 43.3879C121.647 45.3832 116.869 46.5374 112.814 45.9719C110.753 45.6843 108.855 44.9487 107.455 43.6275C106.05 42.3004 105.173 40.4056 105.119 37.855V37.8426C105.191 34.5792 106.671 32.4821 108.807 31.073C110.922 29.6778 113.678 28.9574 116.315 28.402C117.707 28.0542 119.322 27.6446 120.718 26.9506C122.108 26.2598 123.242 25.3064 123.733 23.892C123.741 23.8492 123.756 23.8096 123.777 23.774C123.78 23.7685 123.784 23.7634 123.787 23.7584C123.571 21.2995 122.88 18.7488 121.197 17.3874C120.154 16.608 118.907 16.3388 117.558 16.3388C114.479 16.3388 112.054 18.1945 111.099 21.1961L111.02 21.4461L107.54 21.6123L107.631 21.3115C109.067 16.5708 114.28 13.8164 119.016 13.8164C123.387 13.8164 126.312 15.2305 128.132 17.6185C129.941 19.9912 130.621 23.2772 130.621 26.9492V46.301Z" fill="white"/>
<path d="M202.019 0C205.322 4.70259e-05 208 2.67804 208 5.98145V55.6494C208 58.9528 205.322 61.6308 202.019 61.6309H152.351C149.047 61.6309 146.369 58.9528 146.369 55.6494V5.98145C146.369 2.67802 149.047 0 152.351 0H202.019ZM166.771 14.084C165.322 14.084 163.964 14.5058 162.697 15.3506C161.43 16.1953 160.314 17.3872 159.349 18.9258C158.413 20.4344 157.674 22.2002 157.131 24.2217C156.618 26.2431 156.361 28.4309 156.361 30.7842C156.361 33.1375 156.618 35.34 157.131 37.3916C157.674 39.4131 158.413 41.178 159.349 42.6865C160.314 44.195 161.43 45.3867 162.697 46.2617C163.964 47.1065 165.322 47.5293 166.771 47.5293C168.219 47.5293 169.562 47.1065 170.799 46.2617C172.066 45.3868 173.182 44.195 174.147 42.6865C175.113 41.178 175.852 39.4131 176.365 37.3916C176.908 35.34 177.18 33.1375 177.18 30.7842C177.18 28.4308 176.908 26.2431 176.365 24.2217C175.852 22.2002 175.113 20.4344 174.147 18.9258C173.182 17.3872 172.066 16.1953 170.799 15.3506C169.562 14.5058 168.219 14.084 166.771 14.084ZM190.7 14.084C188.286 14.084 186.295 14.7624 184.726 16.1201C183.187 17.4477 182.418 19.2283 182.418 21.4609C182.418 23.1505 182.931 24.7493 183.957 26.2578C184.983 27.7362 186.612 29.2749 188.845 30.874C190.866 32.3826 192.329 33.9066 193.234 35.4453C194.17 36.9841 194.638 38.6437 194.638 40.4238C194.638 42.2643 194.185 43.6978 193.28 44.7236C192.405 45.7193 191.213 46.2168 189.704 46.2168C186.898 46.2166 184.983 44.0593 183.957 39.7451L183.55 38.0254C183.429 37.4823 183.202 37.21 182.87 37.21C182.478 37.2101 182.282 37.5122 182.282 38.1152L182.509 45.2207C182.509 45.5526 182.554 45.7945 182.645 45.9453C182.765 46.0659 182.931 46.187 183.142 46.3076C183.504 46.5188 184.002 46.7145 184.636 46.8955C185.299 47.0765 185.994 47.228 186.718 47.3486C187.472 47.4693 188.151 47.5293 188.754 47.5293C190.443 47.5293 191.937 47.1822 193.234 46.4883C194.562 45.7642 195.603 44.7682 196.357 43.501C197.112 42.2339 197.489 40.7558 197.489 39.0664C197.489 37.1354 196.961 35.3244 195.905 33.6348C194.879 31.915 193.235 30.1354 190.972 28.2949C188.86 26.6053 187.381 25.1718 186.536 23.9951C185.691 22.8185 185.27 21.5814 185.27 20.2842C185.27 18.7456 185.646 17.5538 186.4 16.709C187.185 15.8642 188.226 15.4414 189.523 15.4414C190.851 15.4414 191.862 15.9843 192.556 17.0703C193.28 18.1263 193.974 19.8164 194.638 22.1396L194.954 23.2705C195.075 23.6929 195.271 23.9043 195.543 23.9043C195.935 23.9042 196.131 23.6476 196.131 23.1348L195.995 16.3008C195.995 16.0597 195.935 15.8637 195.814 15.7129C195.724 15.5621 195.588 15.4263 195.407 15.3057C194.864 14.9134 194.17 14.6116 193.325 14.4004C192.48 14.1892 191.605 14.084 190.7 14.084ZM166.771 15.3057C168.913 15.3057 170.587 16.5879 171.794 19.1523C173.001 21.6868 173.604 25.5644 173.604 30.7842C173.604 36.0036 173.001 39.8954 171.794 42.46C170.587 45.0246 168.913 46.3076 166.771 46.3076C164.659 46.3075 162.984 45.0245 161.747 42.46C160.54 39.8954 159.937 36.0035 159.937 30.7842C159.937 25.5644 160.54 21.6868 161.747 19.1523C162.984 16.5879 164.659 15.3058 166.771 15.3057Z" fill="white"/>
</svg>
