<svg width="235" height="263" viewBox="0 0 235 263" fill="none" xmlns="http://www.w3.org/2000/svg">
<path d="M23.4314 109.412C24.5562 107.938 28.6248 104.634 30.3518 103.791C43.214 100.421 55.2068 94.2478 67.8661 90.3993C80.1896 86.6562 84.6024 87.4377 96.0047 92.929C128.608 108.651 151.766 166.958 152.71 201.238C153.192 218.658 145.058 228.092 131.324 237.352C112.453 250.077 81.6377 263.815 62.1977 245.065C50.8419 234.115 27.0581 188.055 22.6568 172.461C19.8726 162.603 19.5964 147.678 19.4252 137.176C19.3085 129.92 19.0504 115.158 23.4314 109.412Z" fill="black"/>
<path d="M124.685 11.5502C129.607 9.99424 132.3 16.7538 136.558 19.5995C141.236 22.7241 146.49 22.9905 150.927 25.5004C154.238 27.3781 166.307 38.3288 167.448 41.7184C170.607 51.0968 170.809 66.4084 164.203 74.4469C154.029 86.8277 143.9 87.4198 129.395 82.5079C124.19 80.7488 115.989 78.15 111.196 75.6735C99.4059 69.576 104.454 66.4927 102.138 56.2764C101.086 51.6503 97.1527 48.5809 98.3912 43.3087C98.7454 41.7979 105.847 33.7113 107.486 31.2631C109.621 28.0618 111.229 23.3311 113.654 20.3015C115.264 18.2927 122.428 12.2661 124.678 11.5514L124.685 11.5502Z" fill="black"/>
<path d="M193.761 104.654C203.138 101.481 211.997 105.258 214.857 114.976C215.616 117.556 217.105 123.763 217.484 126.358C217.665 127.597 217.544 132.108 217.253 133.309C216.374 136.912 213.092 137.212 211.02 139.054C208.948 140.896 207.969 144.342 205.102 145.087C202.696 145.714 200.526 144.226 198.142 144.137C193.481 143.964 185.923 145.066 181.958 141.657C179.747 139.763 182.601 133.704 182.342 130.347C182.171 128.124 181.083 126.594 180.955 124.882C180.873 123.837 182.742 114.101 183.217 113.021C184.323 110.477 191.148 105.531 193.774 104.637L193.761 104.654Z" fill="black"/>
</svg>
