<svg width="200" height="133" viewBox="0 0 200 133" fill="none" xmlns="http://www.w3.org/2000/svg">
<path d="M142.891 64.0331C145.012 69.2233 139.62 74.7771 135.465 77.2341C130.268 80.309 115.351 82.9405 109.321 82.8824C106.245 82.8533 87.4553 76.042 83.9159 74.3191C74.8104 69.8848 67.319 60.9 56.2448 59.6933C63.1933 69.3324 71.9803 78.8406 77.5609 89.403C82.2149 98.2061 83.7639 109.154 89.1634 116.91C90.2274 118.437 91.8994 119.462 92.9562 121.075C96.3436 126.244 98.8914 133.477 89.8076 132.975C85.5155 132.743 85.6819 130.787 82.7505 129.152C69.4615 121.766 47.1539 113.581 37.4983 102.081C31.2953 94.695 29.3627 86.7133 26.2793 77.8157C25.5194 78.3391 25.9247 80.12 26.0115 80.9851C26.7426 87.9636 29.978 100.67 26.9308 106.74C26.4603 107.678 25.8306 108.572 25.1936 109.394C21.466 109.939 18.7445 106.348 18.7011 102.829C19.9243 93.5683 17.0726 82.7006 17.9411 73.7885C18.6504 66.4901 21.3285 63.2698 19.3887 54.2849C17.1956 44.1369 8.27834 35.9226 4.1237 26.8287C3.58085 25.6438 0.193448 16.4699 0.0631634 15.6267C-0.414547 12.4863 1.85096 6.52546 5.72332 7.09247C6.8814 9.97839 6.43264 12.5808 8.2711 15.4158C9.98651 18.0619 13.4101 19.6975 15.4729 21.9582C17.5358 24.219 23.0222 34.0689 24.8534 34.3379C25.3674 34.4178 31.4763 29.2348 32.7646 28.4788C45.0621 21.224 62.4044 11.2941 75.7441 7.09975C86.0945 3.84309 103.929 -1.54347 114.185 0.419243C122.234 1.96034 129.103 5.52231 136.544 7.7031C153.3 12.6026 171.511 14.4636 187.869 21.4276C193.565 23.8555 201.31 34.0398 199.811 40.2769C198.993 43.7008 192.573 48.2877 189.28 49.3272C179.892 52.2931 164.779 53.9796 156.636 57.1563C152.46 58.7846 147.987 64.571 142.899 64.0331H142.891Z" fill="black"/>
</svg>
