<svg width="208" height="340" viewBox="0 0 208 340" fill="none" xmlns="http://www.w3.org/2000/svg">
<g filter="url(#filter0_d_3083_3503)">
<path d="M93.7936 89.7885L95.0647 87.8684C97.8682 79.6394 97.3588 70.4461 99.0639 61.8278C99.9453 57.3727 101.535 52.338 103.01 48.0333C107.745 34.2034 117.922 21.6432 132.4 17.3473C135.7 16.3696 144.934 14.2902 148.069 14.5734C148.871 14.6442 149.58 15.0025 150.43 15.0512C154.544 15.2901 158.411 14.6884 162.445 16.2811C167.348 18.2145 162.096 20.3336 159.434 20.4929C158.141 20.5725 156.661 20.0682 155.43 20.7451C154.598 21.2052 154.181 23.2713 153.681 24.1959C152.401 26.5628 150.173 30.1862 148.193 31.9559C146.714 33.2787 143.038 35.5218 141.151 35.8049C139.956 35.9863 139.216 35.1722 138.135 36.088C137.781 36.3889 136.537 38.6983 136.32 39.238C135.77 40.5963 135.722 41.9987 134.907 43.264C133.1 46.0734 129.902 51.2187 127.068 52.9264C123.139 55.2977 120.097 52.3999 116.275 55.1429C113.453 57.1692 111.451 60.0714 110.021 63.1993C109.299 64.7831 108.71 66.4289 108.201 68.0968C107.966 68.8578 106.544 72.3573 107.284 72.8262C107.359 72.8749 107.452 72.9103 107.545 72.9192C108.103 72.9811 109.064 72.2069 109.574 71.9503C111.602 70.9371 113.179 70.1717 114.769 68.4994C116.567 66.6103 118.679 65.0442 120.779 63.4913C122.041 62.5578 123.356 61.5933 124.867 61.1111C125.606 60.8766 126.284 60.9739 127.006 60.8545C127.816 60.7217 128.613 60.2041 129.38 59.9033C132.812 58.5583 136.461 57.877 139.898 56.5365C141.785 55.7977 143.809 54.1784 145.629 53.7493C148.313 53.1166 153.047 55.2137 156.121 55.0234C157.476 54.9394 159.416 53.5015 161.183 53.2228C162.366 53.037 165.36 52.6432 164.934 54.497C163.978 54.7978 163.446 55.6207 162.689 56.1516C160.807 57.4656 158.557 58.2487 156.719 59.6423C155.311 60.7129 153.933 62.456 152.516 63.4824C150.669 64.8229 148.326 65.2078 146.364 66.3183C140.881 69.4108 138.122 72.5077 131.036 72.9855C128.463 73.1581 126.709 72.2953 124.384 72.0653C121.523 71.7866 117.847 72.9413 114.924 73.4279C113.095 73.7332 112.607 74.0473 111.155 75.2064C109.454 76.5647 107.908 78.0821 106.372 79.6129C104.985 80.9977 103.581 82.4001 102.616 84.1034C101.075 86.8243 100.769 90.0805 99.3961 92.8898C98.8425 94.0224 97.8903 95.2125 97.6644 96.4734C97.4696 97.5706 97.9966 98.5837 98.3376 99.6322C99.0684 101.889 100.379 104.065 100.645 106.45C100.986 109.511 99.7283 112.688 99.9364 115.674C99.9807 116.316 100.215 117.037 100.286 117.687C101.013 116.121 101.801 113.776 102 112.069C102.2 110.361 101.881 108.56 102.058 106.923C102.656 101.393 113.626 94.3807 118.489 92.6067C119.494 92.2395 121.009 92.1067 121.864 91.7262C122.909 91.2573 124.49 89.377 125.495 88.7355C127.094 87.7091 129.468 87.3109 131.04 86.4748C132.59 85.6563 133.565 83.6787 134.933 82.5638C136.94 80.9269 137.87 81.4666 140.142 80.9136C141.807 80.5066 145.93 79.0422 147.471 78.3078C149.013 77.5734 150.634 76.0338 152.113 75.1755C152.667 75.2861 153.712 75.2905 153.991 75.8258C154.336 76.4939 153.632 76.8876 153.455 77.4318C152.41 80.6703 150.957 84.6122 148.162 86.8022C147.454 87.3596 146.369 87.7401 145.802 88.2267C145.235 88.7134 144.739 89.7885 144.172 90.3813C143.14 91.4564 141.652 92.2616 140.607 93.4384C137.352 97.1149 136.346 99.8048 131.846 102.888C128.432 105.224 126.186 105.463 122.311 106.127C118.179 106.835 114.755 110.179 110.823 111.666C109.693 113.683 109.148 115.975 108.258 118.09C107.798 119.178 107.018 119.886 106.664 121.227C106.168 123.107 106.181 125.739 105.393 127.522C105.167 128.035 104.693 128.124 104.379 128.526C104.015 129 104.011 129.641 104.042 130.212C104.055 130.491 104.073 130.778 103.998 131.044C103.896 131.398 103.643 131.681 103.409 131.964C102.651 132.88 101.58 134.225 101.27 135.397C100.96 136.57 102.381 136.609 102.815 135.671C102.992 135.286 103.05 134.857 103.165 134.446C103.604 132.844 105.038 131.159 106.119 129.902C107.372 128.442 108.754 127.084 110.189 125.806C112.793 123.487 115.867 120.881 119.282 119.882C120.269 119.594 121.571 119.519 122.417 119.231C123.263 118.944 124.96 117.594 125.952 117.09C127.143 116.484 129.109 115.913 130.066 115.289C130.863 114.772 131.917 112.701 132.94 111.781C135.345 109.618 139.291 108.299 142.454 107.812C145.275 107.379 146.231 108.029 148.782 108.224C150.846 108.383 153.114 108.047 155.16 108.233C156.683 108.37 162.131 109.432 162.082 111.392C161.617 112.507 159.155 113.316 157.999 113.431C156.573 113.577 154.38 113.086 153.171 113.807C152.126 114.431 151.922 116.187 151.351 117.192C148.681 121.908 145.044 127.562 139.265 128.756C138.237 128.969 136.497 128.504 135.722 129.119C135.376 129.394 134.189 131.853 133.95 132.428C132.152 136.777 130.558 140.166 127.258 143.715C126.133 144.927 124.193 146.745 122.51 147.006C119.299 147.51 117.554 146.002 114.286 148.006C110.34 150.426 105.402 158.951 104.919 163.486C104.804 164.579 105.291 165.318 105.375 166.3C105.769 170.817 103.391 175.086 103.001 179.532C103.077 181.077 103.147 182.625 103.223 184.169C103.36 186.992 103.205 190.013 104.113 192.721C104.215 193.031 104.348 193.354 104.618 193.531C104.804 193.654 105.034 193.69 105.229 193.8C105.84 194.137 106.562 193.884 107.306 193.96C107.975 194.03 108.701 194.061 109.352 194.247C110.862 194.681 113.405 197.397 114.995 198.304C118.05 200.047 122.798 200.835 126.235 201.963C131.178 203.578 136.94 205.418 141.568 207.679C143.818 208.776 149.03 213.165 151.112 213.006C151.852 212.948 152.715 212.236 153.583 212.581C154.713 214.267 153.641 215.408 151.847 215.616C147.086 216.169 144.101 212.324 140.301 210.369C137.768 209.064 136.532 209.674 133.937 209.4C130.584 209.05 127.125 207.502 123.821 206.865C123.724 207.303 124.065 207.427 124.291 207.692C126.173 209.895 129.074 211.577 131.262 213.492C132.201 214.315 134.322 216.204 135.062 217.023C135.553 217.567 135.677 218.35 136.107 218.815C136.506 219.244 137.143 219.319 137.542 219.748C139.198 221.535 139.814 221.633 141.532 223.088C142.923 224.27 144.628 226.013 146.205 226.933C147.693 227.8 151.586 228.455 153.512 229.087C158.384 230.693 163.88 232.525 168.495 234.684C171.254 235.976 175.945 240.422 178.797 239.966C179.939 239.781 181.06 238.714 181.175 241.139C181.281 243.4 176.122 242.701 174.744 242.156C171.821 241.002 168.052 236.989 165.036 236.494C164.053 236.33 163.398 236.67 162.724 236.626C158.579 236.356 154.664 234.83 150.665 233.835C150.337 234.37 151.302 234.821 151.59 235.272C151.776 235.564 151.652 236.082 151.958 236.325C152.569 236.812 155.04 236.533 156.338 237.383C158.203 238.604 157.445 241.174 158.087 242.019C158.344 242.356 159.496 242.572 160.036 242.909C161.143 243.594 161.905 244.59 162.862 245.289C166.622 248.036 171.454 248.669 175.794 250.093C181.038 251.814 187.243 253.779 192.088 256.269C194.333 257.424 198.62 261.167 200.817 261.264C201.796 261.309 203.541 259.88 203.939 261.685C204.285 263.255 203.098 263.724 201.743 263.879C197.084 264.41 194.094 260.676 190.343 258.72C187.544 257.261 184.483 257.814 181.281 257.141C173.876 255.579 167.539 252.642 161.418 248.271C161.192 248.523 162.366 249.934 162.49 250.39C162.623 250.881 162.53 251.881 162.627 252.027C162.689 252.12 163.464 252.239 163.761 252.429C164.279 252.766 167.082 256.376 167.574 257.132C167.937 257.694 168.5 259.313 168.863 259.627C169.288 259.999 170.063 259.787 170.732 260.127C171.618 260.579 175.542 267.706 176.21 269.077C177.225 271.148 179.776 278.054 179.776 280.125C179.776 280.93 179.412 281.775 179.381 282.677C179.306 284.858 179.753 287.225 179.638 289.557C179.523 291.888 178.868 291.897 179.687 294.459C181.002 298.556 185.015 303.267 182.916 307.736C182.296 309.054 180.994 309.598 180.086 308.249C179.559 307.461 180.316 307.081 180.564 306.333C181.383 303.842 177.818 298.485 176.963 295.768C176.445 294.127 175.134 289.858 174.917 288.353C174.762 287.27 175.125 286.066 174.731 284.991C174.465 284.332 173.708 284.518 173.159 284.195C170.426 282.589 168.345 275.546 166.817 272.564C165.289 269.582 163.69 268.405 161.529 266.025C160.134 264.49 160.222 263.291 159.407 261.521C159.598 265.246 160.528 268.998 160.235 272.754C160.178 273.488 159.815 274.156 159.766 274.891C159.505 278.62 163.752 283.306 164.031 287.177C164.151 288.827 163.65 292.893 161.245 291.853C159.638 291.158 161.01 290.035 161.17 289.066C161.613 286.336 158.601 282.102 157.693 279.324C156.019 274.187 155.036 268.33 154.159 262.99C153.592 259.53 153.499 255.588 152.6 252.248C151.798 249.266 147.905 246.258 149.119 242.599C147.533 244.382 144.221 240.241 143.8 239.037C143.565 238.365 143.915 238.024 143.92 237.396C142.564 237.812 141.138 236.255 140.558 235.197C140.244 234.622 139.88 232.799 139.606 232.485C139.508 232.375 137.391 231.569 136.895 231.291C135.208 230.34 132.037 228.517 131.209 226.809C130.438 225.216 130.062 224.849 129.291 223.522C128.985 223 128.937 222.159 128.658 221.792C128.33 221.358 125.863 220.288 124.703 218.885C123.857 217.868 123.79 217.85 122.869 216.934C121.735 215.811 120.814 214.501 119.565 213.501C120.123 215.7 121.301 217.686 122.107 219.828C124.074 225.088 125.004 228.884 128.454 233.587C134.61 241.979 138.228 242.882 141.191 253.96C142.046 257.15 144.132 259.468 145.62 262.304C148.862 268.489 149.46 275.718 150.31 282.567C151.608 282.266 152.162 282.921 152.387 284.155C152.649 285.597 152.007 287.15 151.953 288.592C151.794 292.8 154.256 297.865 155.448 301.909C156.896 306.811 159.164 314.155 159.536 319.11C159.722 321.605 158.956 326.897 160.479 328.812C161.259 329.79 162.955 329.826 161.542 331.516C160.39 332.891 158.57 331.007 157.924 329.949C155.776 326.445 156.803 322.216 156.475 318.389C156.183 314.987 152.99 312.549 152.268 309.116L149.013 298.653C147.945 303.807 145.908 308.744 144.216 313.726C144.761 314.898 144.079 316.535 144.172 317.447C144.327 318.982 146.143 321.835 146.479 323.424C146.612 324.043 146.67 324.99 146.302 325.508C145.939 325.87 143.029 326.171 142.462 326.043C141.515 325.826 136.293 322.07 135.695 321.203C134.823 319.938 133.972 315.907 133.981 314.385C133.986 313.598 134.517 312.695 134.424 312.071C134.366 311.664 133.915 311.253 133.817 310.784C133.304 308.333 133.135 305.74 132.227 303.391C130.296 306.789 128.573 310.797 126.155 313.876C124.503 315.978 123.122 316.292 122.191 319.137C121.111 322.433 121.075 327.472 118.724 330.1C117.692 331.255 114.445 333.17 114.352 330.471C114.304 329.091 115.296 329.476 116.155 328.719C117.949 327.144 118.467 320.632 119.397 318.009C121.74 311.412 125.766 304.794 129.07 298.591C131.302 294.392 131.696 293.326 132.342 288.619C133.37 281.164 136.417 273.913 133.06 266.609C132.954 266.374 132.914 266.056 132.582 266.025C131.904 270.471 130.504 274.369 128.445 278.328C126.895 281.306 125.119 284.239 123.002 286.84C121.974 288.106 120.934 288.53 120.234 290.22C118.919 293.406 119.069 298.051 117.249 300.953C116.469 302.197 113.431 305.108 112.293 302.984C111.363 301.259 112.997 301.391 113.905 300.684C115.685 299.308 116.182 292.773 117.032 290.331C118.741 285.434 121.749 279.669 124.171 275.001C125.978 271.52 129.074 267.507 129.867 263.667C130.217 261.968 130.181 260.295 130.473 258.597C130.562 258.088 130.987 257.884 130.925 257.181C130.806 255.836 127.754 249.27 126.86 247.97C125.376 245.806 122.927 244.121 120.991 242.373C121.013 243.435 120.956 244.51 120.978 245.576C121.115 251.385 119.902 258.092 117.647 263.512C117.337 264.255 116.624 264.967 116.372 265.786C115.198 269.546 117.404 274.585 116.425 278.373C116.04 279.868 114.397 283.381 112.377 282.084C110.579 280.925 112.873 279.797 113.281 279.019C114.299 277.076 113.289 274.09 113.183 272.055C112.842 265.485 114.211 258.035 115.38 251.549C115.933 248.465 117.107 245.081 117.413 241.988C117.851 237.476 115.11 231.875 113.298 227.712C111.354 223.243 108.985 217.974 106.77 213.665C105.809 211.802 104.547 210.05 103.369 208.32C101.921 211.196 99.8479 213.709 98.3509 216.545C96.0479 220.916 93.2754 226.561 91.3843 231.1C87.7349 239.838 89.1964 241.727 90.2417 250.54C90.4542 252.319 90.3214 254.239 90.5118 255.947C90.689 257.544 91.3267 259.101 91.4374 260.698C91.5747 262.733 91.5083 266.188 91.4286 268.272C91.3179 271.037 89.6615 275.997 90.6225 278.306C91.0034 279.226 92.93 280.301 91.2869 281.377C89.3337 282.651 87.6286 278.727 87.4293 277.244C86.9421 273.599 88.9794 269.051 88.5985 265.671C88.4568 264.423 87.0174 262.158 86.579 260.596C85.1263 255.42 84.5151 249.129 85.0422 243.802C82.5221 246.253 79.1739 248.288 77.3492 251.363C76.8975 252.124 74.6609 256.84 74.6432 257.429C74.6299 257.902 75.2101 259.499 75.3164 260.269C75.9098 264.565 76.1091 265.635 78.142 269.507C81.7294 276.333 86.2911 283.58 88.6561 290.924C89.4267 293.313 89.8386 299.299 91.65 300.701C92.8148 301.604 94.5509 301.378 92.8503 303.528C91.2071 304.351 89.1256 302.232 88.3062 300.971C86.3974 298.034 86.6277 293.348 85.2459 290.074C84.524 288.358 81.9641 286.318 80.6842 284.465C76.3572 278.196 73.0975 270.595 72.5041 262.963C70.8742 264.175 71.7866 266.892 71.5386 268.737C71.2108 271.201 69.8069 273.727 69.6696 276.563C69.6164 277.709 70.6129 284.235 71.1532 284.894C71.3614 285.15 72.0612 285.301 72.3756 285.681C73.2791 286.77 73.0488 289.548 73.2747 290.928C74.0099 295.379 77.2606 299.418 79.3024 303.351C81.5478 307.678 84.586 313.522 86.1627 318.013C87.106 320.703 87.5622 327.512 89.6482 328.954C90.9104 329.826 92.0043 329.472 90.6668 331.737C85.0244 331.874 84.896 325.065 83.8419 321.044C82.5221 316.018 80.9145 316.159 78.3191 312.372C75.1835 307.798 72.3269 302.011 71.3215 296.547C70.9008 296.618 71.0602 297.777 71.078 298.095C71.2241 300.467 71.9593 303.245 71.7689 305.625C71.6183 307.475 70.8299 309.758 70.4446 311.629C69.9176 314.195 70.0637 315.213 69.9043 317.712C69.7847 319.588 69.085 322.72 67.7917 324.114C67.154 324.8 62.1936 328.251 61.4496 328.432C60.958 328.551 57.7382 328.193 57.4902 327.773C56.5823 326.229 59.399 321.853 59.6825 320.026C60.3867 315.491 57.6053 309.926 56.259 305.586C55.8382 304.236 55.6788 302.882 55.3156 301.56C55.2492 301.316 55.3599 300.976 55.01 301.046C54.1995 303.298 53.5352 305.948 52.4457 308.063C51.7947 309.324 50.2313 310.917 49.8593 312.098C48.721 315.726 50.2136 320.937 48.6635 324.618C48.07 326.025 45.4525 329.379 44.1593 326.906C43.3887 325.428 44.9122 325.468 45.5544 324.583C46.8255 322.822 46.201 319.707 46.2896 317.748C46.6793 309.125 49.9478 300.232 52.4679 291.999C53.5086 288.597 53.8851 286.805 53.832 283.173C53.8142 281.921 53.048 279.598 54.1818 278.567C54.452 278.324 54.917 278.43 55.01 278.173C55.9888 275.413 56.0641 271.396 57.1846 268.334C58.6948 264.198 62.3354 260.481 63.4559 256.393C66.4321 245.572 70.0505 244.47 76.2819 236.343C80.1483 231.3 81.0296 227.212 83.2662 221.571C84.3557 218.823 86.0254 216.333 86.9244 213.523C86.0829 213.762 85.6711 214.589 85.02 215.045C83.7711 215.917 81.8534 216.518 80.7905 217.439C79.3776 218.664 77.4688 221.106 76.149 222.495C75.1082 223.593 72.5306 224.92 72.3225 225.172C72.0922 225.451 70.4978 228.145 70.1213 228.764C69.6917 229.468 69.7493 230.154 69.0761 231.03C67.4994 233.069 63.5135 234.671 61.2104 235.821C60.8783 237.077 59.5098 240.112 58.3051 240.612C57.9597 240.754 57.158 240.387 56.6531 240.727C56.9012 241.214 56.9764 241.661 56.8391 242.201C56.6664 242.869 54.2173 245.873 53.5928 246.059C53.0303 246.227 52.1313 246.005 51.7991 246.395C51.3164 246.965 50.9886 249.731 50.621 250.655C50.1826 251.766 48.9956 252.867 48.5616 253.796C47.6227 255.818 47.5252 260.526 47.1222 263.003C46.3383 267.843 45.4171 273.444 43.9999 278.094C43.1008 281.036 39.6862 286.473 40.1113 289.079C40.2708 290.052 41.4577 290.818 40.3283 291.689C37.8659 293.583 37.1307 288.853 37.2503 287.19C37.5337 283.235 41.8829 278.563 41.4887 274.687C41.4223 274.055 41.0945 273.44 41.0414 272.767C40.8155 269.905 41.285 266.618 41.75 263.786L41.2761 263.667C40.5011 265.189 40.4302 266.936 39.4337 268.33C38.4372 269.723 36.4929 271.121 35.3636 272.537C32.91 275.621 31.1163 281.186 29.2517 284.872C28.3438 286.659 27.6884 286.703 27.3473 289.114C26.838 292.702 26.3597 295.901 25.3588 299.423C24.5527 302.254 21.0273 307.616 21.4215 310.12C21.5588 310.992 22.7635 312.014 21.736 312.828C20.8546 313.527 20.3187 313.438 19.6278 312.624C15.9253 308.249 22.6572 301.223 22.9318 296.808C23.007 295.56 22.3959 293.742 22.3471 292.406C22.2896 290.804 23.0912 287.349 22.3604 286.243C21.9707 285.655 21.0761 285.226 20.766 284.527C19.8847 282.553 20.9609 281.505 21.4215 279.868C22.9672 274.404 24.3623 271.037 28.0427 266.618C28.8443 265.658 29.9648 264.852 30.7354 263.87C32.3785 261.782 33.3396 259.756 35.2263 257.482C36.1475 256.371 36.0501 255.217 37.9368 255.106C37.609 253.013 39.5931 251.81 40.0936 249.934C38.9465 250.337 37.9722 251.058 36.8473 251.531C33.7603 252.836 27.3651 254.805 24.101 255.106C22.8653 255.217 21.5278 255 20.3453 255.137C16.6073 255.562 12.5151 260.875 8.5158 261.286C6.32352 261.512 2.31096 261.061 4.77341 258.243C5.61932 258.026 6.31023 258.672 7.10299 258.698C9.1757 258.774 13.8703 254.783 16.0449 253.681C22.4933 250.403 30.2571 248.355 37.1971 246.213C38.1848 245.908 41.4754 244.952 42.1087 244.501C43.5127 243.497 42.7332 240.873 45.2842 240.108C46.0681 239.874 48.2516 239.869 48.6945 239.551C48.9292 239.382 48.9292 238.723 49.2082 238.356C50.4749 236.67 52.7469 234.1 54.3634 232.87C54.6291 232.667 54.8506 232.627 54.7576 232.202C52.9373 232.056 51.2233 232.985 49.4341 233.144C45.9087 233.454 45.7537 232.729 42.3922 234.618C38.8225 236.622 35.5673 240.241 31.0454 239.241C28.769 238.737 29.1366 236.197 30.514 236.202C31.0853 236.202 31.5459 236.662 32.1748 236.71C34.3538 236.878 36.4619 234.68 38.1316 233.662C44.2479 229.941 50.4439 228.065 57.1359 225.703C60.0501 224.677 61.2857 225.031 63.7615 222.872C65.6393 221.235 67.2293 219.129 69.1824 217.412C71.45 215.426 75.1879 213.262 76.9993 211.041C77.2695 210.71 79.0233 207.776 79.1119 207.475C79.2226 207.095 79.0853 207.104 78.762 207.126C76.9506 207.232 74.6033 208.298 72.5793 208.515C69.0894 208.891 68.7395 208.099 65.3293 210.019C61.795 212.01 57.9951 216.019 53.5707 214.585C52.8797 214.359 52.0693 213.842 52.1977 212.984C52.5343 210.732 53.9515 212.081 55.1075 212.121C57.4326 212.2 59.2972 210.148 61.0687 209.068C68.6155 204.476 76.4147 202.529 84.7366 199.861C87.9564 198.831 93.0983 197.526 95.0957 194.61C95.8752 193.473 95.9859 188.009 95.9062 186.439C95.729 182.966 94.7281 179.51 94.4934 176.029C94.3871 174.44 94.7635 172.051 94.4402 170.64C94.3826 170.388 92.1062 166.773 91.7519 166.233C89.9892 163.561 87.6951 160.535 84.5063 159.526C80.9189 158.389 78.5982 161.066 74.5458 158.133C71.8929 156.213 70.2852 153.461 68.5402 150.895C68.0885 150.231 67.2514 149.762 66.7731 148.877C65.8652 147.21 65.5197 145.064 64.3195 143.29C62.9421 141.255 62.2468 142.462 60.586 142.312C59.5496 142.219 56.1482 140.741 55.165 140.144C51.8788 138.162 49.1152 134.149 47.1532 130.893C46.3693 129.593 46.4579 127.885 44.4826 127.65C41.9449 127.35 39.7659 128.296 37.2503 126.841C34.4867 125.239 38.3265 123.7 39.8102 123.231C43.433 122.08 46.3383 122.412 49.9124 121.979C50.9355 121.855 51.8833 121.368 52.7469 121.266C56.3786 120.828 62.8004 122.58 65.6526 124.934C67.5349 126.487 68.5624 129.34 70.7591 130.469C73.0532 131.645 75.9851 131.508 78.4653 131.986C82.0128 132.672 84.5771 134.357 87.2876 136.645C87.5268 135.375 86.7384 134.335 86.9466 132.995C87.2522 131.022 88.8288 131.747 87.3585 129.004C83.7135 122.191 77.4378 117.046 72.8761 111.082C71.0027 108.631 69.364 105.499 67.588 102.888C65.6792 100.083 63.6153 97.3759 61.7375 94.5489C61.0421 93.925 60.1032 94.5267 59.3636 94.5489C56.2368 94.6462 52.2818 90.6246 50.5059 88.2754C49.784 87.3198 48.0036 84.7759 47.4234 83.7893C46.48 82.1922 46.0637 79.9668 44.9211 78.2503C43.2735 75.7727 42.8661 77.3654 40.7048 77.0248C34.996 76.1311 30.4697 70.5124 27.7504 65.8538C26.8247 64.2655 27.0107 62.4781 24.597 62.3631C23.9238 62.3321 23.3614 62.6153 22.7236 62.6197C20.6996 62.633 18.7332 62.3543 17.0325 61.1951C15.5666 58.8371 22.5907 57.3992 23.9283 57.2001C26.4173 56.8285 28.9683 57.063 31.444 56.6736C32.3431 56.5321 33.0739 56.0056 34.0615 55.9658C37.4053 55.8331 43.216 57.4567 45.8866 59.5361C48.2206 61.3588 49.1019 64.4469 51.9275 65.5574C54.7532 66.6678 58.0438 66.3493 60.9181 67.212C65.7722 68.672 76.4767 77.4362 77.8807 82.4178C78.266 83.7805 79.2802 88.6603 79.3422 89.961C79.5282 93.8498 79.7231 94.9736 80.7107 98.743C81.7028 102.53 80.3653 105.003 80.7772 108.609C80.9056 109.728 82.7347 112.21 83.5186 113.201C86.9289 117.537 92.1283 120.47 93.3197 126.226C93.7405 126.062 93.5855 124.823 93.5633 124.443C93.2489 119.143 91.898 114.559 91.0256 109.476C89.5596 100.924 88.3727 92.2439 86.4018 83.8247C85.2813 79.051 81.2201 75.7152 79.7098 71.3618C79.5504 70.9017 79.639 70.3841 79.4928 69.924C77.3847 63.4116 75.7504 56.7444 73.9744 50.1347C71.264 46.0468 66.8882 49.011 63.509 45.4628C61.5603 43.4145 59.6205 39.0832 58.5044 36.5128C57.7382 34.752 57.4238 29.965 56.2988 28.7838C56.0287 28.5006 55.4485 28.4343 55.0632 28.3635C48.6369 27.1999 45.8688 21.3689 43.774 15.7635C43.1097 13.9894 43.898 12.8435 41.5773 12.0472C39.3451 11.2774 36.1918 11.5207 34.8897 9.01221C34.8188 8.2778 35.647 7.76902 36.2671 7.54781C40.1113 6.16305 44.6642 7.70708 48.4996 7.97695C49.2171 8.02562 49.8504 7.74247 50.559 7.77344C54.7044 7.97253 65.6969 13.9717 69.0717 16.7147C72.7831 19.7319 74.5989 22.9218 77.4821 26.5186C79.5194 29.0581 82.1501 31.3055 83.7578 34.1989C86.7473 39.5831 85.7685 43.0251 85.3079 48.781C84.6081 57.4744 86.5303 66.9333 87.4426 75.6931C87.4692 75.9364 87.5356 76.8036 87.8855 76.7859C88.6207 65.6989 90.7155 54.789 92.1106 43.7817C89.1256 38.8797 88.4922 32.124 89.8475 26.5938C90.7023 23.1164 91.1983 21.4928 91.7032 17.803C92.2081 14.1133 93.7759 12.379 94.7591 9.26881C95.3526 7.38412 95.4677 5.33131 95.9992 3.41122C96.1188 2.97766 96.9957 0.274498 97.1374 0.172742C98.9444 -1.07929 99.3873 4.85793 99.3917 5.66755C99.4006 7.28679 98.8558 7.7469 99.4183 9.5608C100.246 12.2286 102.341 14.9892 103.488 17.5508C103.909 19.6921 102.952 21.6786 102.784 23.6783C102.456 27.6202 103.068 32.0178 102.802 35.9951C102.611 38.8531 101.54 42.5163 100.782 45.3301C99.3075 50.8382 97.7176 54.9394 97.1153 60.8235C96.6591 65.2698 96.6547 69.8134 96.1365 74.2729C95.5297 79.4846 93.8822 84.506 93.8025 89.7929L93.7936 89.7885Z" fill="black"/>
</g>
<defs>
<filter id="filter0_d_3083_3503" x="0" y="0" width="208" height="340" filterUnits="userSpaceOnUse" color-interpolation-filters="sRGB">
<feFlood flood-opacity="0" result="BackgroundImageFix"/>
<feColorMatrix in="SourceAlpha" type="matrix" values="0 0 0 0 0 0 0 0 0 0 0 0 0 0 0 0 0 0 127 0" result="hardAlpha"/>
<feOffset dy="4"/>
<feGaussianBlur stdDeviation="2"/>
<feComposite in2="hardAlpha" operator="out"/>
<feColorMatrix type="matrix" values="0 0 0 0 0 0 0 0 0 0 0 0 0 0 0 0 0 0 0.25 0"/>
<feBlend mode="normal" in2="BackgroundImageFix" result="effect1_dropShadow_3083_3503"/>
<feBlend mode="normal" in="SourceGraphic" in2="effect1_dropShadow_3083_3503" result="shape"/>
</filter>
</defs>
</svg>
