<svg width="200" height="402" viewBox="0 0 200 402" fill="none" xmlns="http://www.w3.org/2000/svg">
<path d="M139.153 2.56691C140.584 27.8532 147.677 53.4248 142.089 78.3637C143.335 120.847 170.583 148.689 184.176 186.444C201.89 235.64 204.936 286.101 192.281 336.934C185.102 365.769 176.837 384.02 148.17 395.038C141.83 397.469 120.342 401.924 113.866 401.998C87.765 402.296 39.5099 366.947 26.0769 345.681C-14.1603 282.019 -3.21901 215.962 27.7052 151.828C37.487 131.529 51.2776 121.839 60.418 103.526C67.8561 88.6122 70.9645 71.9242 77.0828 56.477C86.7165 32.1958 107.131 -10.9572 139.141 2.56691H139.153Z" fill="black"/>
</svg>
