<svg width="200" height="160" viewBox="0 0 200 160" fill="none" xmlns="http://www.w3.org/2000/svg">
<path d="M91.8498 73.8763C90.0948 84.433 83.0751 97.5144 83.0751 108.111C83.0751 121.09 88.5306 137.369 89.4388 150.919C89.8874 157.572 88.8389 163.695 81.6678 157.301C78.4439 154.426 78.6962 150.19 77.3394 146.457C73.8856 136.956 70.3085 129.879 68.7834 119.599C66.266 102.626 64.982 81.7331 56.1289 66.4602C51.3856 58.2815 43.2277 49.2216 39.645 40.3482C37.8564 35.92 37.6322 30.4242 34.2064 26.2784C33.1075 24.9454 17.4085 13.615 15.4125 12.6265C11.185 10.531 5.6735 10.322 2.30943 8.45244C-2.80956 5.60571 1.6198 1.3921 5.57819 0.358472C12.5306 -1.45462 37.6097 4.04114 44.5285 7.19288C48.6102 9.05116 53.0396 12.5587 57.1606 14.739C66.3781 19.6134 74.7827 19.2858 76.9918 31.6838C77.6926 35.6206 76.9694 39.5631 77.4852 43.4943C77.7151 45.2283 81.6398 57.0445 82.7051 57.0445C87.0223 48.7867 88.7772 41.1277 97.664 36.6543C100.372 35.293 102.957 35.1688 105.699 33.1636C111.619 28.8314 113.873 20.5736 120.646 17.0886C132.662 10.9151 154.92 9.56515 165.343 19.4157C166.992 20.9747 167.216 22.5562 168.276 23.7028C171.348 27.0296 176.422 28.2609 180.039 30.6784C183.134 32.7456 191.286 40.3765 193.747 41.4835C195.738 42.3816 201.771 40.7549 199.494 44.398C195.087 45.5164 190.081 45.8948 185.545 45.3978C176.406 44.398 163.134 37.9759 154.909 44.3698C152.089 46.5613 149.841 51.6391 146.499 53.2715C140.203 56.3441 126.836 51.1534 123.276 56.6661C122.138 58.4283 122.25 61.0661 121.044 63.1051C117.736 68.6799 107.79 68.8946 102.435 70.4252C98.9367 71.4193 95.7913 73.6278 91.8441 73.8707L91.8498 73.8763Z" fill="black"/>
</svg>
