<svg width="200" height="130" viewBox="0 0 200 130" fill="none" xmlns="http://www.w3.org/2000/svg">
<path d="M119.824 0.389698C139.676 -2.65415 152.746 12.5651 153.546 30.958C154.278 47.855 137.34 64.9442 122.523 71.2501C117.514 73.3849 112.053 74.1952 107.007 76.195C110.258 79.5349 114.057 83.1345 118.156 85.4408C137.561 96.3592 148.221 78.8233 166.416 76.6781C191.946 73.6706 213.45 105.008 189.783 123.406C177.208 133.181 169.294 129.925 155.183 127.255C153.015 126.844 144.344 127.037 148.027 122.06C150.452 118.783 166.401 121.422 171.741 119.785C174.488 118.944 185.927 111.423 187.695 109.184C193.582 101.704 187.4 94.0945 181.27 89.3781C168.095 79.2388 158.661 90.1105 146.953 95.3411C126.749 104.374 106.286 99.8134 90.201 85.3265C87.3649 82.7709 84.1711 77.4001 82.0243 75.8366C78.9515 73.6031 72.1902 71.4734 68.2913 69.1204C50.6437 58.4669 43.0564 41.3414 18.4265 52.3169C1.76273 59.7395 14.375 68.7152 19.2578 79.6648C21.3204 84.2825 25.1193 93.8192 16.2902 93.4556C9.14485 93.1595 0.71039 74.2471 0.163176 68.1127C-1.07332 54.2907 4.73031 49.2055 17.1373 44.967C38.284 37.7366 50.5595 43.1854 69.1227 52.7792C72.5691 54.5608 75.6945 57.3346 79.2567 58.9812C80.7615 58.6539 81.4981 49.4237 81.9875 47.4758C85.6864 32.7033 103.281 2.9349 119.835 0.394897L119.824 0.389698ZM126.022 8.4668C117.951 9.07973 107.628 23.9406 103.897 30.5944C99.9666 37.6119 95.3942 47.7407 96.7623 55.8906C96.999 57.2878 97.662 58.4513 98.7827 59.3344C110.227 59.137 121.95 59.2409 131.595 52.5091C136.904 48.8004 142.007 43.3204 142.97 36.7237C144.259 27.9246 137.272 7.60975 126.017 8.4668H126.022Z" fill="black"/>
</svg>
