<svg width="200" height="197" viewBox="0 0 200 197" fill="none" xmlns="http://www.w3.org/2000/svg">
<path d="M190.754 2.68348C191.712 3.88672 192.409 8.00235 192.34 9.62262C192.006 17.2181 181.546 31.9509 177.191 38.849C170.299 49.7739 166.17 57.3215 155.443 65.5186C148.169 71.0699 138.851 73.6541 133.006 81.9469C129.799 86.4932 134.018 89.515 137.456 92.4957C143.035 97.336 148.156 98.4777 153.933 101.93C160.653 105.95 163.811 112.684 168.44 118.598C173.068 124.511 177.765 125.933 178.674 135.142C180.076 149.356 178.134 166.905 169.834 178.801C165.473 185.049 148.381 196.193 140.827 196.843C130.934 197.697 116.783 192.932 108.367 187.736C98.5972 181.706 87.7339 177.946 78.8189 170.235C64.7834 158.1 74.2043 152.35 72.2627 137.918C71.7362 133.987 69.1383 129.215 68.8786 124.922C68.3043 115.515 73.8214 115.097 79.4616 110.216C90.6189 100.563 96.0677 85.3515 110.493 79.2054C110.493 78.3918 101.441 74.3378 99.8756 74.1463C93.0732 73.3259 89.4772 79.137 81.1912 75.7939C76.0501 73.7225 71.6542 68.8001 67.8941 65.2314C66.8549 64.2401 65.2141 63.7479 64.2092 62.7771C61.5019 60.1587 58.3024 50.7447 53.6466 50.9156C52.1016 50.9703 50.577 52.4265 48.8268 52.2556C46.2084 51.9958 40.6776 51.0045 38.0456 50.0747C32.59 48.1468 26.2456 42.0827 22.1847 37.9739C19.2449 35 19.7303 31.8005 14.1243 32.0535C11.7999 32.156 -1.59298 36.4836 0.157188 30.2486C1.49716 25.4698 18.9646 20.9235 23.593 19.5493C32.1593 17.0061 36.3569 14.9552 45.9008 16.9788C54.2209 18.7358 54.9524 22.3729 60.7635 25.9826C66.5746 29.5923 76.1595 27.0422 82.8799 27.7259C91.2 28.5668 111.231 39.396 116.311 46.1163C118.587 49.1244 122.395 58.5999 123.811 62.4831C125.055 65.8877 124.754 71.5894 128.213 74.0916C128.719 71.9176 129.998 70.1196 130.62 67.9661C133.512 57.9778 132.876 45.7403 135.351 36.5519C138.318 25.504 145.407 25.9074 154.117 22.5848C162.718 19.3101 161.836 17.0813 167.756 11.6804C170.156 9.49272 179.112 2.19808 181.607 0.988005C184.977 -0.645939 188.334 -0.365638 190.748 2.67664L190.754 2.68348Z" fill="black"/>
<path d="M174.828 118.2C171.758 114.447 170.842 110.885 169.071 106.681C167.834 103.741 165.721 99.8577 164.238 96.3847C163.78 95.3113 164.47 93.5817 163.54 92.6656C163.062 92.1939 162.002 92.2486 161.469 91.8384C160.566 91.141 160.348 89.5618 158.242 89.7669L158.926 88.4269C156.772 87.962 153.949 88.0714 151.925 87.5792C150.694 87.2783 149.812 86.3623 148.725 86.0068C145.991 85.1248 142.784 86.0956 142.696 81.1254C142.648 78.5891 149.115 77.6935 151.098 77.5225C159.883 76.7432 179.606 76.9209 186.839 81.9868C194.879 87.6202 203.186 110.01 198.776 119.075C197.217 122.289 190.169 126.664 186.525 126.643C183.544 126.623 176.749 120.538 174.841 118.207L174.828 118.2Z" fill="black"/>
</svg>
