<svg width="200" height="109" viewBox="0 0 200 109" fill="none" xmlns="http://www.w3.org/2000/svg">
<path d="M181.245 18.3681C182.956 16.5428 175.24 15.4618 174.569 15.4086C146.872 13.2289 123.101 41.7068 121.22 68.0818C120.466 78.6673 124.578 92.9919 119.795 103.128C118.872 105.084 116.956 106.543 116.285 109C111.974 106.46 109.141 104.499 106.198 100.37C97.6761 88.4198 97.0745 76.269 86.281 64.7443C73.4022 50.9986 49.1517 40.4309 30.7944 47.3422C29.1006 47.9801 15.8948 54.0939 18.1318 56.6162C20.6316 56.3327 23.6513 55.0568 26.081 54.9032C31.4836 54.5606 35.1574 61.9031 34.3981 66.8827C34.001 69.4877 27.547 78.5846 24.6909 78.8563C17.4076 79.5474 5.25894 73.54 2.07577 66.6523C-5.79163 49.6341 10.2235 37.9559 24.6734 34.0986C39.1232 30.2413 73.5483 31.9425 86.2401 41.6596C92.5188 46.4679 96.7884 56.6399 100.188 64.0591C104.107 72.6007 106.858 82.2883 110.654 90.5582C110.812 90.9008 112.196 94.8113 113.084 93.6948C113.709 89.0046 112.225 84.4326 111.927 79.8605C111.156 68.07 110.514 55.7597 110.736 43.9929C110.94 33.2539 123.142 22.8515 131.19 17.5234C145.786 7.87124 162.017 -1.78088 180.211 0.280681C201.167 2.64941 206.722 23.6195 190.847 37.182C188.341 39.3204 185.164 41.9549 181.811 41.0393C180.883 40.7853 174.306 37.2766 173.377 36.6091C169.201 33.6201 168.348 28.0497 170.299 23.4895C172.162 19.136 177.209 19.455 181.245 18.3563V18.3681Z" fill="black"/>
</svg>
