<svg width="200" height="308" viewBox="0 0 200 308" fill="none" xmlns="http://www.w3.org/2000/svg">
<path d="M43.1537 0.0308973C55.3152 -0.184303 65.1215 0.536614 74.8529 8.3161C88.738 19.4204 91.3502 32.6983 100.589 46.8477C106.723 56.2412 114.742 64.3219 120.694 73.8661C128.038 85.6483 134.44 97.6995 141.859 109.492C152.244 126.009 157.971 142.343 167.06 158.225C179.007 179.11 187.604 192.441 194.466 216.554C198.791 231.737 205.161 248.264 192.753 260.983C181.202 272.819 162.061 267.944 148.1 281.577C141.602 287.915 142.266 295.91 137.63 302.183C131.946 309.865 122.193 309.553 115.459 303.506C99.8718 289.507 95.611 261.886 87.0037 243.013C80.8052 229.423 68.558 217.846 63.1517 204.729C52.3176 178.421 53.5595 159.774 36.1415 133.121C25.2004 116.368 1.32694 97.0862 14.6982 74.4794C18.4345 68.1633 24.2369 69.3038 22.995 59.3938C20.886 42.5867 -5.32123 31.9881 0.973648 12.3726C2.27973 8.29458 3.68217 5.5723 8.07145 4.48554C17.0856 2.2367 33.8933 0.213822 43.1644 0.052422L43.1537 0.0308973Z" fill="black"/>
</svg>
