<svg width="200" height="333" viewBox="0 0 200 333" fill="none" xmlns="http://www.w3.org/2000/svg">
<path d="M100.294 13.5892C133.153 46.4485 138.653 95.6975 100.084 126.753C88.5767 136.019 74.3191 139.975 61.4066 146.66C52.6886 151.174 29.3942 163.06 27.84 172.894C24.8111 192.163 55.5182 212.279 67.2651 225.411C81.8614 241.731 99.6261 272.557 85.7073 294.148C80.2772 302.577 57.5807 323.719 48.7332 328.91C44.7777 331.232 40.344 334.968 36.6974 330.056C35.3125 327.346 39.8159 320.77 41.6093 318.19C53.0373 301.79 67.9625 293.67 64.3059 270.216C57.6603 227.603 -6.92229 220.469 0.610027 164.754C6.79729 118.992 48.6933 119.899 77.6369 100.699C90.3502 92.2601 85.7372 78.949 83.4057 65.7575C81.5027 55.007 78.175 41.8952 74.4686 31.6529C71.5593 23.6224 63.1402 14.5358 68.371 5.32961C75.8834 -7.87187 93.4787 6.77429 100.294 13.5892Z" fill="black"/>
<path d="M157.584 206.213C168.384 216.066 180.898 221.586 188.47 234.509C197.288 249.553 198.035 265.036 188.948 280.241C184.525 287.633 176.026 296.102 169.161 300.167C159.935 305.627 150.609 311.546 147.491 296.78C149.812 295.325 153.857 290.094 155.501 287.444C160.234 279.842 173.276 254.017 171.253 246.026C170.606 243.456 142.509 225.532 138.962 221.855C122.712 200.563 122.353 178.514 144.532 161.676C158.361 151.185 182.731 146.452 183.947 124.822C184.644 112.417 174.591 104.247 172.658 94.822C172.15 92.3412 171.841 88.7245 175.388 88.5352C178.636 92.2216 183.15 95.5095 186.089 99.3654C188.111 102.006 198.394 118.445 199.27 120.866C202.917 130.919 192.037 147.718 185.013 154.343C175.259 163.549 152.144 172.377 146.803 183.147C141.443 193.938 150.579 199.836 157.574 206.223L157.584 206.213Z" fill="black"/>
</svg>
