<svg width="200" height="199" viewBox="0 0 200 199" fill="none" xmlns="http://www.w3.org/2000/svg">
<path d="M111.32 88.4084C112.603 88.6737 113.324 87.779 114.266 87.2027C120.893 83.1234 123.618 77.4517 129.084 72.523C136.432 65.8884 147.235 60.0043 157.514 63.0601C161.287 64.1823 162.926 68.6256 163.314 68.7925C172.606 72.6747 189.064 66.5177 196.875 70.6122C201.81 73.1979 200.2 80.8334 196.86 84.2835C190.908 90.4329 176.872 97.1737 169.189 102.004C165.257 104.476 161.651 108.388 157.241 110.473C152.374 112.771 140.676 113.446 135.119 113.385C131.172 113.34 125.979 112.157 121.91 111.853C123.671 116.721 127.778 116.881 131.172 119.398C131.916 119.952 132.341 121.551 132.91 121.68C133.738 121.862 134.679 120.308 135.863 120.224C141.359 119.823 147.41 126.624 150.256 130.779C158.546 142.866 153.361 157.743 154.454 171.186C154.956 177.359 160.588 192.281 156.74 196.929C152.891 201.577 148.381 197.134 144.183 195.83C132.69 187.383 121.978 180.907 112.846 169.67C100.798 154.846 103.987 146.172 99.7736 129.058C99.1966 126.715 97.2305 124.478 97.6784 121.695L94.1256 129.096C91.1042 139.613 91.4003 150.577 86.3748 160.662C83.4976 166.44 72.194 175.372 65.4832 174.303C64.5115 174.151 63.9573 172.324 62.5074 172.316C62.0063 172.316 54.1796 175.508 53.2534 175.956C51.1127 176.987 49.6399 179.573 47.6813 180.968C45.4267 182.568 35.7628 189.627 34.1611 190.135C32.3543 190.704 28.0803 191.303 26.6228 190.082C23.1687 187.193 22.2198 181.044 23.108 176.828C24.4744 170.36 28.8547 163.793 31.3978 157.902C34.7304 150.175 38.1086 139.984 41.9043 132.872C47.1651 123.015 55.9332 120.073 64.1851 113.597C64.8 113.112 65.5743 113.62 65.1416 111.869C57.3452 110.436 44.4474 108.434 37.9492 103.877C32.9996 100.411 30.6235 95.3388 27.0403 91.7219C20.117 84.7308 6.52834 74.7295 1.85203 66.6163C-0.858098 61.9227 -1.23767 52.7176 5.16189 51.5726C12.7153 50.2153 23.108 56.0766 30.1376 57.2595C31.3674 57.4642 39.9153 58.0632 40.6062 57.9495C41.4716 57.8054 42.0257 55.6217 43.2328 54.8255C47.7421 51.8532 55.5916 54.0066 60.2831 55.8795C65.8628 58.1011 71.2982 63.6515 74.9725 68.4209C80.0056 74.9646 81.4859 82.8959 87.8475 88.4387C85.8813 79.7719 83.7633 71.1203 82.6474 62.2639C81.9414 56.615 80.9317 48.206 80.9925 42.6783C81.076 35.0049 84.2947 27.43 84.8033 20.0143C85.2512 13.4858 82.2298 9.74758 84.2567 2.83235C85.7447 -2.24792 91.7495 0.474195 93.8067 3.48444C94.6114 4.65973 94.7025 6.47195 95.5452 7.79888C101.649 17.459 108.974 27.248 114.463 37.2796C124.036 54.7724 119.921 71.5146 111.305 88.4311L111.32 88.4084Z" fill="black"/>
</svg>
