<svg width="200" height="202" viewBox="0 0 200 202" fill="none" xmlns="http://www.w3.org/2000/svg">
<path d="M116.3 0.353983C143.924 -2.97642 169.094 17.6846 180.142 41.6525C191.19 65.6205 203.053 100.469 199.288 128.095C194.901 160.26 155.422 189.984 123.458 178.004C117.162 175.649 111.541 170.594 105.345 168.325C96.3625 183.245 85.5242 200.038 66.4872 201.746C28.3124 205.17 3.25077 173.488 0.991494 137.571C-1.26778 101.67 -2.67303 51.7295 32.272 31.1466C47.7842 22.0133 63.0323 17.552 81.1299 21.7481C83.6376 20.5626 84.15 17.63 85.8503 15.6879C93.1483 7.35797 105.384 1.6721 116.308 0.361779L116.3 0.353983ZM116.634 151.782C128.823 159.589 138.318 164.043 152.394 157.265C161.323 152.968 175.398 139.287 178.504 129.78C183.154 115.545 176.299 102.91 173.403 89.6743C171.843 82.5533 171.804 74.8786 170.367 67.8122C167.316 52.7591 147.518 18.1525 134.048 10.8834C123.73 5.31449 106.851 7.13178 99.5612 16.9982C98.3423 18.6439 95.0737 24.6495 94.9107 26.3498C94.7399 28.1437 98.5208 29.9454 99.8407 31.2401C116.642 47.8298 139.328 90.2982 136.626 114.165C136.012 119.57 129.918 129.109 126.874 133.944C124.468 137.766 118.249 144.56 116.906 148.054C116.494 149.122 116.036 150.721 116.642 151.766L116.634 151.782ZM74.6315 40.6152C59.593 39.2425 35.0204 48.9061 28.5065 63.1715C23.0253 75.1827 24.6091 84.0352 23.4756 96.2649C22.707 104.603 19.4461 113.167 18.8095 121.153C17.9632 131.768 20.075 142.423 22.311 152.718C27.1945 175.157 34.0033 197.955 62.4112 193.759C70.307 192.597 79.3674 181.202 83.7773 174.752C85.4621 172.279 93.0551 159.699 93.2337 157.702C93.5054 154.683 89.4449 153.311 87.799 151.54C76.7976 139.724 59.6007 122.058 60.6877 104.852C61.464 92.5133 67.6285 77.2496 70.3847 64.7782C72.1316 56.9006 73.3194 48.5941 74.6237 40.6152H74.6315ZM105.524 139.365L126.129 111.419C127.558 107.871 125.547 99.9775 124.056 96.4287C121.455 90.2203 113.218 86.3595 109.157 80.2602C106.067 75.6117 104.949 70.0038 102.372 65.2773C99.2429 59.5369 93.7073 54.3658 89.7399 49.1869C88.5133 49.1869 85.7648 66.8216 85.0894 69.4033C81.6888 82.3193 74.1657 96.8811 71.6968 109.688C70.9825 113.408 73.102 116.169 75.0896 119.157C81.3938 128.633 85.4077 127.143 94.0178 132.057C96.3625 133.391 104.01 140.254 105.532 139.357L105.524 139.365Z" fill="black"/>
</svg>
