<svg width="200" height="68" viewBox="0 0 200 68" fill="none" xmlns="http://www.w3.org/2000/svg">
<path d="M176.917 21.4203C172.943 25.0169 167.266 27.5977 161.811 27.7087C156.846 27.8142 155.538 25.6385 152.343 31.5328C154.625 36.1839 158.315 32.9093 161.828 32.6318C171.874 31.8437 178.721 38.1154 185.834 44.1541C189.363 45.2031 193.443 41.8119 197.389 42.0117C202.288 42.2559 199.165 45.4306 197.117 47.3177C193.154 50.9698 177.034 58.4404 171.691 59.0398C161.688 60.1665 161.594 57.4802 154.174 54.1223C148.218 51.4304 142.624 55.31 136.864 55.3156C133.58 55.3156 128.247 52.5516 125.954 52.8457C124.05 53.0899 121.323 56.2813 119.558 57.4413C102.582 68.5695 76.7495 70.3567 57.3906 65.3449C51.112 63.7186 41.5773 58.8178 35.7551 58.1296C33.5565 57.8687 31.831 58.5791 29.7103 58.6846C21.9067 59.0731 13.9304 61.1822 5.84844 61.4264C2.72585 61.5207 0.733184 61.8871 0.115346 58.2295C-1.30401 49.7654 10.7243 42.0117 17.0308 38.2986C21.133 35.8842 26.7325 34.0194 30.4952 31.2498C34.8868 28.014 36.7348 23.2963 41.3435 19.9384C60.7525 5.80754 85.2768 -3.22268 108.282 9.16543C111.104 10.6862 116.046 16.7526 117.944 16.6471C119.007 16.5916 122.024 14.4159 123.449 13.7777C126.021 12.6232 131.203 9.99797 133.674 9.5817C139.29 8.63816 146.883 10.997 151.875 7.79452C157.825 3.97597 158.07 0.845633 166.87 0.063051C173.288 -0.508623 184.827 2.93252 191.011 5.31357C192.898 6.04065 200.59 9.46514 198.553 12.2569C195.18 14.3937 188.417 10.8915 185.617 12.0737C183.925 12.7842 178.854 19.6887 176.94 21.4148L176.917 21.4203Z" fill="black"/>
</svg>
