<svg width="200" height="160" viewBox="0 0 200 160" fill="none" xmlns="http://www.w3.org/2000/svg">
<path d="M199.207 0.54844C202.885 4.41444 192.738 15.7344 189.858 18.3185C187.674 20.2786 183.88 22.2523 182.086 24.1175C178.967 27.3527 175.787 37.9741 174.184 42.6336C171.086 51.6136 172.232 56.0358 164.309 62.5741C159.813 66.2841 154.272 68.5562 149.686 72.3883C139.566 80.8528 131.234 92.1795 120.739 100.427C109.056 109.604 96.48 114.358 83.8899 121.29C80.8601 122.958 78.615 125.705 75.5306 127.184C71.7911 128.981 68.0038 128.852 64.3804 130.982C60.0745 133.519 54.5403 137.866 49.8523 140.891C39.8621 147.328 22.6727 159.76 10.4989 159.997C2.58998 160.153 -4.5751 153.371 3.64769 147.728C17.391 145.374 32.5401 146.521 43.8745 136.978C49.2927 132.42 51.995 126.126 56.1576 120.781C62.1762 113.036 72.337 103.635 75.5374 94.7297C80.1777 81.8295 80.7714 75.3047 90.4681 64.2629C104.225 48.5954 114.57 46.6217 130.586 36.5023C136.079 33.0297 140.474 27.6173 146.288 24.3752C153.432 20.3871 162.563 18.8747 169.898 15.3749C176.244 12.3499 182.632 6.34745 189.012 3.26142C191.448 2.08128 194.894 1.97955 197.289 0.0465439C197.917 -0.0958878 198.791 0.0940183 199.221 0.541661L199.207 0.54844Z" fill="black"/>
</svg>
