<svg width="90" height="77" viewBox="0 0 90 77" fill="none" xmlns="http://www.w3.org/2000/svg">
<path d="M19.3438 58.1861C17.3947 56.2212 12.3327 56.0797 9.73646 55.3528C7.6447 54.7673 2.64418 53.296 1.02492 52.1622C-0.564816 51.0507 -0.235057 49.1552 1.5294 48.4258C2.20368 48.1479 2.95179 48.1083 3.67775 48.1479C4.96233 48.2199 6.24692 48.406 7.52658 48.5474C9.44115 48.7558 11.3606 49.0436 13.2875 49.0882C13.6025 49.0957 16.5383 49.0188 16.5876 49.3537C15.2021 39.7398 17.0847 30.1308 23.4337 22.6903C28.4884 16.7681 33.8285 14.2871 41.3367 12.7985C44.4669 12.1782 47.639 11.6473 50.8382 11.6448C52.4648 11.6448 54.0915 11.7763 55.6861 12.1063C58.6515 12.7215 59.6063 12.6 61.292 9.9577C63.7628 6.08236 65.382 2.65856 69.9248 0.996281C74.3372 -0.616378 79.2836 -0.318656 83.2874 2.23679C93.4312 8.71223 89.7645 24.69 85.0273 33.6266C83.8805 35.79 79.8053 40.6032 79.3722 42.0769C78.8628 43.8111 79.35 46.5179 79.2024 48.4382C78.1393 62.3269 66.8216 72.5959 54.0201 76.0271C42.6065 79.0887 30.6663 74.7643 23.6331 65.2843C22.2771 63.4558 20.4979 59.3472 19.3413 58.1812L19.3438 58.1861ZM75.9663 27.9451C77.1549 27.0444 77.305 22.6903 77.4847 21.3604C77.6422 20.2018 78.5995 13.0193 75.7079 14.823C74.8786 15.339 74.1551 16.0312 73.5989 16.84C71.9698 19.2044 71.4235 21.6582 72.868 24.0846C73.151 24.5585 75.1985 28.5281 75.9663 27.9475V27.9451Z" fill="black"/>
</svg>
