<svg width="200" height="211" viewBox="0 0 200 211" fill="none" xmlns="http://www.w3.org/2000/svg">
<path d="M95.3112 79.302C100.413 75.4223 102.826 68.8936 106.85 64.1934C123.892 44.2596 165.605 18.163 190.206 36.8926C218.965 58.7885 176.869 92.8676 160.121 107.414C168.125 113.185 170.85 118.197 172.684 127.981C179.397 163.8 157.289 201.535 120.322 207.458C70.5591 215.431 35.3096 213.13 8.8836 166.556C-0.580969 149.859 -2.22813 142.073 2.7312 122.88C9.51577 96.5868 29.6469 82.3523 56.429 82.2006C55.9037 58.5388 54.9332 34.101 70.2208 14.5419C77.958 4.64191 91.6875 -5.65942 103.903 3.64299C119.796 15.737 101.241 63.7653 95.3112 79.3109V79.302Z" fill="black"/>
</svg>
