<svg width="200" height="199" viewBox="0 0 200 199" fill="none" xmlns="http://www.w3.org/2000/svg">
<path d="M54.7191 6.67084C59.2979 6.39676 59.8703 6.62211 61.5204 10.508C65.6669 20.2835 69.5028 32.1481 73.4119 42.3744C76.2736 49.8659 78.5935 57.5341 81.4735 65.0134C82.9531 65.4824 82.947 63.8136 83.1114 62.7294C84.4388 53.9771 87.3371 43.5864 88.0738 35.4676C88.4331 31.4843 87.8363 27.306 88.1225 23.3654C88.2991 20.9352 92.6161 0.945601 93.5781 0.245173C94.5402 -0.455254 97.2801 0.500983 98.0595 1.16487C100.038 2.83371 99.941 22.5127 100.306 26.4168C101.159 35.4067 103.43 44.3478 103.339 53.4655C104.392 53.7396 104.55 53.027 105.165 52.558C114.439 45.4441 118.603 33.3054 125.514 24.8941C129.216 20.387 134.124 16.154 137.807 11.6165L139.805 11.8175C141.68 13.3949 141.966 15.3196 141.339 17.6219C139.835 23.1461 134.099 31.8923 131.603 37.6724C128.918 43.8971 126.89 50.5724 124.108 56.9128C122.177 61.3103 118.676 65.6895 118.536 70.4768C119.291 71.2625 132.589 62.4675 134.727 61.4504C145.565 56.3098 152.049 53.6787 162.699 47.4906C166.462 45.304 179.358 39.8711 183.395 38.9941C184.131 38.8357 184.85 38.7383 185.599 38.9392C187.036 39.4204 186.81 42.7825 186.47 43.9153C185.897 45.8156 170.304 56.59 167.472 58.9471C164.093 61.761 160.933 65.4337 157.438 68.3572C151.465 73.3577 145.029 77.7551 139.208 82.9322C139.184 84.3879 145.479 83.7118 146.782 83.8519C150.539 84.266 154.534 85.4415 158.315 85.6913C166.23 86.2151 174.316 84.4853 182.031 85.07C187.474 85.4781 192.93 87.3784 198.44 87.488L199.701 88.0605C200.784 91.1668 198.793 93.2863 195.865 94.0294C189.965 95.5277 182.719 95.6069 176.733 96.7763C169.488 98.1954 162.394 100.492 155.13 101.911C148.853 103.141 142.301 103.172 136.151 105.121C135.914 106.199 136.462 106.326 137.156 106.844C145.826 113.361 156.342 114.549 165.737 118.374C170.206 120.195 177.769 124.434 182.049 126.98C186.329 129.526 182.731 133.04 179.017 132.949C162.93 128.899 146.448 127.138 130.081 124.568C134.574 130.171 137.643 136.969 142.252 142.475C149.522 151.148 155.313 156.197 161.201 166.673C161.743 167.635 164.787 173.586 164.745 174.061C164.611 175.724 162.577 176.461 161.134 176.528C158.138 176.662 147.184 165.309 144.341 162.866L119.748 144.009C119.669 149.363 119.699 154.723 120.43 160.034C121.38 166.977 124.649 173.367 125.204 180.176C125.508 183.897 125.07 187.96 125.191 191.736C125.295 195.013 127.846 200.568 121.38 198.582C120.351 198.265 119.888 197.163 119.413 196.298C116.35 190.676 114.621 182.314 112.137 176.223C109.543 169.858 106.237 163.755 103.649 157.36C101.816 152.835 100.714 147.286 98.5832 142.98C96.2877 138.339 94.5097 139.795 89.7604 139.843C87.7937 140.513 84.4205 154.607 84.0552 157.238C83.7507 159.486 84.1587 161.697 83.8786 163.749C82.5938 173.068 79.3789 181.016 76.6207 189.927C68.6991 191.432 71.1225 175.833 71.0981 170.419C71.0738 164.285 70.7328 159.492 70.4892 153.45C70.2457 147.408 70.7145 141.866 70.5136 136.11C70.1361 135.665 65.5938 139.557 65.0397 140.051C57.1303 147.061 54.2564 153.907 48.0458 161.344C45.1109 164.858 38.7359 170.991 35.2044 174.03C32.6471 176.229 30.2298 176.339 29.4626 172.581C28.8842 169.773 38.0174 156.069 39.8441 152.53C42.4806 147.414 44.5995 142.024 46.8158 136.719C40.8548 137.852 36.1543 141.756 30.2663 143.559C26.2721 144.783 16.944 147.201 13.0288 147.621C7.90203 148.176 8.99193 143.139 12.2495 140.739C21.6202 133.832 34.425 129.142 43.9784 121.419C44.7761 120.774 45.8294 120.372 45.598 119.099C42.5171 118.843 38.5898 117.899 35.6002 117.856C31.6911 117.795 27.7943 118.843 23.9279 118.867C16.5604 118.916 9.18068 116.273 1.81927 115.785C-0.871995 114.994 -0.238756 112.155 1.5331 110.572C4.1513 108.239 19.5622 107.648 23.9705 106.875C34.6686 104.999 45.1901 101.576 56.1561 100.888C57.1486 100.321 56.7406 96.6545 55.1697 96.4657C48.7886 94.5167 43.0894 90.8623 36.8118 88.694C29.5113 86.1724 22.7771 85.8131 15.4278 82.7312C10.8125 80.8005 5.60044 77.9257 1.3139 75.532C1.21648 72.2187 2.58647 71.0432 5.81355 71.0249C12.5295 70.9884 20.853 73.4856 27.6969 74.1068C32.9637 74.588 39.0221 74.1921 44.3985 74.722C45.2084 73.9911 36.8423 61.3651 35.7828 59.946C31.8373 54.6836 27.0149 51.0658 23.4834 45.505C21.7176 42.7216 16.9988 35.0717 15.9028 32.4283C15.507 31.4843 14.9712 30.6316 15.2756 29.5352C19.2029 25.8626 20.5364 29.1515 23.1789 30.6133C24.2567 31.2102 25.5292 31.4051 26.5948 32.0568C29.4139 33.7743 58.275 55.5546 59.5841 54.0624C59.3101 50.7491 59.3649 46.7231 58.9083 43.5012C58.1593 38.2632 54.7252 30.394 54.7252 25.8077V6.66475L54.7191 6.67084Z" fill="black"/>
</svg>
