<svg width="200" height="255" viewBox="0 0 200 255" fill="none" xmlns="http://www.w3.org/2000/svg">
<path d="M182.728 55.4643C184.157 57.7449 176.724 82.2304 176.576 88.2713C176.376 96.5579 181.011 111.956 184.602 119.633C189.682 130.514 200.61 137.704 199.973 151.692C194.649 161.797 190.562 173.514 185.125 183.48C181.473 190.156 175.652 195.875 172.515 202.229C170.677 205.955 169.753 211.535 167.522 215.295C161.631 225.244 134.103 248.685 123.193 251.758C97.077 259.122 69.4097 253.925 48.7921 236.342C38.0999 227.229 18.5541 210.325 13.1426 197.851C3.29566 175.15 -4.20719 154.66 2.65082 129.391C4.83807 121.331 12.0534 117.179 15.7046 110.128C18.2491 105.201 19.6695 93.816 27.9479 96.584C30.3704 97.3935 33.342 103.208 34.1088 105.645C38.2044 118.624 36.235 122.497 35.5205 134.675C35.1458 141.124 35.7558 147.688 35.5118 154.138C37.1587 154.277 38.4397 154.268 39.8514 153.25C46.4131 148.558 45.0537 126.266 46.082 118.615C49.0012 96.8799 61.0703 72.6555 70.8214 53.0706C80.5463 33.5292 89.1995 18.3661 106.811 4.47383C113.076 -0.470275 124.004 -2.77694 128.735 5.37909C132.221 11.3851 125.703 11.89 124.91 15.9027C124.012 20.4726 126.095 28.2369 125.825 33.9296C125.232 46.4814 120.309 56.7264 121.093 70.0355C121.738 80.9683 128.762 106.133 135.367 114.68C137.31 117.196 141.441 122.271 144.438 119.999C150.39 115.49 146.085 101.258 145.806 94.7386C145.257 81.595 146.582 72.8731 157.196 64.3341C160.533 61.6531 179.757 50.7117 182.737 55.4556L182.728 55.4643Z" fill="black"/>
</svg>
