<svg width="200" height="150" viewBox="0 0 200 150" fill="none" xmlns="http://www.w3.org/2000/svg">
<path d="M134.216 120.889C144.989 130.594 138.667 141.543 125.45 139.453C118.193 138.303 110.253 134.312 110.258 126.051C110.263 113.054 119.622 113.185 129.492 117.139C132.718 118.431 132.329 119.187 134.216 120.889Z" fill="black"/>
<path d="M138.421 60.5451C142.147 64.2159 143.97 72.986 141.616 77.7387C140.859 79.2721 139.766 80.4957 138.395 81.504C136.944 82.5701 136.314 83.883 135.021 85.1223C133.387 86.6768 131.237 86.472 129.182 86.0151C117.9 83.5154 114.663 65.6023 124.794 59.6786C129.766 56.7745 133.975 56.16 138.421 60.5398V60.5451Z" fill="black"/>
<path d="M192.182 72.0919C202.204 71.1361 201.169 82.9258 196.949 88.692C193.948 92.7935 183.695 100.298 178.487 98.3234C164.924 93.1769 182.644 73.0004 192.188 72.0919H192.182Z" fill="black"/>
<path d="M178.446 147.285C170.511 139.218 186.261 121.515 193.87 127.465C205.384 136.466 185.32 154.269 178.446 147.285Z" fill="black"/>
<path d="M65.1332 5.9905C72.7217 4.43079 85.376 7.81803 86.7949 16.5041C89.2438 31.534 77.6089 32.8154 66.5574 27.7319C57.5238 23.5779 51.6958 8.75281 65.1332 5.9905Z" fill="black"/>
<path d="M67.3915 60.0862C78.4483 57.6337 85.795 73.1153 80.1089 81.8644C71.2488 95.4974 55.4676 84.2486 57.6169 70.6523C58.2002 66.9762 63.7392 60.8949 67.3915 60.0862Z" fill="black"/>
<path d="M17.8192 49.9317C20.6096 49.6849 24.9924 52.3947 25.7754 55.0415C30.0479 69.52 -3.63761 88.7459 0.324773 66.3375C1.50193 59.6838 11.0768 50.5251 17.8192 49.9369V49.9317Z" fill="black"/>
<path d="M79.7939 125.465C92.9055 126.006 97.8716 147.6 83.7931 149.927C74.3601 151.486 68.7686 128.227 79.7939 125.465Z" fill="black"/>
<path d="M12.1868 0.319018C13.5321 0.0984527 14.8617 -0.221892 16.2175 0.22449C23.4906 5.20296 19.276 17.7647 12.1816 20.6583C-4.30907 27.3855 -2.8061 2.76099 12.1868 0.319018Z" fill="black"/>
</svg>
