<svg width="200" height="163" viewBox="0 0 200 163" fill="none" xmlns="http://www.w3.org/2000/svg">
<path d="M140.355 2.68898C141.284 3.87247 140.228 3.92961 142.606 4.78662C144.718 5.54568 146.253 5.35388 148.258 5.72933C149.846 6.02724 155.425 9.38999 156.649 10.5245C157.975 11.7529 159.059 14.2464 160.758 15.0993C162.989 16.2216 166.042 15.5482 168.453 15.8012C173.827 16.3603 181.485 21.1351 184.366 25.6569C188.373 31.9457 192.212 38.4671 196.109 44.7519C197.39 46.8169 199.019 47.5555 199.751 50.3918C201.225 56.1052 195.892 62.141 190.497 63.4224C184.62 64.8182 175.832 63.4224 171.048 59.5659C170.282 58.9497 170.18 57.705 168.94 57.9294C169.341 59.3782 168.26 59.6516 167.786 60.5209C166.361 63.1286 163.922 68.9236 164.126 71.8293C164.233 73.323 165.461 74.5554 165.579 75.49C165.649 76.0327 165.219 76.4694 165.473 77.0612C166.242 78.8486 175.554 85.5741 177.645 87.9819C184.043 95.3481 188.439 107.167 186.846 116.904C185.745 123.634 182.287 128.119 179.283 133.889C177.576 137.174 175.476 143.198 173.135 145.708C170.663 148.36 166.259 147.577 164.376 144.569C157.967 134.33 174.383 121.691 169.468 110.485C167.2 105.318 161.941 105.42 157.107 104.62C156.624 104.808 156.665 105.204 156.62 105.616C156.403 107.538 156.997 110.064 156.947 112.223C156.906 114.047 156.383 116.349 156.321 118.181C155.842 133.142 155.994 144.92 144.022 155.563C141.947 157.408 142.172 159.436 140.588 161.113C137.011 164.909 130.106 162.681 129.623 157.081C129.193 152.103 131.059 143.08 133.27 138.566C134.903 135.232 137.723 132.208 138.255 128.282C138.631 125.515 137.927 118.614 136.974 115.957C135.062 110.619 131.862 111.721 127.286 110.66C114.925 107.799 98.7498 102.506 86.1189 105.322C84.8583 105.604 83.6059 106.024 82.3575 106.359C81.6617 107.305 84.5391 114.439 84.8542 116.178C86.6551 126.115 84.8829 139.178 79.0545 147.626C73.0788 156.286 64.0579 152.009 64.8192 141.81C65.3554 134.607 68.3474 127.8 65.4823 120.532C64.2626 117.435 62.1097 114.525 60.7631 111.48C58.7903 109.481 56.9035 112.076 55.0535 112.333C53.9606 112.488 52.7409 112.28 51.6277 112.358C51.7464 113.86 52.0329 115.104 51.8896 116.659C51.5335 120.552 45.3 133.11 43.0816 136.889C38.0104 145.532 26.3414 139.26 27.4056 131.126C27.8435 127.768 31.0115 123.266 32.4808 120.038C34.0566 116.577 38.2192 107.22 37.8017 103.861C37.5111 101.527 33.0661 93.8177 31.5845 91.5161C28.306 86.4189 23.857 82.0726 23.1244 75.5757C22.6741 75.6328 22.6414 75.996 22.5554 76.3511C20.951 83.0317 14.345 87.5085 9.77317 92.6179C7.95999 94.6462 7.8986 96.5316 4.5342 96.9805C2.45498 97.258 0.302087 95.7317 0.0319526 93.6423C-0.156323 92.1853 0.535386 92.3119 0.854636 91.5079C1.82466 89.0389 1.52997 87.0433 2.2094 84.7824C3.76063 79.624 9.94508 77.6611 14.214 75.2941C16.0558 72.47 13.2317 70.7152 11.967 68.6053C4.15764 55.5706 15.0899 34.4759 29.4111 31.4478C32.7182 30.75 34.1017 31.7171 36.7662 31.6274C38.0186 31.5866 39.3816 30.7132 40.9737 30.6928C43.3599 30.6602 46.0162 31.3947 48.4925 31.3254C50.5758 31.2642 52.5486 30.5908 54.7915 30.7051C60.0428 30.9744 66.5096 32.9741 71.237 35.2431C73.0092 36.0961 75.7842 38.2427 77.3518 38.7161C85.6769 41.2136 94.6937 41.3361 102.814 44.7233C103.272 44.9151 103.248 45.3885 103.391 45.3803C104.026 45.3477 105.515 44.8294 106.641 44.8049C108.54 44.76 107.529 44.6825 108.241 44.4784C110.312 43.8867 113.03 44.2581 115.465 43.6541C120.954 42.2992 121.466 39.6996 125.129 36.2389C127.323 34.1617 133.699 30.3174 134.125 27.5423C134.264 26.6241 133.773 25.5099 133.458 24.6489C131.1 18.1641 123.848 15.3482 123.32 6.94547C122.845 -0.559495 129.832 -0.628871 135.406 0.579106C136.773 0.877019 139.499 1.59936 140.346 2.67674L140.355 2.68898ZM22.7355 48.0942C20.6399 50.2082 16.4897 55.387 16.5061 58.3865C16.5183 60.227 19.0887 63.6183 19.9892 65.4058C20.7832 66.9811 21.2744 68.6339 22.0848 70.1928L22.6987 69.0134C22.7396 64.9243 26.2309 57.0071 25.4696 53.3669C25.3182 52.6404 24.5446 51.5712 24.2417 50.706C23.8816 49.6695 24.3645 48.0167 22.7437 48.0983L22.7355 48.0942Z" fill="black"/>
</svg>
